SplineFontDB: 3.2
FontName: OcodoMonoDotZero-Light
FullName: OcodoMonoDotZero Light
FamilyName: OcodoMonoDotZero-Light
Weight: Light
Copyright: Ocodo/Jason Milkins ocodo.github.io
Version: 1.56
ItalicAngle: 0
UnderlinePosition: -124
UnderlineWidth: 25
Ascent: 783
Descent: 217
InvalidEm: 0
sfntRevision: 0x00010000
LayerCount: 2
Layer: 0 1 "Back" 1
Layer: 1 1 "Fore" 0
XUID: [1021 515 1217653088 999156]
StyleMap: 0x0040
FSType: 0
OS2Version: 4
OS2_WeightWidthSlopeOnly: 0
OS2_UseTypoMetrics: 0
CreationTime: 1364125971
ModificationTime: 1752205081
PfmFamily: 49
TTFWeight: 300
TTFWidth: 5
LineGap: 200
VLineGap: 0
Panose: 2 0 4 9 2 2 2 2 2 4
OS2TypoAscent: 783
OS2TypoAOffset: 0
OS2TypoDescent: -217
OS2TypoDOffset: 0
OS2TypoLinegap: 200
OS2WinAscent: 963
OS2WinAOffset: 0
OS2WinDescent: 237
OS2WinDOffset: 0
HheadAscent: 783
HheadAOffset: 0
HheadDescent: -217
HheadDOffset: 0
OS2SubXSize: 700
OS2SubYSize: 650
OS2SubXOff: 0
OS2SubYOff: 140
OS2SupXSize: 700
OS2SupYSize: 650
OS2SupXOff: 0
OS2SupYOff: 477
OS2StrikeYSize: 25
OS2StrikeYPos: 250
OS2CapHeight: 696
OS2XHeight: 495
OS2Vendor: 'OCDO'
OS2CodePages: 00000093.00000000
OS2UnicodeRanges: 800000bf.5000204a.00000000.00000000
MarkAttachClasses: 1
DEI: 91125
TtTable: prep
PUSHW_1
 511
SCANCTRL
PUSHB_1
 1
SCANTYPE
SVTCA[y-axis]
MPPEM
PUSHB_1
 8
LT
IF
PUSHB_2
 1
 1
INSTCTRL
EIF
PUSHB_2
 70
 6
CALL
IF
POP
PUSHB_1
 16
EIF
MPPEM
PUSHB_1
 20
GT
IF
POP
PUSHB_1
 128
EIF
SCVTCI
PUSHB_1
 6
CALL
NOT
IF
EIF
PUSHB_1
 20
CALL
EndTTInstrs
TtTable: fpgm
PUSHB_1
 0
FDEF
PUSHB_1
 0
SZP0
MPPEM
PUSHB_1
 42
LT
IF
PUSHB_1
 74
SROUND
EIF
PUSHB_1
 0
SWAP
MIAP[rnd]
RTG
PUSHB_1
 6
CALL
IF
RTDG
EIF
MPPEM
PUSHB_1
 42
LT
IF
RDTG
EIF
DUP
MDRP[rp0,rnd,grey]
PUSHB_1
 1
SZP0
MDAP[no-rnd]
RTG
ENDF
PUSHB_1
 1
FDEF
DUP
MDRP[rp0,min,white]
PUSHB_1
 12
CALL
ENDF
PUSHB_1
 2
FDEF
MPPEM
GT
IF
RCVT
SWAP
EIF
POP
ENDF
PUSHB_1
 3
FDEF
ROUND[Black]
RTG
DUP
PUSHB_1
 64
LT
IF
POP
PUSHB_1
 64
EIF
ENDF
PUSHB_1
 4
FDEF
PUSHB_1
 6
CALL
IF
POP
SWAP
POP
ROFF
IF

StartChar: .notdef
Encoding: 65536 -1 0
Width: 550
GlyphClass: 1
Flags: W
HStem: -10 41<121.889 428.111> 669 41<121.889 428.111>
VStem: 51 40<67.4663 633.429> 459 40<65.6758 637.905>
LayerCount: 2
Fore
SplineSet
51 -10 m 1,0,-1
 51 710 l 1,1,-1
 499 710 l 1,2,-1
 499 -10 l 1,3,-1
 51 -10 l 1,0,-1
459 637.904867219 m 1,4,-1
 301.416915896 350.029624191 l 1,5,-1
 459 65.6757908646 l 1,6,-1
 459 637.904867219 l 1,4,-1
248.554136553 350.007548843 m 1,7,-1
 91 633.428956497 l 1,8,-1
 91 67.4663318972 l 1,9,-1
 248.554136553 350.007548843 l 1,7,-1
121.889300242 669 m 1,10,-1
 275 389.798135736 l 1,11,-1
 428.110699758 669 l 1,12,-1
 121.889300242 669 l 1,10,-1
275 310.201864264 m 1,13,-1
 121.889300242 31 l 1,14,-1
 428.110699758 31 l 1,15,-1
 275 310.201864264 l 1,13,-1
EndSplineSet
EndChar

StartChar: exclam
Encoding: 33 33 4
Width: 550
GlyphClass: 2
Flags: W
HStem: -10 61<247 303>
VStem: 252 49<-10 51 184 706>
LayerCount: 2
Fore
SplineSet
252 184 m 1,0,-1
 252 706 l 1,1,-1
 301 706 l 1,2,-1
 301 184 l 1,3,-1
 252 184 l 1,0,-1
247 -10 m 1,4,-1
 247 51 l 1,5,-1
 303 51 l 1,6,-1
 303 -10 l 1,7,-1
 247 -10 l 1,4,-1
EndSplineSet
EndChar

StartChar: quotedbl
Encoding: 34 34 5
Width: 550
GlyphClass: 2
Flags: W
HStem: 535 171<198 248 302 352>
VStem: 198 50<535 706> 302 50<535 706>
LayerCount: 2
Fore
SplineSet
248 706 m 1,0,-1
 248 535 l 1,1,-1
 198 535 l 1,2,-1
 198 706 l 1,3,-1
 248 706 l 1,0,-1
352 706 m 1,4,-1
 352 535 l 1,5,-1
 302 535 l 1,6,-1
 302 706 l 1,7,-1
 352 706 l 1,4,-1
EndSplineSet
EndChar

StartChar: numbersign
Encoding: 35 35 6
Width: 550
GlyphClass: 2
Flags: W
HStem: 218 38<46 144 190 326 370 474> 443 39<76 176 220 358 402 504>
LayerCount: 2
Fore
SplineSet
504 482 m 1,0,-1
 504 443 l 1,1,-1
 398 443 l 1,2,-1
 370 256 l 1,3,-1
 474 256 l 1,4,-1
 474 218 l 1,5,-1
 366 218 l 1,6,-1
 338 -10 l 1,7,-1
 296 -10 l 1,8,-1
 326 218 l 1,9,-1
 186 218 l 1,10,-1
 154 -10 l 1,11,-1
 110 -10 l 1,12,-1
 144 218 l 1,13,-1
 46 218 l 1,14,-1
 46 256 l 1,15,-1
 148 256 l 1,16,-1
 176 443 l 1,17,-1
 76 443 l 1,18,-1
 76 482 l 1,19,-1
 180 482 l 1,20,-1
 210 705 l 1,21,-1
 250 705 l 1,22,-1
 220 482 l 1,23,-1
 362 482 l 1,24,-1
 394 705 l 1,25,-1
 432 705 l 1,26,-1
 402 482 l 1,27,-1
 504 482 l 1,0,-1
358 443 m 1,28,-1
 216 443 l 1,29,-1
 190 256 l 1,30,-1
 330 256 l 1,31,-1
 358 443 l 1,28,-1
EndSplineSet
EndChar

StartChar: dollar
Encoding: 36 36 7
Width: 550
GlyphClass: 2
Flags: W
HStem: -3 43<136.978 212 334 400.152> 652 44<334 408.607> 667.868 28.1321<165.603 211.378>
VStem: 67 46<450.487 610.293> 212 45<-88 -0.310059 40 363.616 406 665.934 691.371 764> 289 45<-88 3.56396 35 325 364.663 652 692.733 764> 456 46<95.6425 264.545>
LayerCount: 2
Fore
SplineSet
257 764 m 1,0,1
 257 338 257 338 257 -88 c 1,2,-1
 212 -88 l 1,3,4
 212 -37 212 -37 212 -3 c 1,5,6
 123 7 123 7 48 59 c 1,7,8
 48 59 48 59 75 95 c 1,9,10
 139 51 139 51 212 40 c 1,11,12
 212 202 212 202 212 357 c 1,13,14
 145 377 145 377 107 412 c 0,15,16
 67 449 67 449 67 519 c 0,17,18
 67 587 67 587 106 636 c 0,19,20
 144 684 144 684 212 696 c 1,21,22
 212 722 212 722 212 764 c 1,23,-1
 257 764 l 1,0,1
289 -88 m 1,24,25
 289 338 289 338 289 764 c 1,26,-1
 334 764 l 1,27,28
 334 721 334 721 334 696 c 1,29,30
 409 686 409 686 466 653 c 1,31,32
 466 653 466 653 444 614 c 1,33,34
 392 642 392 642 334 652 c 1,35,36
 334 507 334 507 334 371 c 1,37,38
 368 362 368 362 397 349 c 0,39,40
 420 339 420 339 449 316 c 0,41,42
 502 274 502 274 502 184 c 0,43,44
 502 109 502 109 456 58 c 0,45,46
 413 10 413 10 334 0 c 1,47,48
 334 -34 334 -34 334 -88 c 1,49,-1
 289 -88 l 1,24,25
422 79 m 0,50,51
 456 117 456 117 456 178 c 0,52,53
 456 247 456 247 423 278 c 0,54,55
 391 308 391 308 334 325 c 1,56,-1
 334 35 l 1,57,58
 391 44 391 44 422 79 c 0,50,51
143 652 m 0,59,60
 113 617 113 617 113 524 c 0,61,62
 113 472 113 472 139 445 c 0,63,64
 163 420 163 420 212 406 c 1,65,-1
 212 657 l 1,66,67
 192.075471698 667.867924528 192.075471698 667.867924528 176.046991812 667.867924528 c 0,68,69
 156.679245283 667.867924528 156.679245283 667.867924528 143 652 c 0,59,60
EndSplineSet
EndChar

StartChar: percent
Encoding: 37 37 8
Width: 550
GlyphClass: 2
Flags: W
HStem: -11 44<350.873 468.32> 271 43<350.635 466.67> 381 44<77.4723 195.524> 663 43<78.3845 193.327>
VStem: 13 44<445.566 643.373> 215 47<445.535 643.373> 282 47<54.0215 251.373> 486 44<53.5969 251.403>
LayerCount: 2
Fore
SplineSet
262 599 m 2,0,1
 262 539 262 539 262 489 c 2,2,3
 262 440 262 440 225 410 c 0,4,5
 189 381 189 381 135 381 c 0,6,7
 84 381 84 381 49 409 c 0,8,9
 13 438 13 438 13 489 c 2,10,11
 13 539 13 539 13 599 c 2,12,13
 13 651 13 651 48 678 c 0,14,15
 84 706 84 706 135 706 c 0,16,17
 189 706 189 706 225.5 677.5 c 128,-1,18
 262 649 262 649 262 599 c 2,0,1
195 445 m 0,19,20
 215 462 215 462 215 494 c 2,21,22
 215 538 215 538 215 594 c 2,23,24
 215 624 215 624 193 644 c 0,25,26
 172 663 172 663 135 663 c 0,27,28
 100 663 100 663 79 644 c 0,29,30
 57 624 57 624 57 594 c 2,31,32
 57 538 57 538 57 494 c 2,33,34
 57 463 57 463 78 445 c 0,35,36
 101 425 101 425 137 425 c 0,37,38
 171 425 171 425 195 445 c 0,19,20
43 -17 m 1,39,40
 43 -17 43 -17 -6 -17 c 1,41,42
 248 348 248 348 505 714 c 1,43,-1
 556 714 l 1,44,45
 301 348 301 348 43 -17 c 1,39,40
530 207 m 130,-1,47
 530 157 530 157 530 97 c 2,48,49
 530 47 530 47 496 18 c 128,-1,50
 462 -11 462 -11 410 -11 c 0,51,52
 355 -11 355 -11 319 17 c 0,53,54
 282 46 282 46 282 97 c 2,55,56
 282 157 282 157 282 207 c 2,57,58
 282 259 282 259 319 286 c 0,59,60
 357 314 357 314 410 314 c 0,61,62
 462 314 462 314 496 285.5 c 128,-1,46
 530 257 530 257 530 207 c 130,-1,47
468 53 m 0,63,64
 486 72 486 72 486 104 c 2,65,66
 486 158 486 158 486 202 c 2,67,68
 486 233 486 233 466 252 c 128,-1,69
 446 271 446 271 410 271 c 0,70,71
 372 271 372 271 351 252 c 0,72,73
 329 232 329 232 329 202 c 2,74,75
 329 158 329 158 329 104 c 2,76,77
 329 72 329 72 351 53 c 0,78,79
 374 33 374 33 412 33 c 0,80,81
 449 33 449 33 468 53 c 0,63,64
EndSplineSet
EndChar

StartChar: ampersand
Encoding: 38 38 9
Width: 550
GlyphClass: 2
Flags: W
HStem: -16 43<119.708 294.236> 670 46<160.655 317.14>
VStem: 9 46<85.9258 243.788> 78 48<505.372 634.519> 436 47<171.376 298>
LayerCount: 2
Fore
SplineSet
234 716 m 0,0,1
 326 716 326 716 394 658 c 1,2,-1
 361 621 l 1,3,4
 296 670 296 670 235 670 c 0,5,6
 175 670 175 670 151 639 c 0,7,8
 126 607 126 607 126 572 c 0,9,10
 126 522 126 522 201 425 c 2,11,-1
 407 156 l 1,12,13
 436 208 436 208 436 298 c 1,14,-1
 483 298 l 1,15,16
 483 189 483 189 439 118 c 1,17,-1
 541 -10 l 1,18,-1
 479 -10 l 1,19,-1
 410 79 l 1,20,21
 323 -16 323 -16 200 -16 c 0,22,23
 118 -16 118 -16 63 31 c 0,24,25
 9 77 9 77 9 160 c 0,26,27
 9 290 9 290 163 399 c 1,28,-1
 147 419 l 2,29,30
 78 510 78 510 78 572 c 0,31,32
 78 630 78 630 117.5 673 c 128,-1,33
 157 716 157 716 234 716 c 0,0,1
55 164 m 0,34,35
 55 97 55 97 99 62 c 128,-1,36
 143 27 143 27 201 27 c 0,37,38
 305 27 305 27 378 115 c 1,39,-1
 191 361 l 1,40,41
 55 270 55 270 55 164 c 0,34,35
EndSplineSet
EndChar

StartChar: quotesingle
Encoding: 39 39 10
Width: 550
GlyphClass: 2
Flags: W
HStem: 535 171<245 305>
VStem: 245 60<535 706>
LayerCount: 2
Fore
SplineSet
305 706 m 1,0,-1
 305 535 l 1,1,-1
 245 535 l 1,2,-1
 245 706 l 1,3,-1
 305 706 l 1,0,-1
EndSplineSet
EndChar

StartChar: parenleft
Encoding: 40 40 11
Width: 550
GlyphClass: 2
Flags: W
HStem: -132 43<305.736 379.388> 692 44<302.086 379.388>
VStem: 170.567 46<-2.89511 605.207>
LayerCount: 2
Fore
SplineSet
232.967773438 -70.76953125 m 4,0,1
 170.567382812 -10.4482421875 170.567382812 -10.4482421875 170.567382812 101.40625 c 6,2,3
 170.567382812 101.40625 170.567382812 101.40625 170.567382812 509.401367188 c 6,4,5
 170.103515625 615 170.103515625 615 235.116210938 675.3984375 c 4,6,7
 300.103515625 736 300.103515625 736 379.387695312 736 c 5,8,9
 379.387695312 736 379.387695312 736 379.387695312 692 c 5,10,11
 318.103515625 692 318.103515625 692 268.002929688 644.846679688 c 4,12,13
 216.567382812 597.427734375 216.567382812 597.427734375 216.567382812 506.981445312 c 6,14,15
 216.567382812 506.981445312 216.567382812 506.981445312 216.567382812 97.0185546875 c 6,16,17
 216.103515625 7 216.103515625 7 267.536132812 -40.8779296875 c 4,18,19
 321.103515625 -89 321.103515625 -89 379.435546875 -89 c 5,20,21
 379.435546875 -89 379.435546875 -89 379.387695312 -132 c 5,22,23
 296.103515625 -132 296.103515625 -132 232.967773438 -70.76953125 c 4,0,1
EndSplineSet
EndChar

StartChar: parenright
Encoding: 41 41 12
Width: 550
GlyphClass: 2
Flags: W
HStem: -132 44<170.612 247.914> 693 43<170.612 244.264>
VStem: 333.433 46<-1.20731 606.895>
LayerCount: 2
Fore
SplineSet
317.032226562 674.76953125 m 4,0,1
 379.432617188 614.448242188 379.432617188 614.448242188 379.432617188 502.59375 c 6,2,3
 379.432617188 502.59375 379.432617188 502.59375 379.432617188 94.5986328125 c 6,4,5
 379.896484375 -11 379.896484375 -11 314.883789062 -71.3984375 c 4,6,7
 249.896484375 -132 249.896484375 -132 170.612304688 -132 c 5,8,9
 170.612304688 -132 170.612304688 -132 170.612304688 -88 c 5,10,11
 231.896484375 -88 231.896484375 -88 281.997070312 -40.8466796875 c 4,12,13
 333.432617188 6.572265625 333.432617188 6.572265625 333.432617188 97.0185546875 c 6,14,15
 333.432617188 97.0185546875 333.432617188 97.0185546875 333.432617188 506.981445312 c 6,16,17
 333.896484375 597 333.896484375 597 282.463867188 644.877929688 c 4,18,19
 228.896484375 693 228.896484375 693 170.564453125 693 c 5,20,21
 170.564453125 693 170.564453125 693 170.612304688 736 c 5,22,23
 253.896484375 736 253.896484375 736 317.032226562 674.76953125 c 4,0,1
EndSplineSet
EndChar

StartChar: asterisk
Encoding: 42 42 13
Width: 550
GlyphClass: 2
Flags: W
HStem: 415 289
VStem: 250.5 49<582 704>
LayerCount: 2
Fore
SplineSet
299.5 704 m 1,0,-1
 299.5 582 l 1,1,-1
 410.5 630 l 1,2,-1
 427.5 580 l 1,3,-1
 307.5 544 l 1,4,-1
 386.5 449 l 1,5,-1
 345.5 415 l 1,6,-1
 274.5 523 l 1,7,-1
 206.5 415 l 1,8,-1
 165.5 448 l 1,9,-1
 241.5 544 l 1,10,-1
 122.5 580 l 1,11,-1
 139.5 630 l 1,12,-1
 250.5 582 l 1,13,-1
 250.5 704 l 1,14,-1
 299.5 704 l 1,0,-1
EndSplineSet
EndChar

StartChar: plus
Encoding: 43 43 14
Width: 550
GlyphClass: 2
Flags: W
HStem: 251 44<65.5 253.5 296.5 484.5>
VStem: 253.5 43<55 251 295 488>
LayerCount: 2
Fore
SplineSet
296.5 295 m 1,0,-1
 484.5 295 l 1,1,-1
 484.5 251 l 1,2,-1
 296.5 251 l 1,3,-1
 296.5 55 l 5,4,-1
 253.5 55 l 5,5,-1
 253.5 251 l 1,6,-1
 65.5 251 l 1,7,-1
 65.5 295 l 1,8,-1
 253.5 295 l 1,9,-1
 253.5 488 l 1,10,-1
 296.5 488 l 1,11,-1
 296.5 295 l 1,0,-1
EndSplineSet
EndChar

StartChar: comma
Encoding: 44 44 15
Width: 550
GlyphClass: 2
Flags: W
HStem: -112 170<255.126 278.749>
VStem: 246.874 73<-4.8584 58>
LayerCount: 2
Fore
SplineSet
230.125976562 -112 m 1,0,-1
 255.125976562 -10 l 1,1,-1
 246.874023438 -10 l 1,2,-1
 246.874023438 58 l 1,3,-1
 319.874023438 58 l 1,4,-1
 319.874023438 -4.8583984375 l 1,5,-1
 278.749023438 -112 l 1,6,-1
 230.125976562 -112 l 1,0,-1
EndSplineSet
EndChar

StartChar: hyphen
Encoding: 45 45 16
Width: 550
GlyphClass: 2
Flags: W
HStem: 243 46<139.5 410.5>
VStem: 139.5 271<243 289>
LayerCount: 2
Fore
SplineSet
139.5 289 m 1,0,-1
 410.5 289 l 1,1,-1
 410.5 243 l 1,2,-1
 139.5 243 l 1,3,-1
 139.5 289 l 1,0,-1
EndSplineSet
EndChar

StartChar: period
Encoding: 46 46 17
Width: 550
GlyphClass: 2
Flags: W
HStem: -10 77<239.5 310.5>
VStem: 239.5 71<-10 67>
LayerCount: 2
Fore
SplineSet
239.5 -10 m 5,0,-1
 239.5 67 l 1,1,-1
 310.5 67 l 1,2,-1
 310.5 -10 l 5,3,-1
 239.5 -10 l 5,0,-1
EndSplineSet
EndChar

StartChar: slash
Encoding: 47 47 18
Width: 550
GlyphClass: 2
Flags: W
LayerCount: 2
Fore
SplineSet
32.6396484375 -27 m 1,0,-1
 467.211914062 724 l 5,1,-1
 517.360351562 724 l 5,2,-1
 80.7333984375 -27 l 1,3,-1
 32.6396484375 -27 l 1,0,-1
EndSplineSet
EndChar

StartChar: zero
Encoding: 48 48 19
Width: 550
GlyphClass: 2
Flags: W
HStem: -7 44<198.881 353.968> 654 47<195.441 353.696>
VStem: 60.5 47<122.937 565.396> 247.5 56<240 449> 442.5 47<125.5 566.417>
LayerCount: 2
Fore
SplineSet
247.5 449 m 1,0,-1
 303.5 449 l 1,1,-1
 303.5 240 l 1,2,-1
 247.5 240 l 1,3,-1
 247.5 449 l 1,0,-1
125.5 640 m 128,-1,5
 190.5 701 190.5 701 276.5 701 c 0,6,7
 357.5 701 357.5 701 423.5 643 c 128,-1,8
 489.5 585 489.5 585 489.5 474 c 2,9,10
 489.5 350 489.5 350 489.5 226 c 2,11,12
 489.5 112 489.5 112 423.5 52 c 0,13,14
 358.5 -7 358.5 -7 276.5 -7 c 0,15,16
 188.5 -7 188.5 -7 123.5 55 c 0,17,18
 60.5 115 60.5 115 60.5 226 c 2,19,20
 60.5 350 60.5 350 60.5 474 c 2,21,4
 60.5 579 60.5 579 125.5 640 c 128,-1,5
390.5 606 m 0,22,23
 334.5 654 334.5 654 277.5 654 c 0,24,25
 211.5 654 211.5 654 159.5 606 c 128,-1,26
 107.5 558 107.5 558 107.5 466 c 2,27,28
 107.5 327 107.5 327 107.5 208 c 2,29,30
 107.5 132 107.5 132 159.5 86 c 0,31,32
 215.5 37 215.5 37 277.5 37 c 0,33,34
 338.5 37 338.5 37 390.5 86 c 0,35,36
 442.5 134 442.5 134 442.5 214 c 2,37,38
 442.5 330 442.5 330 442.5 466 c 2,39,40
 442.5 561 442.5 561 390.5 606 c 0,22,23
EndSplineSet
EndChar

StartChar: one
Encoding: 49 49 20
Width: 550
GlyphClass: 2
Flags: W
HStem: 0 21G<330.5 375.5> 676 20G<296.368 375.5>
VStem: 330.5 45<0 640.934>
LayerCount: 2
Fore
SplineSet
340.5 0 m 1,0,-1
 330.5 0 l 1,1,2
 330.5 321.236328125 330.5 321.236328125 330.5 640.93359375 c 1,3,4
 252.5 593.537109375 252.5 593.537109375 174.5 560.251953125 c 1,5,6
 174.5 560.251953125 174.5 560.251953125 174.5 611.419921875 c 1,7,8
 255.745117188 645.170898438 255.745117188 645.170898438 336.990234375 696 c 5,9,-1
 375.5 696 l 5,10,11
 375.5 348 375.5 348 375.5 0 c 1,12,-1
 365.5 0 l 1,13,-1
 340.5 0 l 1,0,-1
EndSplineSet
EndChar

StartChar: two
Encoding: 50 50 21
Width: 550
GlyphClass: 2
Flags: W
HStem: 0 44<131.177 479> 655 44<187.723 371.696>
VStem: 77.3467 44.2959<554.071 591.709> 429 47<444.052 599.895>
LayerCount: 2
Fore
SplineSet
150.624023438 662.090820312 m 0,0,1
 204.420898438 699 204.420898438 699 275 699 c 0,2,3
 374.078125 699 374.078125 699 424.994140625 650.62109375 c 128,-1,4
 476 602.158203125 476 602.158203125 476 530.0703125 c 128,-1,5
 476 457.983398438 476 457.983398438 428.961914062 398.137695312 c 2,6,7
 280.75390625 225.526367188 280.75390625 225.526367188 131.176757812 44 c 1,8,-1
 479 44 l 1,9,10
 479 44 479 44 479 0 c 1,11,-1
 71 0 l 5,12,13
 71 0 71 0 71 37.5224609375 c 5,14,15
 225.619140625 232.012695312 225.619140625 232.012695312 391.995117188 420.270507812 c 2,16,17
 429 468.125976562 429 468.125976562 429 527.939453125 c 0,18,19
 429 583.020507812 429 583.020507812 391.018554688 618.959960938 c 0,20,21
 352.112304688 655 352.112304688 655 275 655 c 0,22,23
 220.729492188 655 220.729492188 655 178.284179688 627.34375 c 0,24,25
 139.485351562 599.763671875 139.485351562 599.763671875 124.508789062 553.897460938 c 2,26,27
 124.508789062 553.897460938 124.508789062 553.897460938 121.642578125 545.120117188 c 1,28,29
 121.642578125 545.120117188 121.642578125 545.120117188 77.3466796875 555.750976562 c 1,30,31
 77.3466796875 555.750976562 77.3466796875 555.750976562 80.4296875 565.905273438 c 2,32,33
 98.423828125 625.182617188 98.423828125 625.182617188 150.624023438 662.090820312 c 0,0,1
EndSplineSet
EndChar

StartChar: three
Encoding: 51 51 22
Width: 550
GlyphClass: 2
Flags: W
HStem: -6 41<169.701 355> 339 44<227 364.955> 661 41<179.92 355.112>
VStem: 69 45<84.4263 120.089> 424 46<438.541 594.957> 436 45<106.779 276.894>
LayerCount: 2
Fore
SplineSet
452 300 m 0,0,1
 481 247 481 247 481 193 c 0,2,3
 481 102 481 102 423 48 c 128,-1,4
 365 -6 365 -6 256 -6 c 0,5,6
 108 -6 108 -6 72 108 c 2,7,8
 72 108 72 108 69 119 c 0,9,10
 69 119 69 119 114 126 c 1,11,12
 114 126 114 126 116 118 c 2,13,14
 130 80 130 80 164 58 c 0,15,16
 199 35 199 35 258 35 c 0,17,18
 340 35 340 35 389 77 c 0,19,20
 436 117 436 117 436 190 c 0,21,22
 436 261 436 261 396 300 c 128,-1,23
 356 339 356 339 286 339 c 2,24,-1
 239 339 l 1,25,-1
 227 339 l 1,26,-1
 227 383 l 1,27,-1
 239 383 l 1,28,-1
 277 383 l 2,29,30
 345 383 345 383 385 419 c 0,31,32
 424 454 424 454 424 517 c 0,33,34
 424 578 424 578 383 620 c 0,35,36
 343 661 343 661 263 661 c 0,37,38
 214 661 214 661 173 637 c 0,39,40
 135 615 135 615 121 573 c 2,41,42
 121 573 121 573 119 564 c 0,43,44
 119 564 119 564 75 574 c 1,45,46
 75 574 75 574 78 584 c 2,47,48
 98 640 98 640 145 671 c 128,-1,49
 192 702 192 702 265 702 c 0,50,51
 367 702 367 702 419 648 c 0,52,53
 470 595 470 595 470 518 c 0,54,55
 470 474 470 474 449 429 c 0,56,57
 438 405 438 405 411 383 c 0,58,59
 395 370 395 370 376 362 c 1,60,61
 428 344 428 344 452 300 c 0,0,1
EndSplineSet
EndChar

StartChar: four
Encoding: 52 52 23
Width: 550
GlyphClass: 2
Flags: W
HStem: 0 21G<390 435> 111.788 42.7705<111.629 390 435 498> 676 20G<187.058 378.629>
VStem: 390 45<0 111.788 154.559 368.413>
LayerCount: 2
Fore
SplineSet
435 368.413085938 m 1,0,1
 435 368.413085938 435 368.413085938 435 154.55859375 c 1,2,-1
 498 154.55859375 l 1,3,4
 498 154.55859375 498 154.55859375 498 111.788085938 c 1,5,-1
 435 111.788085938 l 1,6,7
 435 111.788085938 435 111.788085938 435 0 c 1,8,9
 435 0 435 0 390 0 c 1,10,11
 390 0 390 0 390 111.788085938 c 1,12,-1
 142 111.788085938 l 4,13,14
 142 111.788085938 142 111.788085938 52 111.788085938 c 1,15,16
 52 111.788085938 52 111.788085938 52 145.961914062 c 1,17,18
 52 145.961914062 52 145.961914062 322.116210938 696 c 1,19,-1
 378.62890625 696 l 1,20,21
 378.62890625 696 378.62890625 696 111.62890625 154.55859375 c 1,22,-1
 390 154.55859375 l 1,23,24
 390 154.55859375 390 154.55859375 390 368.413085938 c 1,25,-1
 435 368.413085938 l 1,0,1
EndSplineSet
EndChar

StartChar: five
Encoding: 53 53 24
Width: 550
GlyphClass: 2
Flags: W
HStem: -6 41<176.524 361.525> 427 41<189.611 366.766> 652 44<129.5 450.5>
VStem: 86.5 43<418.625 652> 429.5 43<99.3421 366.143>
LayerCount: 2
Fore
SplineSet
450.5 652 m 17,0,-1
 129.5 652 l 1,1,-1
 129.5 418.625 l 1,2,3
 189.1875 468 189.1875 468 279.017578125 468 c 0,4,5
 383.157226562 468 383.157226562 468 427.828125 415.918945312 c 128,-1,6
 472.5 363.837890625 472.5 363.837890625 472.5 278.987304688 c 2,7,8
 472.5 238.294921875 472.5 238.294921875 472.5 187.909179688 c 2,9,10
 472.5 100.87109375 472.5 100.87109375 422.704101562 47.435546875 c 128,-1,11
 372.91015625 -6 372.91015625 -6 266.388671875 -6 c 0,12,13
 123.561523438 -6 123.561523438 -6 81.12890625 107.502929688 c 2,14,15
 81.12890625 107.502929688 81.12890625 107.502929688 77.5 117.209960938 c 9,16,17
 77.5 117.209960938 77.5 117.209960938 117.50390625 130.543945312 c 17,18,19
 120.5 122 120.5 122 120.875 121.483398438 c 2,20,21
 135.725585938 81.58203125 135.725585938 81.58203125 171.590820312 58.2919921875 c 0,22,23
 208.935546875 35 208.935546875 35 269.833007812 35 c 0,24,25
 348.817382812 35 348.817382812 35 389.348632812 74.9677734375 c 0,26,27
 429.5 115.030273438 429.5 115.030273438 429.5 178.34375 c 2,28,29
 429.5 235.875976562 429.5 235.875976562 429.5 283.65625 c 2,30,31
 429.5 348.116210938 429.5 348.116210938 392.305664062 387.55859375 c 128,-1,32
 355.11328125 427 355.11328125 427 269.833007812 427 c 0,33,34
 232.442382812 427 232.442382812 427 186.583007812 405.611328125 c 0,35,36
 145.310546875 384.263671875 145.310546875 384.263671875 126.73828125 357.33203125 c 2,37,-1
 123.75 353 l 5,38,-1
 86.5 353 l 5,39,-1
 86.5 696 l 1,40,-1
 450.5 696 l 9,41,42
 450.5 696 450.5 696 450.5 652 c 17,0,-1
EndSplineSet
EndChar

StartChar: six
Encoding: 54 54 25
Width: 550
GlyphClass: 2
Flags: W
HStem: -6 40<187.494 358.493> 353 41<189.07 362.816> 676 20G<305.9 370>
VStem: 74 43<105.254 282.417> 433 43<106.113 285.506>
LayerCount: 2
Fore
SplineSet
183 374 m 1,0,1
 223 394 223 394 277 394 c 0,2,3
 363 394 363 394 420 343 c 0,4,5
 476 293 476 293 476 205 c 0,6,7
 476 101 476 101 418 47 c 0,8,9
 361 -6 361 -6 278 -6 c 0,10,11
 185 -6 185 -6 130 45 c 0,12,13
 74 97 74 97 74 192 c 0,14,15
 74 255 74 255 100 305 c 0,16,-1
 317 696 l 5,17,-1
 370 696 l 5,18,-1
 183 374 l 1,0,1
433 204 m 0,19,20
 433 271 433 271 391 312 c 128,-1,21
 349 353 349 353 275 353 c 0,22,23
 202 353 202 353 159 310 c 0,24,25
 117 268 117 268 117 195 c 128,-1,26
 117 122 117 122 157 78 c 128,-1,27
 197 34 197 34 275 34 c 0,28,29
 346 34 346 34 389.817382812 77.103515625 c 0,30,31
 433 119.583007812 433 119.583007812 433 204 c 0,19,20
EndSplineSet
EndChar

StartChar: seven
Encoding: 55 55 26
Width: 550
GlyphClass: 2
Flags: W
HStem: 0 21G<145.887 335.493> 652 44<73.5 426.887>
LayerCount: 2
Fore
SplineSet
73.5 652 m 1,0,1
 73.5 652 73.5 652 73.5 696 c 1,2,-1
 476.5 696 l 1,3,4
 476.5 696 476.5 696 476.5 660.8671875 c 1,5,6
 476.5 660.8671875 476.5 660.8671875 194.485351562 0 c 1,7,8
 194.485351562 0 194.485351562 0 145.88671875 0 c 1,9,10
 145.88671875 0 145.88671875 0 426.88671875 652 c 1,11,-1
 73.5 652 l 1,0,1
EndSplineSet
EndChar

StartChar: eight
Encoding: 56 56 27
Width: 550
GlyphClass: 2
Flags: W
HStem: -6 43<186.926 362.118> 340 40<186.209 363.044> 661 39<191.024 358.707>
VStem: 60 43<117.172 264.958> 74 43<440.862 596.311> 433 43<439.775 595.963> 447 43<118.205 266.27>
LayerCount: 2
Fore
SplineSet
378 360 m 1,0,1
 430 339 430 339 460 291 c 128,-1,2
 490 243 490 243 490 188 c 0,3,4
 490 105 490 105 430 49 c 0,5,6
 371 -6 371 -6 275 -6 c 0,7,8
 180 -6 180 -6 120 49 c 128,-1,9
 60 104 60 104 60 188 c 0,10,11
 60 239 60 239 90 289 c 0,12,13
 119 337 119 337 169 359 c 1,14,15
 122 381 122 381 98 423 c 128,-1,16
 74 465 74 465 74 515 c 0,17,18
 74 592 74 592 129 646 c 128,-1,19
 184 700 184 700 276 700 c 128,-1,20
 368 700 368 700 422 647 c 128,-1,21
 476 594 476 594 476 515 c 0,22,23
 476 408 476 408 378 360 c 1,0,1
389 622 m 0,24,25
 341 661 341 661 275 661 c 128,-1,26
 209 661 209 661 161 622 c 0,27,28
 117 586 117 586 117 517 c 0,29,30
 117 452 117 452 161 416 c 128,-1,31
 205 380 205 380 275 380 c 0,32,33
 342 380 342 380 389 415 c 0,34,35
 433 448 433 448 433 517 c 128,-1,36
 433 586 433 586 389 622 c 0,24,25
275 37 m 128,-1,38
 348 37 348 37 397.5 84 c 128,-1,39
 447 131 447 131 447 193 c 128,-1,40
 447 255 447 255 398 297.5 c 128,-1,41
 349 340 349 340 274 340 c 128,-1,42
 199 340 199 340 151 296.5 c 128,-1,43
 103 253 103 253 103 191 c 128,-1,44
 103 129 103 129 152.5 83 c 128,-1,37
 202 37 202 37 275 37 c 128,-1,38
EndSplineSet
EndChar

StartChar: nine
Encoding: 57 57 28
Width: 550
GlyphClass: 2
Flags: W
HStem: 0 21G<179.755 341.467> 302 41<189.498 361.811> 663 39<193.285 360.09>
VStem: 74 43<414.31 589.937> 433 43<413.224 590.654>
LayerCount: 2
Fore
SplineSet
365.936523438 319.463867188 m 1,0,1
 322.603515625 302 322.603515625 302 272.71875 302 c 0,2,3
 187.028320312 302 187.028320312 302 130.514648438 354.043945312 c 128,-1,4
 74 406.087890625 74 406.087890625 74 502.541992188 c 128,-1,5
 74 598.99609375 74 598.99609375 132.068359375 650.498046875 c 128,-1,6
 190.13671875 702 190.13671875 702 279.681640625 702 c 128,-1,7
 369.225585938 702 369.225585938 702 422.672851562 648.500976562 c 128,-1,8
 476 595.123046875 476 595.123046875 476 503.694335938 c 0,9,10
 476 438.240234375 476 438.240234375 449.9453125 391.446289062 c 1,11,12
 449.9453125 391.446289062 449.9453125 391.446289062 232.98828125 0 c 5,13,14
 232.98828125 0 232.98828125 0 179.754882812 0 c 5,15,-1
 365.936523438 319.463867188 l 1,0,1
117 502.483398438 m 128,-1,17
 117 428.345703125 117 428.345703125 159.22265625 385.58203125 c 0,18,19
 202.291015625 343 202.291015625 343 275.551757812 343 c 128,-1,20
 348.811523438 343 348.811523438 343 391.349609375 385.657226562 c 0,21,22
 433 428.314453125 433 428.314453125 433 501.060546875 c 128,-1,23
 433 573.986328125 433 573.986328125 391.9375 618.493164062 c 128,-1,24
 350.875 663 350.875 663 278.256835938 663 c 128,-1,25
 205.638671875 663 205.638671875 663 160.645507812 619.854492188 c 0,26,16
 117 576.622070312 117 576.622070312 117 502.483398438 c 128,-1,17
EndSplineSet
EndChar

StartChar: colon
Encoding: 58 58 29
Width: 550
GlyphClass: 2
Flags: W
HStem: -10 77<239.5 310.5> 310 77<239.5 310.5>
VStem: 239.5 71<-10 67 310 387>
LayerCount: 2
Fore
SplineSet
239.5 310 m 1,0,-1
 239.5 387 l 1,1,-1
 310.5 387 l 1,2,-1
 310.5 310 l 1,3,-1
 239.5 310 l 1,0,-1
239.5 -10 m 1,4,-1
 239.5 67 l 1,5,-1
 310.5 67 l 1,6,-1
 310.5 -10 l 1,7,-1
 239.5 -10 l 1,4,-1
EndSplineSet
EndChar

StartChar: semicolon
Encoding: 59 59 30
Width: 550
GlyphClass: 2
Flags: W
HStem: 315 67<246.874 307.874>
VStem: 246.874 73<-4.8584 58> 246.874 61<315 382>
LayerCount: 2
Fore
SplineSet
230.125976562 -112 m 1,0,-1
 255.125976562 -10 l 1,1,-1
 246.874023438 -10 l 1,2,-1
 246.874023438 58 l 1,3,-1
 319.874023438 58 l 1,4,-1
 319.874023438 -4.8583984375 l 1,5,-1
 278.749023438 -112 l 1,6,-1
 230.125976562 -112 l 1,0,-1
246.874023438 315 m 1,7,-1
 246.874023438 382 l 1,8,-1
 307.874023438 382 l 1,9,-1
 307.874023438 315 l 1,10,-1
 246.874023438 315 l 1,7,-1
EndSplineSet
EndChar

StartChar: less
Encoding: 60 60 31
Width: 550
GlyphClass: 2
Flags: W
LayerCount: 2
Fore
SplineSet
482.5 423.40234375 m 5,0,-1
 129.104492188 272.083984375 l 1,1,-1
 484.5 122.64453125 l 1,2,-1
 484.5 72.7626953125 l 1,3,-1
 65.5 254.434570312 l 1,4,-1
 65.5 291.58203125 l 1,5,-1
 482.5 471.197265625 l 5,6,-1
 482.5 423.40234375 l 5,0,-1
EndSplineSet
EndChar

StartChar: equal
Encoding: 61 61 32
Width: 550
GlyphClass: 2
Flags: W
HStem: 152 44<65.5 484.5> 321 43<65.5 484.5>
LayerCount: 2
Fore
SplineSet
65.5 364 m 1,0,-1
 484.5 364 l 1,1,-1
 484.5 321 l 1,2,-1
 65.5 321 l 1,3,-1
 65.5 364 l 1,0,-1
65.5 196 m 1,4,-1
 484.5 196 l 1,5,-1
 484.5 152 l 1,6,-1
 65.5 152 l 1,7,-1
 65.5 196 l 1,4,-1
EndSplineSet
EndChar

StartChar: greater
Encoding: 62 62 33
Width: 550
GlyphClass: 2
Flags: W
LayerCount: 2
Fore
SplineSet
67.5 471.197265625 m 1,0,-1
 484.5 291.58203125 l 1,1,-1
 484.5 254.434570312 l 1,2,-1
 65.5 72.7626953125 l 1,3,-1
 65.5 122.64453125 l 1,4,-1
 420.895507812 272.083984375 l 1,5,-1
 67.5 423.40234375 l 1,6,-1
 67.5 471.197265625 l 1,0,-1
EndSplineSet
EndChar

StartChar: question
Encoding: 63 63 34
Width: 550
GlyphClass: 2
Flags: W
HStem: -10 63<252.607 310.607> 670 42<206.977 362.232>
VStem: 252.607 58<-10 53> 256.607 45<139 289.344> 422.607 44<461.409 606.571>
LayerCount: 2
Fore
SplineSet
282.607421875 712 m 0,0,1
 363.685546875 712 363.685546875 712 415.102539062 661.643554688 c 128,-1,2
 466.607421875 611.200195312 466.607421875 611.200195312 466.607421875 534 c 0,3,4
 466.607421875 497.896484375 466.607421875 497.896484375 451.431640625 463.358398438 c 128,-1,5
 436.255859375 428.821289062 436.255859375 428.821289062 422.754882812 411.685546875 c 128,-1,6
 409.25390625 394.548828125 409.25390625 394.548828125 382.239257812 364.534179688 c 128,-1,7
 355.223632812 334.518554688 355.223632812 334.518554688 342.65625 319.05078125 c 128,-1,8
 330.088867188 303.583007812 330.088867188 303.583007812 316.809570312 276.55078125 c 128,-1,9
 303.53125 249.51953125 303.53125 249.51953125 301.607421875 222.643554688 c 1,10,-1
 301.607421875 139 l 1,11,-1
 256.607421875 139 l 1,12,-1
 256.607421875 225 l 2,13,14
 256.607421875 268.822265625 256.607421875 268.822265625 280.620117188 307.973632812 c 128,-1,15
 304.6328125 347.125 304.6328125 347.125 346.322265625 390.84765625 c 0,16,17
 422.607421875 471.9609375 422.607421875 471.9609375 422.607421875 529 c 0,18,19
 422.607421875 582.501953125 422.607421875 582.501953125 387.701171875 626.250976562 c 128,-1,20
 352.794921875 670 352.794921875 670 278.607421875 670 c 0,21,22
 220.811523438 670 220.811523438 670 178.928710938 627.17578125 c 128,-1,23
 137.045898438 584.3515625 137.045898438 584.3515625 130.505859375 538.575195312 c 2,24,-1
 129.012695312 528.119140625 l 1,25,-1
 83.392578125 537.243164062 l 1,26,-1
 85.8974609375 547.3984375 l 2,27,28
 104.694335938 623.633789062 104.694335938 623.633789062 158.793945312 667.752929688 c 128,-1,29
 213.048828125 712 213.048828125 712 282.607421875 712 c 0,0,1
252.607421875 -10 m 1,30,-1
 252.607421875 53 l 1,31,-1
 310.607421875 53 l 1,32,-1
 310.607421875 -10 l 1,33,-1
 252.607421875 -10 l 1,30,-1
EndSplineSet
EndChar

StartChar: at
Encoding: 64 64 35
Width: 550
GlyphClass: 2
Flags: W
HStem: -0.0996094 51.5996<278.856 428.99> 477.5 51.5996<278.302 429.123> 641 51<138.823 414.254>
VStem: 21 51<82.6255 568.902> 172.465 52.7998<107.729 421.989> 477.261 51.7385<0.136719 42.9528 134.588 397.021>
LayerCount: 2
Fore
SplineSet
529 482 m 6,0,-1
 529 0 l 5,1,2
 479 -0 479 -0 477.020507812 0.13671875 c 6,3,-1
 477.097243954 42.9527740697 l 5,4,5
 467.309103094 34.5905545721 467.309103094 34.5905545721 456.065429688 27.55078125 c 4,6,7
 412.46484375 -0.099609375 412.46484375 -0.099609375 357.264648438 -0.099609375 c 4,8,9
 266.065429688 -0.099609375 266.065429688 -0.099609375 219.509765625 54.6796875 c 4,10,11
 172.46484375 109.099609375 172.46484375 109.099609375 172.46484375 191.900390625 c 6,12,-1
 172.46484375 340.700195312 l 6,13,14
 172.46484375 419.900390625 172.46484375 419.900390625 222.005859375 474.412109375 c 4,15,16
 272.065429688 529.099609375 272.065429688 529.099609375 357.264648438 529.099609375 c 4,17,18
 411.264648438 529.099609375 411.264648438 529.099609375 453.356445312 504.038085938 c 4,19,20
 466.157677647 496.157343501 466.157677647 496.157343501 477.129161581 486.920254297 c 5,21,22
 467.458345228 641 467.458345228 641 328 641 c 6,23,-1
 228 641 l 6,24,25
 77 641 77 641 72 474 c 5,26,-1
 72 176 l 6,27,28
 72 79 72 79 136.879882812 34.5 c 5,29,-1
 98.5361328125 -8.888671875 l 5,30,31
 21 63 21 63 21 160 c 6,32,-1
 21 482 l 6,33,34
 21 692 21 692 222 692 c 6,35,-1
 341 692 l 6,36,37
 529 692 529 692 529 482 c 6,0,-1
477.261475455 134.588148296 m 5,38,-1
 477.732497789 397.401966709 l 5,39,-1
 477.086914062 397.020507812 l 5,40,-1
 471.325195312 408.544921875 l 6,41,42
 455.665039062 439.099609375 455.665039062 439.099609375 425.834960938 458.369140625 c 4,43,44
 395.665039062 477.5 395.665039062 477.5 358.46484375 477.5 c 4,45,46
 292.46484375 477.5 292.46484375 477.5 259.1640625 439.2265625 c 4,47,48
 225.264648438 400.700195312 225.264648438 400.700195312 225.264648438 339.5 c 6,49,-1
 225.264648438 189.5 l 6,50,51
 225.264648438 129.5 225.264648438 129.5 259.189453125 90.3486328125 c 4,52,53
 293.665039062 51.5 293.665039062 51.5 358.46484375 51.5 c 4,54,55
 435.0859375 51.5 435.0859375 51.5 472.556640625 125.318359375 c 6,56,-1
 477.261475455 134.588148296 l 5,38,-1
EndSplineSet
EndChar

StartChar: A
Encoding: 65 65 36
Width: 550
GlyphClass: 2
Flags: W
HStem: 0 21G<-10.0859 69.6055 430.903 508.855 508.855 560.086> 175 35<115.374 432.545> 676 20G<119.096 301.721>
LayerCount: 2
Fore
SplineSet
39.10546875 0 m 1,0,1
 39.10546875 0 39.10546875 0 -10.0859375 0 c 1,2,3
 -10.0859375 0 -10.0859375 0 248.278320312 696 c 1,4,-1
 301.720703125 696 l 1,5,6
 301.720703125 696 301.720703125 696 560.0859375 0 c 5,7,8
 560.0859375 0 560.0859375 0 508.85546875 0 c 5,9,10
 508.85546875 0 508.85546875 0 448.85546875 175 c 1,11,-1
 100.10546875 175 l 1,12,13
 100.10546875 175 100.10546875 175 39.10546875 0 c 1,0,1
115.374023438 210 m 1,14,-1
 432.544921875 210 l 1,15,-1
 274.927734375 642.252929688 l 1,16,-1
 115.374023438 210 l 1,14,-1
EndSplineSet
EndChar

StartChar: B
Encoding: 66 66 37
Width: 550
GlyphClass: 2
Flags: W
HStem: 0 44<74 404.474> 341 44<74 389.17> 652 44<74 390.519>
VStem: 28 46<44 341 385 652> 460 46<445.68 591.578> 473 49<107.506 270.201>
LayerCount: 2
Fore
SplineSet
466.4296875 51.8046875 m 128,-1,1
 411.026367188 0 411.026367188 0 313.200195312 0 c 2,2,-1
 28 0 l 1,3,4
 28 348 28 348 28 696 c 1,5,-1
 282 696 l 2,6,7
 394.723632812 696 394.723632812 696 450.96875 646.106445312 c 0,8,9
 506 596.211914062 506 596.211914062 506 519.083984375 c 0,10,11
 506 469.612304688 506 469.612304688 474.4609375 421.071289062 c 0,12,13
 450.33984375 383.9453125 450.33984375 383.9453125 406.286132812 365.264648438 c 1,14,15
 457.516601562 347.770507812 457.516601562 347.770507812 485.956054688 304.099609375 c 0,16,17
 522 248.75 522 248.75 522 187.609375 c 0,18,0
 522 103.764648438 522 103.764648438 466.4296875 51.8046875 c 128,-1,1
74 652 m 1,19,-1
 74 385 l 1,20,-1
 275 385 l 2,21,22
 362.893554688 385 362.893554688 385 414.705078125 421.0078125 c 0,23,24
 460 457.015625 460 457.015625 460 518.081054688 c 128,-1,25
 460 579.147460938 460 579.147460938 416.14453125 615.573242188 c 0,26,27
 366.345703125 652 366.345703125 652 275 652 c 2,28,-1
 74 652 l 1,19,-1
74 341 m 1,29,-1
 74 44 l 1,30,-1
 291.599609375 44 l 2,31,32
 387.51171875 44 387.51171875 44 431.51171875 83.326171875 c 0,33,34
 473 122.560546875 473 122.560546875 473 188.25390625 c 128,-1,35
 473 253.947265625 473 253.947265625 430.3515625 297.473632812 c 0,36,37
 384.84375 341 384.84375 341 289.200195312 341 c 2,38,-1
 74 341 l 1,29,-1
EndSplineSet
EndChar

StartChar: C
Encoding: 67 67 38
Width: 550
GlyphClass: 2
Flags: W
HStem: -7 43<165.034 386.136> 658 43<164.588 384.417>
VStem: 24.4639 46<122.541 569.938>
LayerCount: 2
Fore
SplineSet
86.8642578125 54.23046875 m 0,0,1
 24.4638671875 115.426757812 24.4638671875 115.426757812 24.4638671875 226.40625 c 2,2,3
 24.4638671875 350.310546875 24.4638671875 350.310546875 24.4638671875 474.401367188 c 2,4,5
 24.4638671875 579.6640625 24.4638671875 579.6640625 89.0126953125 640.3984375 c 0,6,7
 154.1640625 701 154.1640625 701 282 701 c 0,8,9
 364.103515625 701 364.103515625 701 423.66796875 666.5390625 c 0,10,11
 480.194335938 631.995117188 480.194335938 631.995117188 508.477539062 573.333984375 c 2,12,13
 508.477539062 573.333984375 508.477539062 573.333984375 512.381835938 565.236328125 c 4,14,15
 512.381835938 565.236328125 512.381835938 565.236328125 474.106445312 541.541992188 c 5,16,17
 474.106445312 541.541992188 474.106445312 541.541992188 469.374023438 551.829101562 c 2,18,19
 447.614257812 599.133789062 447.614257812 599.133789062 400.762695312 628.54296875 c 0,20,21
 350.337890625 658 350.337890625 658 283.083007812 658 c 0,22,23
 175.90234375 658 175.90234375 658 121.899414062 609.846679688 c 0,24,25
 70.4638671875 561.842773438 70.4638671875 561.842773438 70.4638671875 471.981445312 c 2,26,27
 70.4638671875 347 70.4638671875 347 70.4638671875 222.018554688 c 2,28,29
 70.4638671875 132.130859375 70.4638671875 132.130859375 121.432617188 84.1220703125 c 0,30,31
 174.848632812 36 174.848632812 36 286.33203125 36 c 0,32,33
 354.54296875 36 354.54296875 36 406.548828125 67.9072265625 c 0,34,35
 454.6484375 99.8154296875 454.6484375 99.8154296875 481.453125 155.337890625 c 2,36,37
 481.453125 155.337890625 481.453125 155.337890625 485.545898438 163.817382812 c 0,38,39
 485.545898438 163.817382812 485.545898438 163.817382812 525.536132812 147.458007812 c 1,40,41
 525.536132812 147.458007812 525.536132812 147.458007812 521.711914062 138.19140625 c 2,42,43
 494.53125 72.3310546875 494.53125 72.3310546875 433.93359375 32.62890625 c 0,44,45
 370.78515625 -7 370.78515625 -7 286.33203125 -7 c 0,46,47
 149.701171875 -7 149.701171875 -7 86.8642578125 54.23046875 c 0,0,1
EndSplineSet
EndChar

StartChar: D
Encoding: 68 68 39
Width: 550
GlyphClass: 2
Flags: W
HStem: 0 44<75 366.828> 652 44<75 367.718>
VStem: 28 47<44 652> 476 46<149.783 548.153>
LayerCount: 2
Fore
SplineSet
28 0 m 1,0,1
 28 0 28 0 28 696 c 1,2,-1
 250 696 l 2,3,4
 436.36328125 696 436.36328125 696 497.053710938 569.873046875 c 0,5,6
 522 518.342773438 522 518.342773438 522 353.943359375 c 128,-1,7
 522 189.54296875 522 189.54296875 498.215820312 134.256835938 c 0,8,9
 466.844726562 62.0859375 466.844726562 62.0859375 407.686523438 31.04296875 c 0,10,11
 340.426757812 0 340.426757812 0 238 0 c 2,12,-1
 28 0 l 1,0,1
433.653320312 113.801757812 m 0,13,14
 476 170.310546875 476 170.310546875 476 273.452148438 c 2,15,16
 476 345.188476562 476 345.188476562 476 416.739257812 c 2,17,18
 476 545.41796875 476 545.41796875 421.868164062 598.744140625 c 0,19,20
 362.62890625 652 362.62890625 652 242 652 c 2,21,-1
 75 652 l 1,22,23
 75 652 75 652 75 44 c 1,24,-1
 242 44 l 2,25,26
 378.217773438 44 378.217773438 44 433.653320312 113.801757812 c 0,13,14
EndSplineSet
EndChar

StartChar: E
Encoding: 69 69 40
Width: 550
GlyphClass: 2
Flags: W
HStem: 0 44<89.5 507.5> 344 44<89.5 443.5> 652 44<89.5 479.5>
VStem: 42.5 47<44 344 388 652>
LayerCount: 2
Fore
SplineSet
507.5 0 m 5,0,-1
 42.5 0 l 1,1,2
 42.5 0 42.5 0 42.5 696 c 1,3,-1
 479.5 696 l 1,4,5
 479.5 696 479.5 696 479.5 652 c 1,6,-1
 89.5 652 l 1,7,-1
 89.5 388 l 1,8,-1
 443.5 388 l 1,9,-1
 443.5 344 l 1,10,-1
 89.5 344 l 1,11,-1
 89.5 44 l 1,12,-1
 507.5 44 l 5,13,14
 507.5 44 507.5 44 507.5 0 c 5,0,-1
EndSplineSet
EndChar

StartChar: F
Encoding: 70 70 41
Width: 550
GlyphClass: 2
Flags: W
HStem: 0 21G<52.5 99.5> 332 43<99.5 451.5> 652 44<99.5 497.5>
VStem: 52.5 47<0 332 375 652>
LayerCount: 2
Fore
SplineSet
451.5 332 m 1,0,-1
 99.5 332 l 1,1,-1
 99.5 0 l 1,2,-1
 52.5 0 l 1,3,4
 52.5 0 52.5 0 52.5 696 c 1,5,-1
 497.5 696 l 5,6,7
 497.5 696 497.5 696 497.5 652 c 5,8,-1
 99.5 652 l 1,9,-1
 99.5 375 l 1,10,-1
 451.5 375 l 1,11,-1
 451.5 332 l 1,0,-1
EndSplineSet
EndChar

StartChar: G
Encoding: 71 71 42
Width: 550
GlyphClass: 2
Flags: W
HStem: -7 32<174.675 372.813> 308 44<315.992 486> 658 43<157.996 375.697>
VStem: 18 46<117.939 569.631> 486 46<118.312 308>
LayerCount: 2
Fore
SplineSet
82.548828125 640.3984375 m 0,0,1
 147.662109375 701 147.662109375 701 275 701 c 0,2,3
 356.783203125 701 356.783203125 701 417.204101562 666.5390625 c 0,4,5
 473.73046875 631.995117188 473.73046875 631.995117188 502.013671875 573.333984375 c 2,6,7
 502.013671875 573.333984375 502.013671875 573.333984375 505.580078125 565.936523438 c 0,8,9
 505.580078125 565.936523438 505.580078125 565.936523438 466.805664062 541.186523438 c 1,10,11
 466.805664062 541.186523438 466.805664062 541.186523438 461.91015625 551.829101562 c 2,12,13
 440.150390625 599.133789062 440.150390625 599.133789062 392.220703125 628.54296875 c 0,14,15
 341.9921875 658 341.9921875 658 276.079101562 658 c 0,16,17
 169.31640625 658 169.31640625 658 115.435546875 609.678710938 c 0,18,19
 64 561.5078125 64 561.5078125 64 471.333007812 c 2,20,-1
 64 218 l 2,21,22
 64 126.220703125 64 126.220703125 115.970703125 75.6669921875 c 0,23,24
 170.42578125 25 170.42578125 25 276.079101562 25 c 0,25,26
 374.348632812 25 374.348632812 25 431.548828125 75.1904296875 c 0,27,28
 486 125.379882812 486 125.379882812 486 209 c 2,29,-1
 486 308 l 1,30,-1
 315.9921875 308 l 1,31,-1
 315.9921875 352 l 1,32,-1
 532 352 l 1,33,-1
 532 225.5234375 l 2,34,35
 532 117.280273438 532 117.280273438 465.424804688 55.0595703125 c 0,36,37
 398.000976562 -7 398.000976562 -7 275 -7 c 0,38,39
 144.295898438 -7 144.295898438 -7 80.900390625 54.716796875 c 0,40,41
 18 116.399414062 18 116.399414062 18 226.40625 c 2,42,43
 18 350.310546875 18 350.310546875 18 474.401367188 c 2,44,45
 18 579.6640625 18 579.6640625 82.548828125 640.3984375 c 0,0,1
EndSplineSet
EndChar

StartChar: H
Encoding: 72 72 43
Width: 550
GlyphClass: 2
Flags: W
HStem: 0 21G<25.5 71.5 478.5 524.5> 344 44<71.5 478.5> 676 20G<25.5 71.5 478.5 524.5>
VStem: 25.5 46<0 344 388 696> 478.5 46<0 344 388 696>
LayerCount: 2
Fore
SplineSet
71.5 388 m 1,0,-1
 478.5 388 l 1,1,-1
 478.5 696 l 1,2,-1
 524.5 696 l 1,3,4
 524.5 696 524.5 696 524.5 0 c 5,5,-1
 478.5 0 l 5,6,-1
 478.5 344 l 1,7,-1
 71.5 344 l 1,8,-1
 71.5 0 l 1,9,-1
 25.5 0 l 1,10,11
 25.5 0 25.5 0 25.5 696 c 1,12,-1
 71.5 696 l 1,13,-1
 71.5 388 l 1,0,-1
EndSplineSet
EndChar

StartChar: I
Encoding: 73 73 44
Width: 550
GlyphClass: 2
Flags: W
HStem: 0 33<212 252 298 338> 663 33<212 252 298 338>
VStem: 212 126<0 33 663 696>
LayerCount: 2
Fore
SplineSet
212 663 m 1,0,1
 212 663 212 663 212 696 c 1,2,-1
 338 696 l 1,3,4
 338 696 338 696 338 663 c 1,5,-1
 298 663 l 1,6,7
 298 663 298 663 298 33 c 1,8,-1
 338 33 l 1,9,10
 338 33 338 33 338 0 c 1,11,-1
 212 0 l 1,12,13
 212 0 212 0 212 33 c 1,14,-1
 252 33 l 1,15,16
 252 33 252 33 252 663 c 1,17,-1
 212 663 l 1,0,1
EndSplineSet
EndChar

StartChar: J
Encoding: 74 74 45
Width: 550
GlyphClass: 2
Flags: W
HStem: -6 45<153.77 355.063> 651 45<86 423>
VStem: 423 46<105.753 651>
LayerCount: 2
Fore
SplineSet
86 651 m 1,0,1
 86 652 86 652 86 696 c 1,2,-1
 469 696 l 1,3,4
 469 696 469 696 469 175 c 0,5,6
 469 -6 469 -6 247 -6 c 0,7,8
 150 -6 150 -6 89 47 c 2,9,10
 89 47 89 47 81 54 c 0,11,12
 81 54 81 54 109 89 c 1,13,14
 109 89 109 89 117 83 c 2,15,16
 176 39 176 39 251 39 c 0,17,18
 423 39 423 39 423 194 c 0,19,20
 423 194 423 194 423 651 c 1,21,-1
 86 651 l 1,0,1
EndSplineSet
EndChar

StartChar: K
Encoding: 75 75 46
Width: 550
GlyphClass: 2
Flags: W
HStem: 0 21G<20.9658 66.9658 401.396 472.11 472.11 529.034> 676 20G<20.9658 66.9658 252.517 497.356>
VStem: 20.9658 46<0 166.576 238.205 696>
LayerCount: 2
Fore
SplineSet
438.068359375 696 m 1,0,-1
 497.356445312 696 l 1,1,2
 497.356445312 696 497.356445312 696 273.758789062 404.848632812 c 1,3,4
 273.758789062 404.848632812 273.758789062 404.848632812 529.034179688 0 c 1,5,6
 529.034179688 0 529.034179688 0 472.110351562 0 c 1,7,8
 472.110351562 0 472.110351562 0 234.48828125 365.481445312 c 1,9,10
 234.48828125 365.481445312 234.48828125 365.481445312 66.9658203125 166.576171875 c 1,11,12
 66.9658203125 166.576171875 66.9658203125 166.576171875 66.9658203125 0 c 1,13,-1
 20.9658203125 0 l 1,14,15
 20.9658203125 0 20.9658203125 0 20.9658203125 696 c 1,16,-1
 66.9658203125 696 l 1,17,18
 66.9658203125 696 66.9658203125 696 66.9658203125 238.205078125 c 1,19,20
 66.9658203125 238.205078125 66.9658203125 238.205078125 438.068359375 696 c 1,0,-1
EndSplineSet
EndChar

StartChar: L
Encoding: 76 76 47
Width: 550
GlyphClass: 2
Flags: W
HStem: 0 44<109.5 486.5> 676 20G<63.5 109.5>
VStem: 63.5 46<44 696>
LayerCount: 2
Fore
SplineSet
486.5 0 m 1,0,-1
 63.5 0 l 1,1,2
 63.5 0 63.5 0 63.5 696 c 1,3,-1
 109.5 696 l 1,4,5
 109.5 696 109.5 696 109.5 44 c 1,6,-1
 486.5 44 l 1,7,8
 486.5 44 486.5 44 486.5 0 c 1,0,-1
EndSplineSet
EndChar

StartChar: M
Encoding: 77 77 48
Width: 550
GlyphClass: 2
Flags: W
HStem: 0 21G<41 86 464 509> 676 20G<41 86 370 509>
VStem: 41 45<0 577> 464 45<0 576>
LayerCount: 2
Fore
SplineSet
86 577 m 1,0,1
 86 577 86 577 86 0 c 1,2,-1
 41 0 l 1,3,4
 41 0 41 0 41 696 c 5,5,-1
 86 696 l 5,6,7
 86 696 86 696 276 274 c 1,8,9
 276 274 276 274 464 696 c 1,10,11
 464 696 464 696 509 696 c 1,12,13
 509 696 509 696 509 0 c 1,14,-1
 464 0 l 1,15,16
 464 0 464 0 464 576 c 1,17,18
 464 576 464 576 294 208 c 1,19,20
 294 208 294 208 257 208 c 1,21,22
 257 208 257 208 86 577 c 1,0,1
EndSplineSet
EndChar

StartChar: N
Encoding: 78 78 49
Width: 550
GlyphClass: 2
Flags: W
HStem: 0 21G<47.5 93.5 457.594 502.5> 676 20G<47.5 105.411 456.5 502.5>
VStem: 47.5 46<0 624.147> 456.5 46<90.9043 696>
LayerCount: 2
Fore
SplineSet
456.5 90.904296875 m 1,0,1
 456.5 90.904296875 456.5 90.904296875 456.5 696 c 1,2,3
 456.5 696 456.5 696 502.5 696 c 1,4,5
 502.5 696 502.5 696 502.5 0 c 1,6,7
 502.5 0 502.5 0 457.59375 0 c 1,8,9
 457.59375 0 457.59375 0 93.5 624.147460938 c 1,10,11
 93.5 624.147460938 93.5 624.147460938 93.5 0 c 1,12,-1
 47.5 0 l 1,13,14
 47.5 0 47.5 0 47.5 696 c 1,15,16
 47.5 696 47.5 696 105.411132812 696 c 1,17,18
 105.411132812 696 105.411132812 696 456.5 90.904296875 c 1,0,1
EndSplineSet
EndChar

StartChar: O
Encoding: 79 79 50
Width: 550
GlyphClass: 2
Flags: W
HStem: -7 44<162.892 389.861> 656 45<161.771 389.39>
VStem: 20 47<125.81 565.927> 483 47<127.409 566.346>
LayerCount: 2
Fore
SplineSet
84.548828125 640.3984375 m 0,0,1
 149.673828125 701 149.673828125 701 277.16015625 701 c 0,2,3
 397.981445312 701 397.981445312 701 464.436523438 642.848632812 c 0,4,5
 530 584.697265625 530 584.697265625 530 474.401367188 c 2,6,7
 530 350.310546875 530 350.310546875 530 226.40625 c 2,8,9
 530 110.30078125 530 110.30078125 464.448242188 51.650390625 c 0,10,11
 398.008789062 -7 398.008789062 -7 277.16015625 -7 c 0,12,13
 146.302734375 -7 146.302734375 -7 82.900390625 54.716796875 c 0,14,15
 20 116.399414062 20 116.399414062 20 226.40625 c 2,16,17
 20 350.310546875 20 350.310546875 20 474.401367188 c 2,18,19
 20 579.6640625 20 579.6640625 84.548828125 640.3984375 c 0,0,1
431.01171875 606.84765625 m 0,20,21
 377 656 377 656 278.240234375 656 c 0,22,23
 171 656 171 656 118.98828125 606.84765625 c 0,24,25
 67 558 67 558 67 466 c 2,26,27
 67 327 67 327 67 208 c 2,28,29
 67 136 67 136 118.970703125 87.6669921875 c 0,30,31
 174 37 174 37 278.240234375 37 c 0,32,33
 379 37 379 37 431.063476562 87.2001953125 c 0,34,35
 483 137 483 137 483 214 c 2,36,37
 483 330 483 330 483 466 c 2,38,39
 483 560 483 560 431.01171875 606.84765625 c 0,20,21
EndSplineSet
EndChar

StartChar: P
Encoding: 80 80 51
Width: 550
GlyphClass: 2
Flags: W
HStem: 0 21G<43 90> 297 45<90 383.862> 652 44<90 379.424>
VStem: 43 47<0 297 342 652> 458 49<413.962 581.504>
LayerCount: 2
Fore
SplineSet
43 0 m 1,0,1
 43 0 43 0 43 696 c 1,2,-1
 268 696 l 2,3,4
 381.653320312 696 381.653320312 696 444.775390625 646.614257812 c 0,5,6
 507 597.229492188 507 597.229492188 507 493.0859375 c 0,7,8
 507 416.215820312 507 416.215820312 452.74609375 356.608398438 c 128,-1,9
 398.491210938 297 398.491210938 297 277.616210938 297 c 2,10,-1
 90 297 l 1,11,-1
 90 0 l 1,12,13
 90 0 90 0 43 0 c 1,0,1
90 652 m 1,14,-1
 90 342 l 1,15,-1
 271.606445312 342 l 2,16,17
 373.190429688 342 373.190429688 342 416.755859375 386.94921875 c 0,18,19
 458 431.899414062 458 431.899414062 458 496.03125 c 0,20,21
 458 572.002929688 458 572.002929688 410.142578125 612.001953125 c 0,22,23
 357.291992188 652 357.291992188 652 267 652 c 2,24,-1
 90 652 l 1,14,-1
EndSplineSet
EndChar

StartChar: Q
Encoding: 81 81 52
Width: 550
GlyphClass: 2
Flags: W
HStem: -7 44<159.082 386.529> 656 45<156.636 385.66>
VStem: 16.2656 47<125.61 226.406 466 566.095> 479.266 47<126.098 226.406 466 566.497>
LayerCount: 2
Fore
SplineSet
351.291992188 134.442382812 m 4,0,-1
 413.265625 76.5703125 l 1,1,2
 414.174804688 75.720703125 414.174804688 75.720703125 414.174804688 75.720703125 c 1,3,4
 364.265625 37 364.265625 37 274.505859375 37 c 0,5,6
 170.265625 37 170.265625 37 115.236328125 87.6669921875 c 0,7,8
 63.265625 136 63.265625 136 63.265625 208 c 0,9,10
 63.265625 327 63.265625 327 63.265625 466 c 0,11,12
 63.265625 558 63.265625 558 115.25390625 606.84765625 c 0,13,14
 167.265625 656 167.265625 656 274.505859375 656 c 0,15,16
 373.265625 656 373.265625 656 427.27734375 606.84765625 c 0,17,18
 479.265625 560 479.265625 560 479.265625 466 c 0,19,20
 479.265625 330 479.265625 330 479.265625 214 c 0,21,22
 479.265625 153 479.265625 153 446.618164062 109 c 1,23,24
 382.618164062 168.877929688 382.618164062 168.877929688 382.618164062 168.877929688 c 129,-1,25
 382.618164062 168.877929688 382.618164062 168.877929688 351.291992188 134.442382812 c 4,0,-1
449.459960938 42.7705078125 m 1025,26,-1
482.265625 75.82421875 m 1,27,28
 526.265625 133 526.265625 133 526.265625 226.40625 c 0,29,30
 526.265625 350 526.265625 350 526.265625 474.401367188 c 0,31,32
 526.265625 585 526.265625 585 460.702148438 642.848632812 c 0,33,34
 394.265625 701 394.265625 701 273.42578125 701 c 0,35,36
 146.265625 701 146.265625 701 80.814453125 640.3984375 c 0,37,38
 16.265625 580 16.265625 580 16.265625 474.401367188 c 0,39,40
 16.265625 350 16.265625 350 16.265625 226.40625 c 0,41,42
 16.265625 116 16.265625 116 79.166015625 54.716796875 c 0,43,44
 142.265625 -7 142.265625 -7 273.42578125 -7 c 0,45,46
 384.265625 -7 384.265625 -7 449.459960938 42.7705078125 c 1,47,48
 502.412109375 -6.6767578125 502.412109375 -6.6767578125 502.412109375 -6.6767578125 c 1,49,50
 533.734375 27.7607421875 533.734375 27.7607421875 533.734375 27.7607421875 c 1,51,52
 482.265625 75.82421875 482.265625 75.82421875 482.265625 75.82421875 c 1,27,28
483.026367188 75.7099609375 m 1025,53,-1
EndSplineSet
EndChar

StartChar: R
Encoding: 82 82 53
Width: 550
GlyphClass: 2
Flags: W
HStem: 0 21G<41.5 87.5 414.801 505.812> 321 45<87.5 266.36> 652 44<87.5 388.139>
VStem: 41.5 46<0 321 366 652> 460.5 48<433.779 591.932>
LayerCount: 2
Fore
SplineSet
505.8125 0 m 1,0,1
 505.8125 0 505.8125 0 454.360351562 0 c 1,2,-1
 266.360351562 321 l 1,3,-1
 87.5 321 l 1,4,-1
 87.5 0 l 1,5,6
 87.5 0 87.5 0 41.5 0 c 1,7,8
 41.5 0 41.5 0 41.5 696 c 1,9,-1
 281.5 696 l 2,10,11
 394.1796875 696 394.1796875 696 451.33984375 648.66796875 c 128,-1,12
 508.5 601.3359375 508.5 601.3359375 508.5 516.16796875 c 0,13,14
 508.5 437.520507812 508.5 437.520507812 457.848632812 384.180664062 c 0,15,16
 411.6328125 335.512695312 411.6328125 335.512695312 323.7890625 324.497070312 c 1,17,18
 323.7890625 324.497070312 323.7890625 324.497070312 505.8125 0 c 1,0,1
87.5 652 m 1,19,-1
 87.5 366 l 1,20,-1
 269.5 366 l 2,21,22
 360.609375 366 360.609375 366 413.161132812 404.946289062 c 0,23,24
 460.5 443.893554688 460.5 443.893554688 460.5 514.073242188 c 128,-1,25
 460.5 584.252929688 460.5 584.252929688 411.885742188 618.125976562 c 0,26,27
 357.47265625 652 357.47265625 652 272.5 652 c 2,28,-1
 87.5 652 l 1,19,-1
EndSplineSet
EndChar

StartChar: S
Encoding: 83 83 54
Width: 550
GlyphClass: 2
Flags: W
HStem: -6 42.791<137.937 397.09> 658 44<182.351 418.693>
VStem: 60.5107 46.999<450.239 593.365> 482.51 47<106.4 257.855>
LayerCount: 2
Fore
SplineSet
463.748046875 44.5595703125 m 0,0,1
 397.0625 -6 397.0625 -6 273.390625 -6 c 0,2,3
 131.546875 -6 131.546875 -6 29.0712890625 58.779296875 c 2,4,5
 29.0712890625 58.779296875 29.0712890625 58.779296875 20.490234375 64.2041015625 c 1,6,7
 20.490234375 64.2041015625 20.490234375 64.2041015625 46.7060546875 101.59765625 c 1,8,9
 46.7060546875 101.59765625 46.7060546875 101.59765625 54.869140625 96.5458984375 c 2,10,11
 152.299804688 36.791015625 152.299804688 36.791015625 275.55078125 36.791015625 c 0,12,13
 370.428710938 36.791015625 370.428710938 36.791015625 427.922851562 74.3193359375 c 0,14,15
 482.509765625 111.846679688 482.509765625 111.846679688 482.509765625 180.725585938 c 0,16,17
 482.509765625 214.553710938 482.509765625 214.553710938 469.87890625 240.94140625 c 128,-1,18
 457.248046875 267.330078125 457.248046875 267.330078125 440.646484375 282.578125 c 128,-1,19
 423.873046875 297.985351562 423.873046875 297.985351562 392.719726562 311.119140625 c 0,20,21
 360.4140625 324.252929688 360.4140625 324.252929688 338.282226562 329.9453125 c 128,-1,22
 316.150390625 335.637695312 316.150390625 335.637695312 277.795898438 342.932617188 c 128,-1,23
 239.440429688 350.2265625 239.440429688 350.2265625 214.594726562 356.688476562 c 128,-1,24
 189.748046875 363.150390625 189.748046875 363.150390625 155.583984375 376.763671875 c 0,25,26
 122.836914062 390.376953125 122.836914062 390.376953125 104.547851562 407.639648438 c 128,-1,27
 86.1533203125 425.002929688 86.1533203125 425.002929688 73.3671875 452.981445312 c 128,-1,28
 60.5107421875 481.114257812 60.5107421875 481.114257812 60.5107421875 518.192382812 c 0,29,30
 60.5107421875 601.3515625 60.5107421875 601.3515625 119.119140625 651.67578125 c 0,31,32
 180.720703125 702 180.720703125 702 293.256835938 702 c 128,-1,33
 405.793945312 702 405.793945312 702 492.302734375 654.77734375 c 2,34,35
 492.302734375 654.77734375 492.302734375 654.77734375 500.911132812 650.063476562 c 0,36,37
 500.911132812 650.063476562 500.911132812 650.063476562 486.268554688 622 c 4,38,39
 486.268554688 622 486.268554688 622 479.72265625 609.454101562 c 1,40,41
 479.72265625 609.454101562 479.72265625 609.454101562 470.841796875 614.15625 c 2,42,43
 386.298828125 658 386.298828125 658 290.67578125 658 c 0,44,45
 213.096679688 658 213.096679688 658 158.978515625 623.459960938 c 0,46,47
 107.509765625 588.918945312 107.509765625 588.918945312 107.509765625 515.297851562 c 0,48,49
 107.509765625 489.439453125 107.509765625 489.439453125 118.099609375 468.87890625 c 128,-1,50
 128.689453125 448.319335938 128.689453125 448.319335938 140.98046875 436.86328125 c 0,51,52
 154.071289062 425.53515625 154.071289062 425.53515625 185.783203125 413.857421875 c 128,-1,53
 217.493164062 402.178710938 217.493164062 402.178710938 234.362304688 397.916015625 c 128,-1,54
 251.231445312 393.65234375 251.231445312 393.65234375 295.091796875 384.40625 c 128,-1,55
 338.952148438 375.16015625 338.952148438 375.16015625 366.517578125 367.234375 c 128,-1,56
 394.081054688 359.30859375 394.081054688 359.30859375 429.368164062 343.240234375 c 0,57,58
 463.5078125 327.170898438 463.5078125 327.170898438 482.770507812 307.43359375 c 128,-1,59
 502.071289062 287.65625 502.071289062 287.65625 515.779296875 254.899414062 c 128,-1,60
 529.509765625 222.087890625 529.509765625 222.087890625 529.509765625 180.385742188 c 0,61,62
 529.509765625 95.1201171875 529.509765625 95.1201171875 463.748046875 44.5595703125 c 0,0,1
EndSplineSet
EndChar

StartChar: T
Encoding: 84 84 55
Width: 550
GlyphClass: 2
Flags: W
HStem: 0 21G<252.189 301.069> 652 44<29 252.189 301.069 521>
VStem: 252.189 48.8799<0 652>
LayerCount: 2
Fore
SplineSet
252.189453125 0 m 5,0,1
 252.189453125 0 252.189453125 0 252.189453125 652 c 1,2,-1
 29 652 l 1,3,4
 29 652 29 652 29 696 c 1,5,-1
 521 696 l 1,6,7
 521 696 521 696 521 652 c 1,8,-1
 301.069335938 652 l 1,9,10
 301.069335938 652 301.069335938 652 301.069335938 0 c 5,11,-1
 252.189453125 0 l 5,0,1
EndSplineSet
EndChar

StartChar: U
Encoding: 85 85 56
Width: 550
GlyphClass: 2
Flags: W
HStem: -7 44<168.947 381.697> 676 20G<31 77 472 519>
VStem: 31 46<131.993 696> 472 47<125.674 696>
LayerCount: 2
Fore
SplineSet
519 217.610351562 m 2,0,1
 519 114.359375 519 114.359375 455.509765625 53.6455078125 c 0,2,3
 391.484375 -7 391.484375 -7 275.530273438 -7 c 128,-1,4
 159.576171875 -7 159.576171875 -7 94.9599609375 54.6474609375 c 0,5,6
 31 116.487304688 31 116.487304688 31 227.333007812 c 2,7,8
 31 458.42578125 31 458.42578125 31 696 c 5,9,-1
 77 696 l 5,10,11
 77 464.934570312 77 464.934570312 77 239.84375 c 2,12,13
 77 143.5625 77 143.5625 125.74609375 90.28125 c 0,14,15
 176.551757812 37 176.551757812 37 274.04296875 37 c 128,-1,16
 371.53515625 37 371.53515625 37 422.796875 86.43359375 c 0,17,18
 472 136.024414062 472 136.024414062 472 229.16796875 c 2,19,20
 472 459.75390625 472 459.75390625 472 696 c 1,21,-1
 519 696 l 1,22,23
 519 453.698242188 519 453.698242188 519 217.610351562 c 2,0,1
EndSplineSet
EndChar

StartChar: V
Encoding: 86 86 57
Width: 550
GlyphClass: 2
Flags: W
HStem: 0 21G<251.952 302.559> 676 20G<19.3867 65.3525 65.3525 135.669 380.077 530.613>
LayerCount: 2
Fore
SplineSet
298.047851562 0 m 1,0,1
 298.047851562 0 298.047851562 0 251.952148438 0 c 1,2,3
 251.952148438 0 251.952148438 0 19.38671875 696 c 1,4,5
 19.38671875 696 19.38671875 696 65.3525390625 696 c 1,6,7
 65.3525390625 696 65.3525390625 696 275.516601562 55.9853515625 c 1,8,9
 275.516601562 55.9853515625 275.516601562 55.9853515625 484.63671875 696 c 1,10,-1
 530.61328125 696 l 1,11,12
 530.61328125 696 530.61328125 696 307.0703125 27 c 0,13,14
 307.0703125 27 307.0703125 27 298.047851562 0 c 1,0,1
EndSplineSet
EndChar

StartChar: W
Encoding: 87 87 58
Width: 550
GlyphClass: 2
Flags: W
HStem: 0 21G<86.5 202 422.5 505> 676 20G<3.5 48.5 467 546.5>
LayerCount: 2
Fore
SplineSet
501.5 696 m 1,0,-1
 546.5 696 l 1,1,2
 546.5 696 546.5 696 463.5 0 c 1,3,4
 463.5 0 463.5 0 422.5 0 c 1,5,6
 422.5 0 422.5 0 275.5 419 c 1,7,8
 275.5 419 275.5 419 128.5 0 c 1,9,10
 128.5 0 128.5 0 86.5 0 c 1,11,12
 86.5 0 86.5 0 3.5 696 c 1,13,-1
 48.5 696 l 1,14,15
 48.5 696 48.5 696 117.5 93 c 1,16,17
 117.5 93 117.5 93 254.5 481 c 1,18,19
 254.5 481 254.5 481 297.5 481 c 1,20,21
 297.5 481 297.5 481 431.5 96 c 1,22,23
 431.5 102 431.5 102 432.5 102 c 0,24,25
 432.5 102 432.5 102 501.5 696 c 1,0,-1
EndSplineSet
EndChar

StartChar: X
Encoding: 88 88 59
Width: 550
GlyphClass: 2
Flags: W
HStem: 0 21G<20.3887 173.844 416.14 477.312 477.312 529.611> 676 20G<35.5781 87.7461 87.7461 141.456 368.627 514.421>
LayerCount: 2
Fore
SplineSet
529.611328125 0 m 1,0,1
 529.611328125 0 529.611328125 0 477.311523438 0 c 1,2,3
 477.311523438 0 477.311523438 0 275.000976562 323.43359375 c 1,4,5
 275.000976562 323.43359375 275.000976562 323.43359375 72.6875 0 c 1,6,7
 72.6875 0 72.6875 0 20.388671875 0 c 1,8,9
 20.388671875 0 20.388671875 0 247.333007812 356.80078125 c 1,10,11
 247.333007812 356.80078125 247.333007812 356.80078125 35.578125 696 c 1,12,-1
 87.74609375 696 l 1,13,14
 87.74609375 696 87.74609375 696 275.000976562 391.860351562 c 1,15,16
 275.000976562 391.860351562 275.000976562 391.860351562 462.252929688 696 c 1,17,18
 462.252929688 696 462.252929688 696 514.420898438 696 c 1,19,20
 514.420898438 696 514.420898438 696 302.66796875 356.80078125 c 1,21,22
 302.66796875 356.80078125 302.66796875 356.80078125 529.611328125 0 c 1,0,1
EndSplineSet
EndChar

StartChar: Y
Encoding: 89 89 60
Width: 550
GlyphClass: 2
Flags: W
HStem: 0 21G<251.128 299.997> 676 20G<28.6758 78.1484 78.1484 139.902 374.476 521.324>
VStem: 251.128 48.8691<0 288.307>
LayerCount: 2
Fore
SplineSet
472.872070312 696 m 5,0,1
 472.872070312 696 472.872070312 696 521.32421875 696 c 5,2,3
 521.32421875 696 521.32421875 696 299.997070312 288.31640625 c 5,4,5
 299.997070312 288.31640625 299.997070312 288.31640625 299.997070312 0 c 5,6,-1
 251.127929688 0 l 5,7,8
 251.127929688 0 251.127929688 0 251.127929688 288.306640625 c 5,9,10
 251.127929688 288.306640625 251.127929688 288.306640625 28.67578125 696 c 5,11,-1
 78.1484375 696 l 5,12,13
 78.1484375 696 78.1484375 696 276.080078125 327.0859375 c 5,14,15
 276.080078125 327.0859375 276.080078125 327.0859375 472.872070312 696 c 5,0,1
EndSplineSet
EndChar

StartChar: Z
Encoding: 90 90 61
Width: 550
GlyphClass: 2
Flags: W
HStem: 0 44<103.61 503> 652 44<69 446.366>
LayerCount: 2
Fore
SplineSet
47 0 m 1,0,1
 47 0 47 0 47 36.923828125 c 1,2,3
 47 36.923828125 47 36.923828125 446.366210938 652 c 1,4,-1
 69 652 l 1,5,6
 69 652 69 652 69 696 c 1,7,-1
 502 696 l 1,8,9
 502 696 502 696 502 659.08203125 c 1,10,11
 502 659.08203125 502 659.08203125 103.610351562 44 c 1,12,-1
 503 44 l 1,13,14
 503 44 503 44 503 0 c 1,15,-1
 47 0 l 1,0,1
EndSplineSet
EndChar

StartChar: bracketleft
Encoding: 91 91 62
Width: 550
GlyphClass: 2
Flags: W
HStem: -131 43<213 384> 692 44<213 384>
VStem: 166 47<-88 692>
LayerCount: 2
Fore
SplineSet
166 -131 m 1,0,-1
 166 736 l 1,1,-1
 384 736 l 1,2,-1
 384 692 l 1,3,-1
 213 692 l 1,4,-1
 213 -88 l 1,5,-1
 384 -88 l 1,6,-1
 384 -131 l 1,7,-1
 166 -131 l 1,0,-1
EndSplineSet
EndChar

StartChar: backslash
Encoding: 92 92 63
Width: 550
GlyphClass: 2
Flags: W
LayerCount: 2
Fore
SplineSet
469.266601562 -27 m 1,0,-1
 32.6396484375 724 l 1,1,-1
 82.7880859375 724 l 1,2,-1
 517.360351562 -27 l 1,3,-1
 469.266601562 -27 l 1,0,-1
EndSplineSet
EndChar

StartChar: bracketright
Encoding: 93 93 64
Width: 550
GlyphClass: 2
Flags: W
HStem: -131 44<166 337> 693 43<166 337>
VStem: 337 47<-87 693>
LayerCount: 2
Fore
SplineSet
384 736 m 5,0,-1
 384 -131 l 5,1,-1
 166 -131 l 5,2,-1
 166 -87 l 5,3,-1
 337 -87 l 5,4,-1
 337 693 l 5,5,-1
 166 693 l 5,6,-1
 166 736 l 5,7,-1
 384 736 l 5,0,-1
EndSplineSet
EndChar

StartChar: asciicircum
Encoding: 94 94 65
Width: 550
GlyphClass: 2
Flags: W
HStem: 682 20G<248.777 303.223>
LayerCount: 2
Fore
SplineSet
408.423828125 327 m 1,0,-1
 275.116210938 638.368164062 l 1,1,-1
 143.673828125 325 l 1,2,-1
 93.77734375 325 l 1,3,-1
 257.4609375 702 l 1,4,-1
 294.603515625 702 l 1,5,-1
 456.22265625 327 l 1,6,-1
 408.423828125 327 l 1,0,-1
EndSplineSet
EndChar

StartChar: underscore
Encoding: 95 95 66
Width: 550
GlyphClass: 2
Flags: W
HStem: -106 46<20 530>
LayerCount: 2
Fore
SplineSet
20 -60 m 5,0,-1
 530 -60 l 5,1,-1
 530 -106 l 5,2,-1
 20 -106 l 5,3,-1
 20 -60 l 5,0,-1
EndSplineSet
EndChar

StartChar: grave
Encoding: 96 96 67
Width: 550
GlyphClass: 2
Flags: W
HStem: 566.113 176.043
VStem: 203.528 142.943
LayerCount: 2
Fore
SplineSet
314.727539062 566.11328125 m 1,0,-1
 203.528320312 716.625976562 l 5,1,-1
 254.58984375 742.15625 l 5,2,-1
 346.471679688 583.04296875 l 1,3,-1
 314.727539062 566.11328125 l 1,0,-1
EndSplineSet
EndChar

StartChar: a
Encoding: 97 97 68
Width: 550
GlyphClass: 2
Flags: W
HStem: -7 44<154.371 389.745> 0 21G<440 485> 236 44<146.639 440> 459 42<173.698 395.087>
VStem: 65 45<81.802 202.118> 440 45<0 43.9688 80.458 236 280 416.845>
LayerCount: 2
Fore
SplineSet
101.30078125 442.421875 m 17,0,1
 166 501 166 501 286.25 501 c 0,2,3
 382 501 382 501 433.533203125 467.490234375 c 128,-1,4
 485 434 485 434 485 347.141601562 c 2,5,6
 485 347.141601562 485 347.141601562 485 0 c 1,7,8
 485 0 485 0 440 0 c 1,9,10
 440 0 440 0 440 43.96875 c 1,11,12
 389 -7 389 -7 257 -7 c 0,13,14
 174 -7 174 -7 119.5 29 c 128,-1,15
 65 65 65 65 65 134 c 128,-1,16
 65 203 65 203 112 241.5 c 128,-1,17
 159 280 159 280 241.25 280 c 2,18,-1
 440 280 l 1,19,-1
 440 342.439453125 l 2,20,21
 440 401 440 401 407.03515625 429.930664062 c 128,-1,22
 374 459 374 459 279.885742188 459 c 0,23,24
 186 459 186 459 130.598632812 410.48828125 c 9,25,26
 130.598632812 410.48828125 130.598632812 410.48828125 101.30078125 442.421875 c 17,0,1
440 122.109375 m 2,27,-1
 440 236 l 1,28,-1
 246.875 236 l 2,29,30
 181 236 181 236 148.624023438 216.25390625 c 0,31,32
 110 192 110 192 110 137.881835938 c 0,33,34
 110 100 110 100 147.71875 63.701171875 c 0,35,36
 172 41 172 41 227.5 37 c 0,37,38
 293 32 293 32 343.352539062 42 c 0,39,40
 350.92578125 43.490234375 350.92578125 43.490234375 358 45.51171875 c 4,41,42
 388.89453125 54.3359375 388.89453125 54.3359375 410.270507812 73.2744140625 c 0,43,44
 440 99 440 99 440 122.109375 c 2,27,-1
EndSplineSet
EndChar

StartChar: b
Encoding: 98 98 69
Width: 550
GlyphClass: 2
Flags: W
HStem: -7 41<185.888 360.736> 0 21G<66 111> 460 40<188.592 359.865> 701 20G<66 111>
VStem: 66 45<0 73.3662 119.56 370.299 417.477 721> 437 47<117.828 377.359>
LayerCount: 2
Fore
SplineSet
111 417.4765625 m 1,0,1
 164 500 164 500 272.80859375 500 c 0,2,3
 395 500 395 500 445.010742188 421.446289062 c 0,4,5
 484 360 484 360 484 247.73046875 c 0,6,7
 484 135 484 135 437.435546875 65.279296875 c 0,8,9
 389 -7 389 -7 276.203125 -7 c 0,10,11
 164 -7 164 -7 111 73.3662109375 c 1,12,13
 111 47 111 47 111 0 c 1,14,-1
 66 0 l 1,15,16
 66 360 66 360 66 721 c 5,17,-1
 111 721 l 5,18,19
 111 559 111 559 111 417.4765625 c 1,0,1
405.884765625 396.186523438 m 0,20,21
 368 460 368 460 271.681640625 460 c 0,22,23
 186 460 186 460 149.051757812 402.516601562 c 0,24,25
 111 343 111 343 111 244.134765625 c 0,26,27
 111 215 111 215 114.403320312 189.123046875 c 0,28,29
 118 163 118 163 127.930664062 133.185546875 c 0,30,31
 138 103 138 103 153.413085938 82.3603515625 c 0,32,33
 169 61 169 61 197.927734375 47.7451171875 c 0,34,35
 229 34 229 34 271.681640625 34 c 0,36,37
 368 34 368 34 405.884765625 97.8134765625 c 0,38,39
 437 151 437 151 437 247 c 128,-1,40
 437 343 437 343 405.884765625 396.186523438 c 0,20,21
EndSplineSet
EndChar

StartChar: c
Encoding: 99 99 70
Width: 550
GlyphClass: 2
Flags: W
HStem: -7 40<216.897 434.053> 460 41<210.177 430.699>
VStem: 73.5 45<131.688 366.041>
LayerCount: 2
Fore
SplineSet
471.5 466 m 16,0,-1
 463.5 471 l 2,1,2
 415.5 501 415.5 501 313.5 501 c 0,3,4
 201.5 501 201.5 501 137.5 439 c 128,-1,5
 73.5 377 73.5 377 73.5 246 c 128,-1,6
 73.5 115 73.5 115 135.5 54 c 128,-1,7
 197.5 -7 197.5 -7 314.5 -7 c 0,8,9
 418.5 -7 418.5 -7 468.5 23 c 4,10,11
 468.5 23 468.5 23 476.5 28 c 12,12,13
 476.5 28 476.5 28 452.5 63 c 21,14,15
 452.5 63 452.5 63 443.5 57 c 4,16,17
 427.5 48 427.5 48 381.5 38 c 0,18,19
 361.5 34 361.5 34 317.5 33 c 0,20,21
 208.5 30 208.5 30 155.5 104 c 0,22,23
 118.5 157 118.5 157 118.5 247 c 0,24,25
 118.5 351 118.5 351 164.5 405 c 0,26,27
 210.5 460 210.5 460 316.5 460 c 0,28,29
 404.5 460 404.5 460 436.5 436 c 2,30,31
 436.5 436 436.5 436 444.5 430 c 1,32,33
 444.5 430 444.5 430 471.5 466 c 16,0,-1
EndSplineSet
EndChar

StartChar: d
Encoding: 100 100 71
Width: 550
GlyphClass: 2
Flags: W
HStem: -7 41<184.312 362.317> 0 21G<439 483> 459 41<188.736 362.104> 701 20G<439 483>
VStem: 67 46<111.133 376.486> 439 44<0 74.9385 125.293 369.221 419.774 721>
LayerCount: 2
Fore
SplineSet
483 0 m 1,0,-1
 439 0 l 1,1,2
 439 47.46875 439 47.46875 439 74.9384765625 c 1,3,4
 408.584960938 27.7421875 408.584960938 27.7421875 367.83984375 10.7646484375 c 0,5,6
 340.280273438 0.357421875 340.280273438 0.357421875 317.668945312 -3.333984375 c 128,-1,7
 295.219726562 -7 295.219726562 -7 267.102539062 -7 c 0,8,9
 151.588867188 -7 151.588867188 -7 104.026367188 74.43359375 c 0,10,11
 67 137.827148438 67 137.827148438 67 250.525390625 c 0,12,13
 67 288.721679688 67 288.721679688 72.13671875 321.791992188 c 128,-1,14
 77.2734375 354.862304688 77.2734375 354.862304688 90.80078125 388.360351562 c 128,-1,15
 104.329101562 421.857421875 104.329101562 421.857421875 126.681640625 445.893554688 c 128,-1,16
 149.034179688 469.9296875 149.034179688 469.9296875 185.083984375 484.703125 c 0,17,18
 225.305664062 500 225.305664062 500 277.256835938 500 c 0,19,20
 353.39453125 500 353.39453125 500 393.713867188 468.833007812 c 0,21,22
 419.302734375 448.501953125 419.302734375 448.501953125 439 419.774414062 c 1,23,24
 439 419.774414062 439 419.774414062 439 721 c 1,25,-1
 483 721 l 1,26,27
 483 721 483 721 483 0 c 1,0,-1
409.732421875 107.440429688 m 0,28,29
 439 170.120117188 439 170.120117188 439 244.112304688 c 0,30,31
 439 341.690429688 439 341.690429688 400.477539062 401.4765625 c 0,32,33
 363.412109375 459 363.412109375 459 278.384765625 459 c 0,34,35
 182.149414062 459 182.149414062 459 144.291015625 395.451171875 c 0,36,37
 113 342.926757812 113 342.926757812 113 246.977539062 c 0,38,39
 113 214.944335938 113 214.944335938 115.438476562 189.331054688 c 128,-1,40
 117.875976562 163.716796875 117.875976562 163.716796875 127.010742188 132.494140625 c 128,-1,41
 136.145507812 101.271484375 136.145507812 101.271484375 151.387695312 81.419921875 c 128,-1,42
 166.630859375 61.568359375 166.630859375 61.568359375 196.547851562 47.80078125 c 0,43,44
 229.15234375 34 229.15234375 34 277.4765625 34 c 128,-1,45
 325.80078125 34 325.80078125 34 361.92578125 53.943359375 c 0,46,47
 394.065429688 73.88671875 394.065429688 73.88671875 409.732421875 107.440429688 c 0,28,29
EndSplineSet
EndChar

StartChar: e
Encoding: 101 101 72
Width: 550
GlyphClass: 2
Flags: W
HStem: -7 40<193.405 382.514> 241 41<106.134 443.001> 460 41<187.237 367.768>
VStem: 60.5 43.0039<123.09 241 282 364.992>
LayerCount: 2
Fore
SplineSet
489.5 241 m 1,0,-1
 103.50390625 241 l 1,1,2
 103.737304688 183.536132812 103.737304688 183.536132812 118.423828125 139.234375 c 128,-1,3
 133.110351562 94.93359375 133.110351562 94.93359375 173.561523438 63.966796875 c 0,4,5
 217.979492188 33 217.979492188 33 289.21484375 33 c 0,6,7
 361.415039062 33 361.415039062 33 423.358398438 75.3876953125 c 1,8,9
 423.358398438 75.3876953125 423.358398438 75.3876953125 451.16796875 42.0166015625 c 1,10,11
 451.16796875 42.0166015625 451.16796875 42.0166015625 442.197265625 35.7822265625 c 2,12,13
 380.631835938 -7 380.631835938 -7 293.453125 -7 c 0,14,15
 158.940429688 -7 158.940429688 -7 103.865234375 72.0322265625 c 0,16,17
 60.5 134.258789062 60.5 134.258789062 60.5 244.833007812 c 0,18,19
 60.5 316.565429688 60.5 316.565429688 78.671875 368.965820312 c 128,-1,20
 96.84375 421.366210938 96.84375 421.366210938 128.543945312 448.790039062 c 128,-1,21
 160.245117188 476.212890625 160.245117188 476.212890625 196.201171875 488.384765625 c 0,22,23
 234.413085938 501 234.413085938 501 277.795898438 501 c 0,24,25
 391.6171875 501 391.6171875 501 440.55859375 435.627929688 c 128,-1,26
 489.5 370.255859375 489.5 370.255859375 489.5 269.888671875 c 0,27,28
 489.5 269.888671875 489.5 269.888671875 489.5 241 c 1,0,-1
106.133789062 282 m 1,29,-1
 443.000976562 282 l 1,30,31
 437.499023438 369.943359375 437.499023438 369.943359375 398.629882812 414.971679688 c 0,32,33
 358.607421875 460 358.607421875 460 277.22265625 460 c 128,-1,34
 195.837890625 460 195.837890625 460 153.44140625 413.153320312 c 0,35,36
 112.666992188 366.305664062 112.666992188 366.305664062 106.133789062 282 c 1,29,-1
EndSplineSet
EndChar

StartChar: f
Encoding: 102 102 73
Width: 550
GlyphClass: 2
Flags: W
HStem: 0 21G<216.247 265.268> 452 44<33.0654 216.247 265.268 499.065> 690 46<306.99 505.887>
VStem: 216.247 49.0205<0 452 496 648.265>
LayerCount: 2
Fore
SplineSet
33.0654296875 452 m 1,0,1
 33.0654296875 452 33.0654296875 452 33.0654296875 496 c 1,2,-1
 216.247070312 496 l 1,3,4
 216.247070312 496 216.247070312 496 216.247070312 565 c 2,5,6
 216.247070312 657.51953125 216.247070312 657.51953125 264.84765625 696.759765625 c 128,-1,7
 313.44921875 736 313.44921875 736 400.065429688 736 c 0,8,9
 452.891601562 736 452.891601562 736 516.934570312 711.833984375 c 1,10,11
 516.934570312 711.833984375 516.934570312 711.833984375 500.96484375 669.24609375 c 1,12,13
 500.96484375 669.24609375 500.96484375 669.24609375 491.681640625 672.587890625 c 2,14,15
 443.314453125 690 443.314453125 690 393.809570312 690 c 0,16,17
 321.629882812 690 321.629882812 690 290.478515625 653.696289062 c 0,18,19
 265.267578125 624.314453125 265.267578125 624.314453125 265.267578125 570 c 2,20,21
 265.267578125 570 265.267578125 570 265.267578125 496 c 1,22,-1
 499.065429688 496 l 1,23,24
 499.065429688 496 499.065429688 496 499.065429688 452 c 1,25,-1
 265.267578125 452 l 1,26,27
 265.267578125 452 265.267578125 452 265.267578125 0 c 1,28,-1
 216.247070312 0 l 1,29,30
 216.247070312 0 216.247070312 0 216.247070312 452 c 1,31,-1
 33.0654296875 452 l 1,0,1
EndSplineSet
EndChar

StartChar: g
Encoding: 103 103 74
Width: 550
GlyphClass: 2
Flags: W
HStem: -204 42<171.461 362.133> -5 43<188.665 360.405> 459 42<190.106 363.474>
VStem: 66.5 46<123.464 371.513> 439.5 44<-89.9941 79.4697 132.061 367.07 422.939 495>
LayerCount: 2
Fore
SplineSet
483.5 495 m 1,0,1
 483.5 495 483.5 495 483.5 464 c 0,2,3
 483.5 464 483.5 464 483.5 8.0693359375 c 2,4,5
 483.5 -100.111328125 483.5 -100.111328125 423.380859375 -151.263671875 c 0,6,7
 363.231445312 -204 363.231445312 -204 257.525390625 -204 c 0,8,9
 174.133789062 -204 174.133789062 -204 109.338867188 -154.801757812 c 1,10,11
 109.338867188 -154.801757812 109.338867188 -154.801757812 136.515625 -120.376953125 c 1,12,13
 136.515625 -120.376953125 136.515625 -120.376953125 144.245117188 -125.81640625 c 2,14,15
 196.831054688 -162 196.831054688 -162 257.525390625 -162 c 0,16,17
 346.677734375 -162 346.677734375 -162 394.0390625 -119.819335938 c 0,18,19
 439.5 -77.6396484375 439.5 -77.6396484375 439.5 0 c 2,20,21
 439.5 49.734375 439.5 49.734375 439.5 79.4697265625 c 1,22,23
 385.083984375 -5 385.083984375 -5 274.436523438 -5 c 0,24,25
 154.377929688 -5 154.377929688 -5 105.04296875 74.5205078125 c 0,26,27
 66.5 136.64453125 66.5 136.64453125 66.5 247.623046875 c 128,-1,28
 66.5 358.6015625 66.5 358.6015625 114.79296875 429.80078125 c 128,-1,29
 163.084960938 501 163.084960938 501 275.563476562 501 c 0,30,31
 338.180664062 501 338.180664062 501 383.762695312 477.793945312 c 0,32,33
 415.036132812 460.805664062 415.036132812 460.805664062 439.5 422.939453125 c 1,34,35
 439.5 448.969726562 439.5 448.969726562 439.5 495 c 1,36,-1
 483.5 495 l 1,0,1
400.470703125 99.2197265625 m 0,37,38
 439.5 163 439.5 163 439.5 242 c 0,39,40
 439.5 323 439.5 323 409.904296875 384.841796875 c 0,41,42
 392.5 421 392.5 421 363.024414062 438.598632812 c 0,43,44
 327.5 459 327.5 459 278.946289062 459 c 0,45,46
 182.5 459 182.5 459 143.975585938 392.4375 c 0,47,48
 112.5 337 112.5 337 112.5 242.2265625 c 0,49,50
 112.5 159 112.5 159 143.965820312 104.26953125 c 0,51,52
 182.5 38 182.5 38 278.946289062 38 c 0,53,54
 362.5 38 362.5 38 400.470703125 99.2197265625 c 0,37,38
EndSplineSet
EndChar

StartChar: h
Encoding: 104 104 75
Width: 550
GlyphClass: 2
Flags: W
HStem: 0 21G<68 112 437 482> 458 42<193.501 381.11> 701 20G<68 112>
VStem: 68 44<0 380.849 422.139 721> 437 45<0 405.899>
LayerCount: 2
Fore
SplineSet
437 0 m 1,0,1
 437 164 437 164 437 322.899414062 c 2,2,3
 437 390 437 390 399.50390625 423.846679688 c 0,4,5
 362 458 362 458 284.77734375 458 c 0,6,7
 207 458 207 458 158.60546875 412.934570312 c 0,8,9
 112 368 112 368 112 298.9453125 c 2,10,11
 112 153 112 153 112 0 c 1,12,-1
 68 0 l 1,13,14
 68 360 68 360 68 721 c 1,15,-1
 112 721 l 1,16,17
 112 721 112 721 112 703 c 4,18,19
 112 703 112 703 112 422.138671875 c 1,20,21
 137.225585938 457.083007812 137.225585938 457.083007812 170.856445312 473.357421875 c 0,22,23
 226 500 226 500 286.372070312 500 c 0,24,25
 377.059570312 500 377.059570312 500 425 463.03515625 c 0,26,27
 429.725585938 459.390625 429.725585938 459.390625 434.037109375 455.387695312 c 0,28,29
 482 411 482 411 482 330.76953125 c 2,30,31
 482 169 482 169 482 0 c 1,32,-1
 437 0 l 1,0,1
EndSplineSet
EndChar

StartChar: i
Encoding: 105 105 76
Width: 550
GlyphClass: 2
Flags: W
HStem: 0 44<192.5 254.5 299.5 358.5> 471 44<191.5 254.5> 645 52<247.5 300.5>
VStem: 191.5 108<471 515> 247.5 53<645 697> 254.5 45<44 471>
LayerCount: 2
Fore
SplineSet
192.5 0 m 1,0,1
 192.5 0 192.5 0 192.5 44 c 1,2,-1
 254.5 44 l 1,3,4
 254.5 44 254.5 44 254.5 471 c 1,5,-1
 191.5 471 l 1,6,7
 191.5 471 191.5 471 191.5 515 c 1,8,-1
 299.5 515 l 1,9,10
 299.5 515 299.5 515 299.5 44 c 1,11,-1
 358.5 44 l 1,12,13
 358.5 44 358.5 44 358.5 0 c 1,14,-1
 192.5 0 l 1,0,1
247.5 645 m 1,15,16
 247.5 645 247.5 645 247.5 697 c 1,17,-1
 300.5 697 l 1,18,19
 300.5 697 300.5 697 300.5 645 c 1,20,-1
 247.5 645 l 1,15,16
EndSplineSet
EndChar

StartChar: j
Encoding: 106 106 77
Width: 550
GlyphClass: 2
Flags: W
HStem: -204 43<175.5 290.916> 452 43<245.5 325.5> 646 51<320.5 374.5>
VStem: 325.5 45<-126.977 452 646 697>
LayerCount: 2
Fore
SplineSet
245.5 495 m 1,0,-1
 370.5 495 l 1,1,2
 370.5 222 370.5 222 370.5 -51 c 0,3,4
 370.5 -115.563476562 370.5 -115.563476562 334.370117188 -159.78125 c 128,-1,5
 298.241210938 -204 298.241210938 -204 218.5 -204 c 1,6,-1
 175.5 -204 l 1,7,8
 175.5 -204 175.5 -204 175.5 -161 c 1,9,-1
 218.5 -161 l 1,10,11
 278.497070312 -161 278.497070312 -161 304.379882812 -126.434570312 c 0,12,13
 325.5 -98.228515625 325.5 -98.228515625 325.5 -46 c 0,14,15
 325.5 203 325.5 203 325.5 452 c 1,16,-1
 245.5 452 l 1,17,18
 245.5 452 245.5 452 245.5 495 c 1,0,-1
320.5 646 m 1,19,20
 320.5 646 320.5 646 320.5 697 c 1,21,-1
 374.5 697 l 1,22,23
 374.5 697 374.5 697 374.5 646 c 1,24,-1
 345.5 646 l 4,25,26
 345.5 646 345.5 646 320.5 646 c 1,19,20
EndSplineSet
EndChar

StartChar: k
Encoding: 107 107 78
Width: 550
GlyphClass: 2
Flags: W
HStem: 0 21G<58.208 108.208 381.354 491.792> 476 20G<249.708 459.893> 701 20G<58.208 108.208>
VStem: 58.208 50<0 160.116 228.64 721>
LayerCount: 2
Fore
SplineSet
491.791992188 0 m 5,0,1
 491.791992188 0 491.791992188 0 439.208007812 0.3076171875 c 4,2,3
 439.208007812 0.3076171875 439.208007812 0.3076171875 436.357421875 0.5 c 5,4,5
 436.357421875 0.5 436.357421875 0.5 233.208007812 275 c 5,6,7
 233.208007812 275 233.208007812 275 108.208007812 160.116210938 c 5,8,9
 108.208007812 160.116210938 108.208007812 160.116210938 108.208007812 0 c 5,10,-1
 58.2080078125 0 l 5,11,12
 58.2080078125 0 58.2080078125 0 58.2080078125 721 c 5,13,14
 58.2080078125 721 58.2080078125 721 108.208007812 721 c 5,15,16
 108.208007812 721 108.208007812 721 108.208007812 228.639648438 c 5,17,18
 108.208007812 228.639648438 108.208007812 228.639648438 391.208007812 496 c 12,19,-1
 459.892578125 495 l 5,20,21
 459.892578125 495 459.892578125 495 270.916015625 305.657226562 c 5,22,23
 270.916015625 305.657226562 270.916015625 305.657226562 491.791992188 0 c 5,0,1
EndSplineSet
EndChar

StartChar: l
Encoding: 108 108 79
Width: 550
GlyphClass: 2
Flags: W
HStem: 0 43.0703<291.638 370.5> 678 44<179.5 216.5>
VStem: 179.5 82<678 722> 216.5 44.9912<69.2724 678>
LayerCount: 2
Fore
SplineSet
258.151367188 26.4443359375 m 0,0,1
 216.5 58 216.5 58 216.5 128.245117188 c 2,2,3
 216.5 128.245117188 216.5 128.245117188 216.5 678 c 1,4,-1
 179.5 678 l 5,5,6
 179.5 678 179.5 678 179.5 722 c 5,7,-1
 261.5 722 l 1,8,9
 261.5 722 261.5 722 261.5 130.612304688 c 2,10,11
 261.5 130.612304688 261.5 130.612304688 261.491210938 129.357421875 c 0,12,13
 261.5 86 261.5 86 291.002929688 60.6611328125 c 0,14,15
 311.080078125 43.5048828125 311.080078125 43.5048828125 360.592773438 43.0703125 c 2,16,17
 360.592773438 43.0703125 360.592773438 43.0703125 370.5 42.9833984375 c 1,18,19
 370.5 42.9833984375 370.5 42.9833984375 370.5 0 c 1,20,21
 370.5 0 370.5 0 350.5 0 c 0,22,23
 350.5 0 350.5 0 349.087890625 0 c 1,24,25
 292.5 0 292.5 0 258.151367188 26.4443359375 c 0,0,1
EndSplineSet
EndChar

StartChar: m
Encoding: 109 109 80
Width: 550
GlyphClass: 2
Flags: W
HStem: 0 21G<29 73 250.018 297.811 476 521> 458 42<112.688 221.925 340.845 453.194>
VStem: 29 44<0 416.6 453.287 495> 250.018 47.793<0 413.539> 476 45<0 433.969>
LayerCount: 2
Fore
SplineSet
320.421875 475.727539062 m 0,0,1
 358.504882812 500 358.504882812 500 401 500 c 0,2,3
 465.370117188 500 465.370117188 500 493.185546875 459.620117188 c 128,-1,4
 521 419.240234375 521 419.240234375 521 359.615234375 c 2,5,6
 521 359.615234375 521 359.615234375 521 0 c 1,7,-1
 476 0 l 1,8,9
 476 0 476 0 476 361.225585938 c 2,10,11
 476 411.40625 476 411.40625 455.665039062 434.703125 c 128,-1,12
 435.329101562 458 435.329101562 458 402 458 c 0,13,14
 356.435546875 458 356.435546875 458 327.123046875 423.815429688 c 128,-1,15
 297.810546875 389.631835938 297.810546875 389.631835938 297.810546875 321.94140625 c 2,16,17
 297.810546875 321.94140625 297.810546875 321.94140625 297.810546875 0 c 1,18,-1
 250.017578125 0 l 1,19,20
 250.017578125 0 250.017578125 0 250.017578125 342.0625 c 2,21,22
 250.017578125 395.412109375 250.017578125 395.412109375 232.232421875 424.275390625 c 0,23,24
 211.454101562 458 211.454101562 458 164.20703125 458 c 0,25,26
 126.0625 458 126.0625 458 99.53125 423.375 c 128,-1,27
 73 388.749023438 73 388.749023438 73 321.94140625 c 2,28,29
 73 321.94140625 73 321.94140625 73 0 c 1,30,-1
 29 0 l 1,31,32
 29 0 29 0 29 495 c 1,33,-1
 73 495 l 1,34,35
 73 495 73 495 73 453.287109375 c 1,36,37
 84.47265625 468.2265625 84.47265625 468.2265625 99.6826171875 479.131835938 c 0,38,39
 128.787109375 500 128.787109375 500 165.29296875 500 c 0,40,41
 223.0625 500 223.0625 500 254.573242188 469.409179688 c 0,42,43
 270.58984375 453.860351562 270.58984375 453.860351562 279.330078125 430.73046875 c 1,44,45
 293.87890625 458.810546875 293.87890625 458.810546875 320.421875 475.727539062 c 0,0,1
EndSplineSet
EndChar

StartChar: n
Encoding: 110 110 81
Width: 550
GlyphClass: 2
Flags: W
HStem: 0 21G<68.5 112.5 437.5 481.5> 458 42<194.078 380.99>
VStem: 68.5 44<0 380.774 422.139 495> 437.5 44<0 405.799>
LayerCount: 2
Fore
SplineSet
437.5 0 m 1,0,1
 437.5 0 437.5 0 437.5 322.899414062 c 2,2,3
 437.5 389.694335938 437.5 389.694335938 400.00390625 423.846679688 c 128,-1,4
 362.5078125 458 362.5078125 458 285.27734375 458 c 128,-1,5
 207.913085938 458 207.913085938 458 159.10546875 412.934570312 c 0,6,7
 112.5 367.828125 112.5 367.828125 112.5 298.9453125 c 2,8,9
 112.5 298.9453125 112.5 298.9453125 112.5 0 c 1,10,-1
 68.5 0 l 1,11,12
 68.5 0 68.5 0 68.5 495 c 1,13,-1
 112.5 495 l 1,14,15
 112.5 448.569335938 112.5 448.569335938 112.5 422.138671875 c 1,16,17
 135.418945312 454.461914062 135.418945312 454.461914062 171.356445312 473.357421875 c 0,18,19
 226.413085938 500 226.413085938 500 286.872070312 500 c 0,20,21
 386.573242188 500 386.573242188 500 433.98828125 455.432617188 c 128,-1,22
 481.5 410.775390625 481.5 410.775390625 481.5 330.76953125 c 6,23,24
 481.5 330.76953125 481.5 330.76953125 481.5 0 c 5,25,-1
 437.5 0 l 1,0,1
EndSplineSet
EndChar

StartChar: o
Encoding: 111 111 82
Width: 550
GlyphClass: 2
Flags: W
HStem: -6 41<182.955 367.122> 459 42<185.474 369.241>
VStem: 57.5 45<121.151 369.828> 447.5 45<117.65 380.299>
LayerCount: 2
Fore
SplineSet
130.950195312 454.392578125 m 0,0,1
 187.828125 501 187.828125 501 277.786132812 501 c 0,2,3
 400.946289062 501 400.946289062 501 454.9609375 420.504882812 c 0,4,5
 492.5 363.32421875 492.5 363.32421875 492.5 244.1328125 c 0,6,7
 492.5 112.432617188 492.5 112.432617188 432.900390625 50.0654296875 c 0,8,9
 379.920898438 -6 379.920898438 -6 272.213867188 -6 c 0,10,11
 173.360351562 -6 173.360351562 -6 123.430664062 42.03515625 c 0,12,13
 57.5 105.463867188 57.5 105.463867188 57.5 249.139648438 c 128,-1,14
 57.5 392.815429688 57.5 392.815429688 130.950195312 454.392578125 c 0,0,1
415.333984375 398.1015625 m 0,15,16
 371.116210938 459 371.116210938 459 276.671875 459 c 0,17,18
 200.081054688 459 200.081054688 459 154.719726562 416.106445312 c 0,19,20
 102.5 364.42578125 102.5 364.42578125 102.5 247.955078125 c 0,21,22
 102.5 124.8984375 102.5 124.8984375 155.569335938 74.2197265625 c 0,23,24
 198.827148438 35 198.827148438 35 276.6015625 35 c 128,-1,25
 354.376953125 35 354.376953125 35 399.280273438 77.8935546875 c 0,26,27
 447.5 126.649414062 447.5 126.649414062 447.5 245.08984375 c 0,28,29
 447.5 354.737304688 447.5 354.737304688 415.333984375 398.1015625 c 0,15,16
EndSplineSet
EndChar

StartChar: p
Encoding: 112 112 83
Width: 550
GlyphClass: 2
Flags: W
HStem: -200 21G<67 112> -4 41<189.651 360.674> 462 41<191.9 365.729> 475 20G<67 112>
VStem: 67 45<-200 75.3252 129.79 366.427 423.466 495> 438 45<122.769 381.744>
LayerCount: 2
Fore
SplineSet
67 495 m 1,0,-1
 112 495 l 1,1,2
 112 449.232421875 112 449.232421875 112 423.465820312 c 1,3,4
 166.704101562 503 166.704101562 503 279.512695312 503 c 0,5,6
 395.655273438 503 395.655273438 503 440.076171875 431.946289062 c 0,7,8
 483 363.287109375 483 363.287109375 483 245.170898438 c 0,9,10
 483 148.68359375 483 148.68359375 442.25390625 77.9326171875 c 0,11,12
 420.365234375 39.9267578125 420.365234375 39.9267578125 379.484375 17.962890625 c 0,13,14
 335.475585938 -4 335.475585938 -4 272.743164062 -4 c 0,15,16
 165.904296875 -4 165.904296875 -4 112 75.3251953125 c 1,17,18
 112 -52.3369140625 112 -52.3369140625 112 -200 c 5,19,-1
 67 -200 l 5,20,21
 67 147.5 67 147.5 67 495 c 1,0,-1
118.794921875 314.971679688 m 0,22,23
 112 280 112 280 112 242 c 0,24,25
 112 160 112 160 150.051757812 97.1826171875 c 0,26,27
 187 37 187 37 272.743164062 37 c 0,28,29
 369 37 369 37 406.708984375 103.5390625 c 0,30,31
 438 159 438 159 438 239 c 0,32,33
 438 273 438 273 435.561523438 299.359375 c 0,34,35
 433 326 433 326 423.989257812 358.87109375 c 0,36,37
 415 392 415 392 399.590820312 412.376953125 c 0,38,39
 382 435 382 435 355.576171875 447.609375 c 0,40,41
 324 462 324 462 275.848632812 462 c 0,42,43
 224 462 224 462 190.833007812 441.08203125 c 0,44,45
 158 420 158 420 141.728515625 385.04296875 c 0,46,47
 126 350 126 350 118.794921875 314.971679688 c 0,22,23
EndSplineSet
EndChar

StartChar: q
Encoding: 113 113 84
Width: 550
GlyphClass: 2
Flags: W
HStem: -200 21G<438 483> -4 42<185.509 358.933> 462 38<190.92 358.246>
VStem: 67 45<124.186 373.397> 438 45<-200 79 128.438 369.756 424 494>
LayerCount: 2
Fore
SplineSet
438 424 m 1,0,1
 438 424 438 424 438 494 c 1,2,-1
 483 494 l 1,3,4
 483 494 483 494 483 -200 c 1,5,-1
 438 -200 l 1,6,7
 438 -200 438 -200 438 79 c 1,8,9
 388 -4 388 -4 273 -4 c 0,10,11
 211 -4 211 -4 165 19 c 0,12,13
 124 40 124 40 104 79 c 0,14,15
 85 117 85 117 76 158 c 128,-1,16
 67 199 67 199 67 245 c 0,17,18
 67 363 67 363 113 430 c 0,19,20
 161 500 161 500 277.5 500 c 128,-1,21
 394 500 394 500 438 424 c 1,0,1
399 97 m 0,22,23
 438 155 438 155 438 252 c 0,24,25
 438 326 438 326 408 390 c 0,26,27
 393 421 393 421 361 442 c 0,28,29
 330 462 330 462 275 462 c 0,30,31
 227 462 227 462 188 442 c 0,32,33
 157 426 157 426 140 389 c 128,-1,34
 123 352 123 352 118 321 c 0,35,36
 112 285 112 285 112 248 c 0,37,38
 112 210 112 210 119 175 c 0,39,40
 126 138 126 138 141 108 c 0,41,42
 157 76 157 76 188 57 c 0,43,44
 220 38 220 38 276 38 c 0,45,46
 359 38 359 38 399 97 c 0,22,23
EndSplineSet
EndChar

StartChar: r
Encoding: 114 114 85
Width: 550
GlyphClass: 2
Flags: W
HStem: 0 21G<102.968 146.968> 442.985 32.9385<389.76 433.594> 456 44<215.896 435.259>
VStem: 102.968 44<0 389.26 426.983 495>
LayerCount: 2
Fore
SplineSet
412.663085938 442.985351562 m 1,0,1
 364.239257812 456 364.239257812 456 312.09765625 456 c 0,2,3
 230.967773438 456 230.967773438 456 188.194335938 414.893554688 c 0,4,5
 146.967773438 374 146.967773438 374 146.967773438 299.848632812 c 2,6,7
 146.967773438 153 146.967773438 153 146.967773438 0 c 1,8,-1
 102.967773438 0 l 1,9,10
 102.967773438 248 102.967773438 248 102.967773438 495 c 1,11,-1
 146.967773438 495 l 1,12,13
 146.967773438 451 146.967773438 451 146.967773438 426.983398438 c 1,14,15
 196.967773438 500 196.967773438 500 314.573242188 500 c 0,16,17
 380.76953125 500 380.76953125 500 447.032226562 475.923828125 c 5,18,19
 447.032226562 475.923828125 447.032226562 475.923828125 429.967773438 438 c 1,20,21
 429.967773438 438 429.967773438 438 412.663085938 442.985351562 c 1,0,1
EndSplineSet
EndChar

StartChar: s
Encoding: 115 115 86
Width: 550
GlyphClass: 2
Flags: W
HStem: -7 40.4092<154.645 387.949> 459 42<185.75 406.806>
VStem: 95.918 46<315.385 422.93> 439.918 46<74.7992 186.445>
LayerCount: 2
Fore
SplineSet
470.051757812 196.32421875 m 128,-1,1
 485.91796875 169.044921875 485.91796875 169.044921875 485.91796875 132.033203125 c 0,2,3
 485.91796875 70.7939453125 485.91796875 70.7939453125 433.91796875 31.8974609375 c 128,-1,4
 381.91796875 -7 381.91796875 -7 276.03125 -7 c 0,5,6
 150.681640625 -7 150.681640625 -7 72.064453125 47.73828125 c 2,7,8
 72.064453125 47.73828125 72.064453125 47.73828125 64.08203125 53.296875 c 1,9,10
 64.08203125 53.296875 64.08203125 53.296875 89.6787109375 88.478515625 c 1,11,12
 89.6787109375 88.478515625 89.6787109375 88.478515625 97.9462890625 82.455078125 c 2,13,14
 165.274414062 33.4091796875 165.274414062 33.4091796875 286.143554688 33.4091796875 c 0,15,16
 345.286132812 33.4091796875 345.286132812 33.4091796875 391.456054688 54.52734375 c 0,17,18
 412.930664062 64.8583984375 412.930664062 64.8583984375 426.431640625 85.6416015625 c 128,-1,19
 439.91796875 106.40234375 439.91796875 106.40234375 439.91796875 135.393554688 c 0,20,21
 439.91796875 213.788085938 439.91796875 213.788085938 291.02734375 235.5859375 c 0,22,23
 243.254882812 242.403320312 243.254882812 242.403320312 212.09375 249.815429688 c 0,24,25
 181.279296875 257.227539062 181.279296875 257.227539062 153.034179688 271.071289062 c 0,26,27
 95.91796875 299.06640625 95.91796875 299.06640625 95.91796875 363.931640625 c 128,-1,28
 95.91796875 428.797851562 95.91796875 428.797851562 145.233398438 464.8984375 c 0,29,30
 195.842773438 501 195.842773438 501 298.783203125 501 c 0,31,32
 397.78515625 501 397.78515625 501 464.208007812 459.486328125 c 2,33,34
 464.208007812 459.486328125 464.208007812 459.486328125 472.950195312 454.021484375 c 4,35,36
 472.950195312 454.021484375 472.950195312 454.021484375 447.875 416.409179688 c 5,37,38
 447.875 416.409179688 447.875 416.409179688 439.665039062 421.491210938 c 2,39,40
 379.07421875 459 379.07421875 459 301.354492188 459 c 0,41,42
 222.009765625 459 222.009765625 459 179.877929688 435.7578125 c 0,43,44
 141.91796875 412.516601562 141.91796875 412.516601562 141.91796875 365.9921875 c 0,45,46
 141.91796875 348.181640625 141.91796875 348.181640625 149.39453125 334.265625 c 128,-1,47
 156.872070312 320.348632812 156.872070312 320.348632812 166.94921875 312.366210938 c 128,-1,48
 177.02734375 304.384765625 177.02734375 304.384765625 199.59375 296.65625 c 0,49,50
 223.033203125 288.927734375 223.033203125 288.927734375 241.234375 285.729492188 c 2,51,52
 266.993164062 278.918945312 266.993164062 278.918945312 292.75390625 276.650390625 c 2,53,54
 338.33203125 269.836914062 338.33203125 269.836914062 366.96484375 261.982421875 c 0,55,56
 392.759765625 254.067382812 392.759765625 254.067382812 423.47265625 238.834960938 c 128,-1,0
 454.185546875 223.603515625 454.185546875 223.603515625 470.051757812 196.32421875 c 128,-1,1
EndSplineSet
EndChar

StartChar: t
Encoding: 116 116 87
Width: 550
GlyphClass: 2
Flags: W
HStem: 0 45<225.591 430.837> 453 42<110.121 147.121 192.121 435.121>
VStem: 147.121 45<79.3519 453 495 635>
LayerCount: 2
Fore
SplineSet
439.87890625 21.9970703125 m 17,0,1
 414.12109375 10 414.12109375 10 388.40625 5.6650390625 c 0,2,3
 352.12109375 0 352.12109375 0 318.935546875 0 c 0,4,5
 229.12109375 0 229.12109375 0 188.170898438 36.2099609375 c 0,6,7
 147.12109375 72 147.12109375 72 147.12109375 159.938476562 c 2,8,9
 147.12109375 159.938476562 147.12109375 159.938476562 147.12109375 453 c 1,10,-1
 110.12109375 453 l 1,11,12
 110.12109375 453 110.12109375 453 110.12109375 495 c 1,13,-1
 147.12109375 495 l 1,14,15
 147.12109375 495 147.12109375 495 147.12109375 635 c 1,16,-1
 192.12109375 635 l 1,17,18
 192.12109375 635 192.12109375 635 192.12109375 495 c 1,19,-1
 435.12109375 495 l 1,20,21
 435.12109375 495 435.12109375 495 435.12109375 453 c 1,22,-1
 192.12109375 453 l 1,23,24
 192.12109375 453 192.12109375 453 192.12109375 163.206054688 c 2,25,26
 192.12109375 103 192.12109375 103 216.10546875 75.1982421875 c 0,27,28
 242.12109375 45 242.12109375 45 316.913085938 45 c 0,29,30
 390.12109375 45 390.12109375 45 423.657226562 66.1376953125 c 9,31,32
 423.657226562 66.1376953125 423.657226562 66.1376953125 439.87890625 21.9970703125 c 17,0,1
EndSplineSet
EndChar

StartChar: u
Encoding: 117 117 88
Width: 550
GlyphClass: 2
Flags: W
HStem: 0 37<178.496 350.581> 475 20G<68.5 113.5 438.5 481.5>
VStem: 68.5 45<92.8901 495> 438.5 43<0 68.2832 113.139 495>
LayerCount: 2
Fore
SplineSet
481.5 0 m 5,0,-1
 437.5 0 l 5,1,2
 437.5 44 437.5 44 437.5 68.283203125 c 1,3,4
 415.5 38 415.5 38 378.890625 20.5146484375 c 0,5,6
 322.5 -5 322.5 -5 263.127929688 -5 c 0,7,8
 166.5 -5 166.5 -5 117.354492188 43.083984375 c 0,9,10
 68.5 91 68.5 91 68.5 170 c 2,11,12
 68.5 329 68.5 329 68.5 495 c 1,13,-1
 113.5 495 l 1,14,15
 113.5 317 113.5 317 113.5 159 c 2,16,17
 113.5 110 113.5 110 152.48046875 73.66015625 c 0,18,19
 191.5 37 191.5 37 264.2578125 37 c 0,20,21
 342.5 37 342.5 37 391.540039062 82.677734375 c 0,22,23
 438.5 128 438.5 128 438.5 180 c 2,24,25
 438.5 328 438.5 328 438.5 495 c 1,26,-1
 481.5 495 l 1,27,28
 481.5 248 481.5 248 481.5 0 c 5,0,-1
EndSplineSet
EndChar

StartChar: v
Encoding: 118 118 89
Width: 550
GlyphClass: 2
Flags: W
HStem: 0 21G<252.845 396.834> 474 20G<54.6426 104.01 104.01 153.744 361.029 495.357>
LayerCount: 2
Fore
SplineSet
298.311523438 0 m 5,0,1
 298.311523438 0 298.311523438 0 252.844726562 0 c 5,2,3
 252.844726562 0 252.844726562 0 54.642578125 494 c 5,4,-1
 104.009765625 494 l 5,5,6
 104.009765625 494 104.009765625 494 276.0703125 50.5546875 c 5,7,8
 276.0703125 50.5546875 276.0703125 50.5546875 445.98828125 494 c 5,9,-1
 495.357421875 494 l 5,10,11
 495.357421875 494 495.357421875 494 298.311523438 0 c 5,0,1
EndSplineSet
EndChar

StartChar: w
Encoding: 119 119 90
Width: 550
GlyphClass: 2
Flags: W
HStem: 0 21G<119.497 222.268 397.022 489.805> 475 20G<12.3359 59.8145 59.8145 65.9165 453.019 537.664>
LayerCount: 2
Fore
SplineSet
441.946289062 0 m 5,0,1
 441.946289062 0 441.946289062 0 397.022460938 0 c 5,2,3
 397.022460938 0 397.022460938 0 280.51953125 318.41796875 c 5,4,5
 280.51953125 318.41796875 280.51953125 318.41796875 164.015625 0 c 5,6,7
 164.015625 0 164.015625 0 119.497070312 0 c 5,8,9
 119.497070312 0 119.497070312 0 12.3359375 495 c 5,10,-1
 59.814453125 495 l 5,11,12
 59.814453125 495 59.814453125 495 146.833984375 69.7080078125 c 5,13,14
 146.833984375 69.7080078125 146.833984375 69.7080078125 258.28515625 376 c 5,15,-1
 303.8359375 376 l 5,16,17
 303.8359375 376 303.8359375 376 414.770507812 70.20703125 c 5,18,19
 414.770507812 70.20703125 414.770507812 70.20703125 491.267578125 495 c 5,20,-1
 537.6640625 495 l 5,21,22
 537.6640625 495 537.6640625 495 441.946289062 0 c 5,0,1
EndSplineSet
EndChar

StartChar: x
Encoding: 120 120 91
Width: 550
GlyphClass: 2
Flags: W
HStem: 0 21G<67 134.352 415.648 483> 474 20G<76 129 404.714 474>
LayerCount: 2
Fore
SplineSet
129 494 m 17,0,1
 129 494 129 494 274 291 c 1,2,-1
 419 494 l 1,3,-1
 474 494 l 1,4,5
 474 494 474 494 301 253 c 1,6,-1
 483 0 l 1,7,-1
 430 0 l 1,8,-1
 275 216 l 1,9,-1
 120 0 l 1,10,-1
 67 0 l 1,11,-1
 248 254 l 1,12,-1
 76 494 l 8,13,14
 76 494 76 494 129 494 c 17,0,1
EndSplineSet
EndChar

StartChar: y
Encoding: 121 121 92
Width: 550
GlyphClass: 2
Flags: W
HStem: -201 43<82.5547 181.234> 474 20G<53.2422 144.308 407.618 496.758>
LayerCount: 2
Fore
SplineSet
210.02734375 -178.10546875 m 128,-1,1
 176.173828125 -201 176.173828125 -201 121.5546875 -201 c 1,2,-1
 82.5546875 -201 l 1,3,4
 82.5546875 -201 82.5546875 -201 82.5546875 -158 c 1,5,-1
 119.5546875 -158 l 1,6,7
 160.092773438 -158 160.092773438 -158 181.920898438 -141.48828125 c 0,8,9
 205.181640625 -124.975585938 205.181640625 -124.975585938 219.635742188 -86.806640625 c 0,10,11
 219.6484375 -86.7734375 219.6484375 -86.7734375 250.55078125 -4.13671875 c 1,12,13
 148.09765625 244.931640625 148.09765625 244.931640625 53.2421875 494 c 1,14,15
 53.2421875 494 53.2421875 494 102.580078125 494 c 1,16,17
 186.03515625 256.153320312 186.03515625 256.153320312 277.190429688 38.306640625 c 1,18,19
 366.748046875 256.153320312 366.748046875 256.153320312 448.487304688 494 c 1,20,-1
 496.7578125 494 l 1,21,22
 385.356445312 192.79296875 385.356445312 192.79296875 262.752929688 -108.4140625 c 2,23,0
 243.880859375 -155.209960938 243.880859375 -155.209960938 210.02734375 -178.10546875 c 128,-1,1
EndSplineSet
EndChar

StartChar: z
Encoding: 122 122 93
Width: 550
GlyphClass: 2
Flags: W
HStem: 0 41<140.5 468.5> 454 40<97.5 407.5>
LayerCount: 2
Fore
SplineSet
81.5 0 m 1,0,1
 81.5 0 81.5 0 81.5 32 c 1,2,3
 81.5 32 81.5 32 407.5 454 c 1,4,-1
 97.5 454 l 1,5,6
 97.5 454 97.5 454 97.5 494 c 1,7,-1
 465.5 494 l 1,8,9
 465.5 494 465.5 494 465.5 463 c 1,10,11
 465.5 463 465.5 463 140.5 41 c 1,12,-1
 468.5 41 l 1,13,14
 468.5 41 468.5 41 468.5 0 c 1,15,-1
 81.5 0 l 1,0,1
EndSplineSet
EndChar

StartChar: braceleft
Encoding: 123 123 94
Width: 550
GlyphClass: 2
Flags: W
HStem: -132 43<315.445 423> 279 46<127 239.172> 692 44<316.454 423>
VStem: 263 40<-64.3079 251.246 350.273 665.246>
LayerCount: 2
Fore
SplineSet
263 134 m 2,0,1
 263 279 263 279 202 279 c 1,2,3
 202 279 202 279 127 279 c 1,4,-1
 127 325 l 1,5,-1
 204 325 l 1,6,7
 264 325 264 325 264 467 c 2,8,9
 264 467 264 467 264 626 c 2,10,11
 264 677 264 677 285 706 c 0,12,13
 307 736 307 736 347 736 c 2,14,15
 347 736 347 736 423 736 c 1,16,-1
 423 692 l 1,17,-1
 352 692 l 1,18,19
 326 692 326 692 314 666 c 0,20,21
 303 642 303 642 303 602 c 2,22,23
 303 602 303 602 303 449 c 0,24,25
 303 329 303 329 264 301 c 1,26,27
 303 282 303 282 303 160 c 2,28,29
 303 160 303 160 303 -2 c 2,30,31
 303 -43 303 -43 314 -65 c 0,32,33
 325 -89 325 -89 352 -89 c 2,34,35
 352 -89 352 -89 423 -89 c 1,36,-1
 423 -132 l 1,37,-1
 347 -132 l 2,38,39
 307 -132 307 -132 285 -100 c 128,-1,40
 263 -68 263 -68 263 -20 c 2,41,42
 263 -20 263 -20 263 134 c 2,0,1
EndSplineSet
EndChar

StartChar: bar
Encoding: 124 124 95
Width: 550
GlyphClass: 2
Flags: W
VStem: 255.5 39<-172 726>
LayerCount: 2
Fore
SplineSet
255.5 -172 m 1,0,-1
 255.5 726 l 1,1,-1
 294.5 726 l 1,2,-1
 294.5 -172 l 1,3,-1
 255.5 -172 l 1,0,-1
EndSplineSet
EndChar

StartChar: braceright
Encoding: 125 125 96
Width: 550
GlyphClass: 2
Flags: WO
HStem: -132 43<127 233.508> 279 46<310.828 423> 696 40<127 197.996 198 230.469>
VStem: 247 40<-64.5842 251.246 350.273 681.156>
LayerCount: 2
Fore
SplineSet
287 134 m 24,0,1
 287 134 287 134 287 -20 c 2,2,3
 287 -68 287 -68 265 -100 c 128,-1,4
 243 -132 243 -132 203 -132 c 2,5,6
 203 -132 203 -132 127 -132 c 1,7,-1
 127 -89 l 1,8,-1
 198 -89 l 2,9,10
 216 -89 216 -89 236 -65 c 0,11,12
 247 -52 247 -52 247 0 c 1,13,14
 247 0 247 0 247 160 c 0,15,16
 247 272 247 272 286 301 c 1,17,18
 247 329 247 329 247 449 c 2,19,20
 247 602 247 602 247 602 c 2,21,22
 247 638 247 638 236 666 c 0,23,24
 224 696 224 696 198 696 c 1,25,26
 198 696 198 696 180 696 c 128,-1,27
 162 696 162 696 127 696 c 1,28,-1
 127 736 l 1,29,-1
 203 736 l 2,30,31
 243 736 243 736 265 706 c 0,32,33
 286 677 286 677 286 626 c 2,34,35
 286 467 286 467 286 467 c 2,36,37
 286 325 286 325 346 325 c 1,38,39
 346 325 346 325 423 325 c 1,40,-1
 423 279 l 1,41,-1
 348 279 l 1,42,43
 287 279 287 279 287 134 c 24,0,1
EndSplineSet
EndChar

StartChar: asciitilde
Encoding: 126 126 97
Width: 550
GlyphClass: 2
Flags: W
HStem: 217 48<285.371 396.683> 259 48<152.175 280.62>
LayerCount: 2
Fore
SplineSet
209.220703125 307 m 0,0,1
 235.185546875 307 235.185546875 307 286.685546875 286 c 128,-1,2
 338.185546875 265 338.185546875 265 355.220703125 265 c 0,3,4
 381.46875 265 381.46875 265 413.461914062 304.305664062 c 2,5,-1
 419.146484375 311.291015625 l 1,6,-1
 458.212890625 285.8125 l 1,7,-1
 452.500976562 277.39453125 l 2,8,9
 411.518554688 217 411.518554688 217 354.220703125 217 c 0,10,11
 331.2734375 217 331.2734375 217 279.2734375 238 c 128,-1,12
 227.2734375 259 227.2734375 259 206.220703125 259 c 0,13,14
 170.50390625 259 170.50390625 259 133.461914062 220.106445312 c 2,15,-1
 127.331054688 213.668945312 l 5,16,-1
 91.787109375 240.327148438 l 5,17,-1
 98.546875 248.409179688 l 2,18,19
 147.549804688 307 147.549804688 307 209.220703125 307 c 0,0,1
EndSplineSet
EndChar

StartChar: exclamdown
Encoding: 161 161 98
Width: 550
GlyphClass: 2
Flags: W
HStem: 437 61<247 303>
VStem: 247 56<437 498> 249.88 48.2405<-218 304>
LayerCount: 2
Fore
SplineSet
266 304 m 1,0,-1
 282 304 l 1,1,-1
 291.881205777 304 l 1,2,-1
 298.120249602 -218 l 1,3,-1
 288 -218 l 1,4,-1
 260 -218 l 1,5,-1
 249.879750398 -218 l 1,6,-1
 256.118794223 304 l 1,7,-1
 266 304 l 1,0,-1
257 498 m 1,8,-1
 293 498 l 1,9,-1
 303 498 l 1,10,-1
 303 488 l 1,11,-1
 303 447 l 1,12,-1
 303 437 l 1,13,-1
 293 437 l 1,14,-1
 257 437 l 1,15,-1
 247 437 l 1,16,-1
 247 447 l 1,17,-1
 247 488 l 1,18,-1
 247 498 l 1,19,-1
 257 498 l 1,8,-1
EndSplineSet
EndChar

StartChar: cent
Encoding: 162 162 99
Width: 550
GlyphClass: 2
Flags: W
HStem: -15.8584 39.0342<226.821 271.885 310.885 393.877> 468.805 42.0381<222.914 271.885 310.885 394.408>
VStem: 83.8848 45<125.786 367.147> 271.885 39<-122 -15.8584 26.79 465.213 510.843 621>
LayerCount: 2
Fore
SplineSet
310.884765625 -122 m 1,0,-1
 300.884765625 -122 l 1,1,-1
 281.884765625 -122 l 1,2,-1
 271.884765625 -122 l 1,3,-1
 271.884765625 -13.80078125 l 1,4,5
 191.931640625 -2.087890625 191.931640625 -2.087890625 139.306640625 58.9775390625 c 0,6,7
 83.884765625 123.288085938 83.884765625 123.288085938 83.884765625 246.501953125 c 128,-1,8
 83.884765625 369.715820312 83.884765625 369.715820312 139.811523438 434.52734375 c 0,9,10
 192.874023438 496.021484375 192.874023438 496.021484375 271.884765625 507.78515625 c 1,11,-1
 271.884765625 621 l 1,12,-1
 281.884765625 621 l 1,13,-1
 300.884765625 621 l 1,14,-1
 310.884765625 621 l 1,15,-1
 310.884765625 510.842773438 l 1,16,17
 393.8984375 508.206054688 393.8984375 508.206054688 453.04296875 461.875976562 c 2,18,-1
 460.692382812 455.884765625 l 1,19,-1
 454.939453125 448.077148438 l 1,20,-1
 440.939453125 429.077148438 l 1,21,-1
 434.762695312 420.693359375 l 1,22,-1
 426.64453125 427.1875 l 2,23,24
 377.9296875 466.16015625 377.9296875 466.16015625 310.884765625 468.8046875 c 1,25,-1
 310.884765625 23.17578125 l 1,26,27
 382.650390625 25.7265625 382.650390625 25.7265625 431.55859375 65.7431640625 c 2,28,-1
 439.266601562 72.0498046875 l 1,29,-1
 445.606445312 64.3505859375 l 1,30,-1
 459.606445312 47.3505859375 l 1,31,-1
 466.115234375 39.447265625 l 1,32,-1
 458.04296875 33.1240234375 l 2,33,34
 398.705078125 -13.3583984375 398.705078125 -13.3583984375 310.884765625 -15.8583984375 c 1,35,-1
 310.884765625 -122 l 1,0,-1
169.059570312 400.7421875 m 0,36,37
 128.884765625 343.828125 128.884765625 343.828125 128.884765625 246.489257812 c 128,-1,38
 128.884765625 149.150390625 128.884765625 149.150390625 169.08203125 91.7255859375 c 0,39,40
 205.575195312 39.591796875 205.575195312 39.591796875 271.884765625 26.7900390625 c 1,41,-1
 271.884765625 465.212890625 l 1,42,43
 205.551757812 452.440429688 205.551757812 452.440429688 169.059570312 400.7421875 c 0,36,37
EndSplineSet
EndChar

StartChar: sterling
Encoding: 163 163 100
Width: 550
GlyphClass: 2
Flags: W
HStem: -10 44<123.188 481.5> 298 38<68.5 150.927 196.434 341.5> 670 39<203.131 363.234>
VStem: 99.5 43<444.26 615.664> 154.674 41.7598<151.674 298 336 401.212>
LayerCount: 2
Fore
SplineSet
70.5 0 m 1,0,-1
 70.5 24 l 1,1,-1
 70.5 27.3388671875 l 1,2,-1
 72.50390625 30.0029296875 l 2,3,4
 154.673828125 139.251953125 154.673828125 139.251953125 154.673828125 293.573242188 c 0,5,6
 154.673828125 295.78125 154.673828125 295.78125 154.657226562 298 c 1,7,-1
 68.5 298 l 1,8,-1
 68.5 308 l 1,9,-1
 68.5 326 l 1,10,-1
 68.5 336 l 1,11,-1
 150.926757812 336 l 1,12,13
 147.524414062 356.71484375 147.524414062 356.71484375 141.741210938 376.842773438 c 128,-1,14
 135.958984375 396.970703125 135.958984375 396.970703125 123.9453125 430.008789062 c 128,-1,15
 111.931640625 463.046875 111.931640625 463.046875 105.715820312 487.391601562 c 128,-1,16
 99.5 511.736328125 99.5 511.736328125 99.5 535 c 0,17,18
 99.5 607.8515625 99.5 607.8515625 145.283203125 658.42578125 c 128,-1,19
 191.06640625 709 191.06640625 709 278.5 709 c 0,20,21
 393.5234375 709 393.5234375 709 457.528320312 622.959960938 c 2,22,-1
 464.21875 613.965820312 l 1,23,-1
 454.5 608.33984375 l 1,24,-1
 435.5 597.33984375 l 1,25,-1
 427.65625 592.798828125 l 1,26,-1
 422.365234375 600.186523438 l 2,27,28
 372.36328125 670 372.36328125 670 275.5 670 c 0,29,30
 228.932617188 670 228.932617188 670 188.663085938 642.258789062 c 0,31,32
 168.415039062 628.310546875 168.415039062 628.310546875 155.45703125 600.544921875 c 128,-1,33
 142.5 572.778320312 142.5 572.778320312 142.5 537.279296875 c 128,-1,34
 142.5 501.780273438 142.5 501.780273438 163.095703125 446.209960938 c 128,-1,35
 183.692382812 390.638671875 183.692382812 390.638671875 193.8671875 336 c 1,36,-1
 341.5 336 l 1,37,-1
 341.5 326 l 1,38,-1
 341.5 308 l 1,39,-1
 341.5 298 l 1,40,-1
 196.43359375 298 l 1,41,42
 194.296875 137.348632812 194.296875 137.348632812 123.188476562 34 c 1,43,-1
 481.5 34 l 1,44,-1
 481.5 24 l 1,45,-1
 481.5 0 l 1,46,-1
 481.5 -10 l 1,47,-1
 70.5 -10 l 1,48,-1
 70.5 0 l 1,0,-1
EndSplineSet
EndChar

StartChar: currency
Encoding: 164 164 101
Width: 550
GlyphClass: 2
Flags: W
HStem: 154.006 47.9941<204.056 346.24> 450 45<205.474 346.187>
VStem: 106.489 46.0244<254.586 397.454> 398.514 47<254.587 397.028>
LayerCount: 2
Fore
SplineSet
137.427734375 227.053710938 m 1,0,1
 106.489257812 272.034179688 106.489257812 272.034179688 106.489257812 326.857421875 c 128,-1,2
 106.489257812 381.680664062 106.489257812 381.680664062 141.2578125 429.1171875 c 1,3,-1
 87.375 483 l 1,4,-1
 94.4443359375 490.069335938 l 1,5,-1
 111.444335938 507.069335938 l 1,6,-1
 118.513671875 514.139648438 l 1,7,-1
 172.359375 460.293945312 l 1,8,9
 219.271484375 495 219.271484375 495 272.1484375 495 c 128,-1,10
 325.024414062 495 325.024414062 495 373.330078125 462.955078125 c 1,11,-1
 427.513671875 517.139648438 l 1,12,-1
 434.583984375 510.069335938 l 1,13,-1
 451.583984375 493.069335938 l 1,14,-1
 458.587890625 486.065429688 l 1,15,-1
 405.209960938 431.681640625 l 1,16,17
 445.513671875 384.471679688 445.513671875 384.471679688 445.513671875 328.51953125 c 128,-1,18
 445.513671875 272.567382812 445.513671875 272.567382812 410.641601562 223.01171875 c 1,19,-1
 464.653320312 169 l 1,20,-1
 457.583984375 161.930664062 l 1,21,-1
 439.583984375 143.930664062 l 1,22,-1
 432.513671875 136.860351562 l 1,23,-1
 378.7890625 190.5859375 l 1,24,25
 333.604492188 155.962890625 333.604492188 155.962890625 275.858398438 154.005859375 c 1,26,-1
 275.344726562 154.005859375 l 2,27,28
 216.163085938 154.9921875 216.163085938 154.9921875 168.0390625 194.385742188 c 1,29,-1
 112.958984375 139.305664062 l 1,30,-1
 106.1875 149.462890625 l 2,31,32
 104.84375 151.478515625 104.84375 151.478515625 97.6103515625 158.1953125 c 128,-1,33
 90.3759765625 164.912109375 90.3759765625 164.912109375 88.5634765625 168.537109375 c 2,34,-1
 85.3466796875 174.971679688 l 1,35,-1
 137.427734375 227.053710938 l 1,0,1
188.037109375 413.883789062 m 128,-1,37
 152.513671875 378.822265625 152.513671875 378.822265625 152.513671875 326.443359375 c 128,-1,38
 152.513671875 274.063476562 152.513671875 274.063476562 187.67578125 237.9765625 c 128,-1,39
 222.729492188 202 222.729492188 202 275.033203125 202 c 128,-1,40
 327.336914062 202 327.336914062 202 362.8984375 238.0234375 c 128,-1,41
 398.513671875 274.1015625 398.513671875 274.1015625 398.513671875 326 c 128,-1,42
 398.513671875 377.8984375 398.513671875 377.8984375 362.8984375 413.9765625 c 128,-1,43
 327.3671875 449.969726562 327.3671875 449.969726562 275.604492188 450 c 0,44,36
 223.658203125 449.04296875 223.658203125 449.04296875 188.037109375 413.883789062 c 128,-1,37
EndSplineSet
EndChar

StartChar: yen
Encoding: 165 165 102
Width: 550
GlyphClass: 2
Flags: W
HStem: 182 43<73.0186 253.019 298.019 480.019> 277 43<73.0186 236.649 314.351 480.019>
VStem: 253.019 45<-10 182>
LayerCount: 2
Fore
SplineSet
480.018554688 277 m 1,0,-1
 73.0185546875 277 l 1,1,-1
 73.0185546875 287 l 1,2,-1
 73.0185546875 310 l 1,3,-1
 73.0185546875 320 l 1,4,-1
 236.649414062 320 l 1,5,-1
 38.6494140625 706 l 1,6,-1
 55.0185546875 706 l 1,7,-1
 82.0185546875 706 l 1,8,-1
 88.1494140625 706 l 1,9,-1
 275.99609375 337.0859375 l 1,10,-1
 462.874023438 706 l 1,11,-1
 469.018554688 706 l 1,12,-1
 495.018554688 706 l 1,13,-1
 511.350585938 706 l 1,14,-1
 314.350585938 320 l 1,15,-1
 480.018554688 320 l 1,16,-1
 480.018554688 310 l 1,17,-1
 480.018554688 287 l 1,18,-1
 480.018554688 277 l 1,0,-1
73.0185546875 225 m 1,19,-1
 480.018554688 225 l 1,20,-1
 480.018554688 215 l 1,21,-1
 480.018554688 192 l 1,22,-1
 480.018554688 182 l 1,23,-1
 298.018554688 182 l 1,24,-1
 298.018554688 -10 l 1,25,-1
 288.018554688 -10 l 1,26,-1
 263.018554688 -10 l 1,27,-1
 253.018554688 -10 l 1,28,-1
 253.018554688 182 l 1,29,-1
 73.0185546875 182 l 1,30,-1
 73.0185546875 192 l 1,31,-1
 73.0185546875 215 l 1,32,-1
 73.0185546875 225 l 1,19,-1
EndSplineSet
EndChar

StartChar: brokenbar
Encoding: 166 166 103
Width: 550
GlyphClass: 2
Flags: W
VStem: 255.5 39<-172 261 295 726>
LayerCount: 2
Fore
SplineSet
284.5 295 m 1,0,-1
 265.5 295 l 1,1,-1
 255.5 295 l 1,2,-1
 255.5 726 l 1,3,-1
 265.5 726 l 1,4,-1
 284.5 726 l 1,5,-1
 294.5 726 l 1,6,-1
 294.5 295 l 1,7,-1
 284.5 295 l 1,0,-1
265.5 261 m 1,8,-1
 284.5 261 l 1,9,-1
 294.5 261 l 1,10,-1
 294.5 -172 l 1,11,-1
 284.5 -172 l 1,12,-1
 265.5 -172 l 1,13,-1
 255.5 -172 l 1,14,-1
 255.5 261 l 1,15,-1
 265.5 261 l 1,8,-1
EndSplineSet
EndChar

StartChar: section
Encoding: 167 167 104
Width: 550
GlyphClass: 2
Flags: W
HStem: -90 43<171.664 349.67> 669 44<189.754 355.707>
VStem: 91.5 44<294.862 415.569> 106.5 45<510.896 631.301> 397.5 44<-3.35868 128.378> 413.5 45<209.785 341.91>
LayerCount: 2
Fore
SplineSet
129.78515625 1.7763671875 m 2,0,1
 190.038085938 -47 190.038085938 -47 255.651367188 -47 c 128,-1,2
 321.265625 -47 321.265625 -47 359.3828125 -19.4453125 c 128,-1,3
 397.5 8.109375 397.5 8.109375 397.5 67 c 0,4,5
 397.5 113.205078125 397.5 113.205078125 362.041015625 141.666015625 c 0,6,7
 327.828125 169.125976562 327.828125 169.125976562 254.061523438 195.607421875 c 0,8,9
 162.109375 229.323242188 162.109375 229.323242188 126.8046875 263.0234375 c 128,-1,10
 91.5 296.723632812 91.5 296.723632812 91.5 358.374023438 c 128,-1,11
 91.5 420.025390625 91.5 420.025390625 148.453125 468.65234375 c 1,12,13
 106.5 512 106.5 512 106.5 564 c 0,14,15
 106.5 631.327148438 106.5 631.327148438 150.0234375 672.1640625 c 128,-1,16
 193.545898438 713 193.545898438 713 265.5 713 c 0,17,18
 356.051757812 713 356.051757812 713 417.803710938 662.760742188 c 2,19,-1
 425.374023438 656.602539062 l 1,20,-1
 419.416992188 648.893554688 l 1,21,-1
 402.416992188 626.893554688 l 1,22,-1
 396.057617188 618.663085938 l 1,23,-1
 388.090820312 625.326171875 l 2,24,25
 335.872070312 669 335.872070312 669 265.5 669 c 0,26,27
 213.325195312 669 213.325195312 669 182.413085938 641.26953125 c 128,-1,28
 151.5 613.5390625 151.5 613.5390625 151.5 569 c 0,29,30
 151.5 552.71875 151.5 552.71875 159.932617188 528.825195312 c 0,31,32
 162.229492188 522.318359375 162.229492188 522.318359375 170.033203125 514.055664062 c 128,-1,33
 177.8359375 505.793945312 177.8359375 505.793945312 182.33984375 500.83984375 c 128,-1,34
 186.84375 495.884765625 186.84375 495.884765625 199.258789062 488.72265625 c 128,-1,35
 211.674804688 481.559570312 211.674804688 481.559570312 216.916992188 478.223632812 c 128,-1,36
 222.159179688 474.887695312 222.159179688 474.887695312 238.096679688 468.125976562 c 128,-1,37
 254.03515625 461.364257812 254.03515625 461.364257812 258.44140625 459.895507812 c 128,-1,38
 262.848632812 458.426757812 262.848632812 458.426757812 281.348632812 451.426757812 c 0,39,40
 298.5234375 444.927734375 298.5234375 444.927734375 302.903320312 443.405273438 c 0,41,42
 373.698242188 417.754882812 373.698242188 417.754882812 416.098632812 380.124023438 c 128,-1,43
 458.5 342.493164062 458.5 342.493164062 458.5 279 c 0,44,45
 458.5 208.493164062 458.5 208.493164062 407.4609375 162.725585938 c 1,46,47
 441.5 118.795898438 441.5 118.795898438 441.5 65 c 0,48,49
 441.5 -4.48828125 441.5 -4.48828125 393.399414062 -47.244140625 c 128,-1,50
 345.298828125 -90 345.298828125 -90 258.5 -90 c 0,51,52
 216.6015625 -90 216.6015625 -90 172.848632812 -72.8115234375 c 128,-1,53
 129.09765625 -55.623046875 129.09765625 -55.623046875 100.708984375 -29.337890625 c 2,54,-1
 93.0830078125 -22.27734375 l 1,55,-1
 100.430664062 -14.9306640625 l 1,56,-1
 116.430664062 1.0693359375 l 1,57,-1
 122.794921875 7.4345703125 l 1,58,-1
 129.78515625 1.7763671875 l 2,0,1
413.5 278 m 0,59,60
 413.5 327.09375 413.5 327.09375 379.890625 353.084960938 c 0,61,62
 343.625976562 381.129882812 343.625976562 381.129882812 268.0859375 408.598632812 c 0,63,64
 230.846679688 421.966796875 230.846679688 421.966796875 186.576171875 445.125 c 1,65,66
 135.5 403.862304688 135.5 403.862304688 135.5 357 c 0,67,68
 135.5 309.65625 135.5 309.65625 165.955078125 287.032226562 c 0,69,70
 182.69140625 274.598632812 182.69140625 274.598632812 196.618164062 267.875976562 c 128,-1,71
 210.543945312 261.153320312 210.543945312 261.153320312 233.89453125 251.713867188 c 0,72,73
 333.359375 211.504882812 333.359375 211.504882812 372.625976562 189.970703125 c 1,74,75
 413.5 223 413.5 223 413.5 278 c 0,59,60
EndSplineSet
EndChar

StartChar: dieresis
Encoding: 168 168 105
Width: 550
GlyphClass: 2
Flags: W
HStem: 614 56<169 227 323 381>
VStem: 169 58<614 670> 323 58<614 670>
LayerCount: 2
Fore
SplineSet
323 624 m 1,0,-1
 323 660 l 1,1,-1
 323 670 l 1,2,-1
 333 670 l 1,3,-1
 371 670 l 1,4,-1
 381 670 l 1,5,-1
 381 660 l 1,6,-1
 381 624 l 1,7,-1
 381 614 l 1,8,-1
 371 614 l 1,9,-1
 333 614 l 1,10,-1
 323 614 l 1,11,-1
 323 624 l 1,0,-1
169 624 m 1,12,-1
 169 660 l 1,13,-1
 169 670 l 1,14,-1
 179 670 l 1,15,-1
 217 670 l 1,16,-1
 227 670 l 1,17,-1
 227 660 l 1,18,-1
 227 624 l 1,19,-1
 227 614 l 1,20,-1
 217 614 l 1,21,-1
 179 614 l 1,22,-1
 169 614 l 1,23,-1
 169 624 l 1,12,-1
EndSplineSet
EndChar

StartChar: copyright
Encoding: 169 169 106
Width: 550
GlyphClass: 2
Flags: W
HStem: 1 40<170.284 380.507> 121 43<208.724 342.347> 519 43<207.502 342.439> 651 41<169.676 382.029>
VStem: 10 42<158.506 533.665> 124 44<205.688 477.798> 498 42<157.68 537.786>
LayerCount: 2
Fore
SplineSet
81.87890625 619.018554688 m 0,0,1
 154 692 154 692 275.967773438 692 c 128,-1,2
 398 692 398 692 469.04296875 621.595703125 c 128,-1,3
 540 551 540 551 540 439 c 2,4,-1
 540 261 l 2,5,6
 540 143 540 143 467.491210938 71.853515625 c 0,7,8
 395 1 395 1 277 1 c 0,9,10
 149 1 149 1 79.333984375 75.025390625 c 0,11,12
 10 149 10 149 10 261 c 2,13,-1
 10 439 l 2,14,15
 10 546 10 546 81.87890625 619.018554688 c 0,0,1
439.401367188 591.958984375 m 128,-1,17
 381 651 381 651 276.01171875 651 c 128,-1,18
 171 651 171 651 111.625976562 590.487304688 c 0,19,20
 52 530 52 530 52 437 c 2,21,-1
 52 256 l 2,22,23
 52 164 52 164 110.15234375 102.48828125 c 0,24,25
 168 41 168 41 278 41 c 0,26,27
 382 41 382 41 439.7890625 101.424804688 c 0,28,29
 498 162 498 162 498 262 c 2,30,-1
 498 437 l 2,31,16
 498 533 498 533 439.401367188 591.958984375 c 128,-1,17
278 121 m 4,32,33
 202 121 202 121 163.204101562 166.649414062 c 4,34,35
 124 212 124 212 124 281 c 6,36,-1
 124 405 l 6,37,38
 124 471 124 471 165.284179688 516.426757812 c 4,39,40
 207 562 207 562 278 562 c 4,41,42
 323 562 323 562 358.076171875 541.115234375 c 4,43,44
 394.204534045 518.874085848 394.204534045 518.874085848 412.84375 483.668945312 c 6,45,-1
 417.303710938 475.245117188 l 5,46,-1
 377.8515625 451.93359375 l 5,47,-1
 373.049804688 461.537109375 l 6,48,49
 360 487 360 487 335.141601562 503.057617188 c 4,50,51
 310 519 310 519 279 519 c 4,52,53
 224 519 224 519 196.249023438 487.10546875 c 4,54,55
 168 455 168 455 168 404 c 6,56,-1
 168 279 l 6,57,58
 168 229 168 229 196.270507812 196.374023438 c 4,59,60
 225 164 225 164 279 164 c 4,61,62
 342.850654971 164 342.850654971 164 374.076171875 225.515625 c 6,63,-1
 378.346679688 233.928710938 l 5,64,-1
 419.350585938 216.1015625 l 5,65,-1
 415.091796875 206.833984375 l 6,66,67
 397 167 397 167 360.333984375 144.041992188 c 4,68,69
 324 121 324 121 278 121 c 4,32,33
EndSplineSet
EndChar

StartChar: ordfeminine
Encoding: 170 170 107
Width: 550
GlyphClass: 2
Flags: W
HStem: 261 39<197.754 343.417> 429 30.1074<198.56 377> 565 39<204.486 351.508>
VStem: 132 41<321.16 410.386> 377 41<265.786 294.55 329.627 429 459.107 540.318>
LayerCount: 2
Fore
SplineSet
254 459.107421875 m 2,0,-1
 377 459.107421875 l 1,1,2
 377 464.586914062 377 464.586914062 377 484.233398438 c 2,3,4
 377 529.112304688 377 529.112304688 348.276367188 548.4140625 c 0,5,6
 324.421875 565 324.421875 565 280 565 c 0,7,8
 223.643554688 565 223.643554688 565 182.4296875 530.34375 c 2,9,10
 178.663085938 517.17578125 178.663085938 517.17578125 174.895507812 524.0078125 c 1,11,12
 171.66796875 517.731445312 171.66796875 517.731445312 168.44140625 531.456054688 c 1,13,14
 161.94140625 528.956054688 161.94140625 528.956054688 155.44140625 546.456054688 c 1,15,16
 152.1796875 540.219726562 152.1796875 540.219726562 148.916992188 553.983398438 c 1,17,18
 152.674804688 547.260742188 152.674804688 547.260742188 156.431640625 560.538085938 c 2,19,20
 206.25390625 604 206.25390625 604 282 604 c 0,21,22
 341.12109375 604 341.12109375 604 374.791992188 580.697265625 c 0,23,24
 418 550.794921875 418 550.794921875 418 485 c 2,25,26
 418 370.504882812 418 370.504882812 418 265.786132812 c 1,27,-1
 408 265.786132812 l 1,28,-1
 387 265.786132812 l 1,29,-1
 377 265.786132812 l 1,30,31
 377 270.163085938 377 270.163085938 377 275.359375 c 1,32,33
 377 283.930664062 377 283.930664062 377 294.549804688 c 1,34,35
 338.990234375 261 338.990234375 261 264 261 c 0,36,37
 209.009765625 261 209.009765625 261 170.504882812 285.452148438 c 128,-1,38
 132 309.904296875 132 309.904296875 132 360.537109375 c 0,39,40
 132 406.575195312 132 406.575195312 164.171875 432.841796875 c 128,-1,41
 196.34375 459.107421875 196.34375 459.107421875 254 459.107421875 c 2,0,-1
377 380 m 2,42,-1
 377 429 l 1,43,-1
 258 429 l 2,44,45
 217.3828125 429 217.3828125 429 195.19140625 412.030273438 c 128,-1,46
 173 395.059570312 173 395.059570312 173 364.692382812 c 128,-1,47
 173 334.325195312 173 334.325195312 198.524414062 317.163085938 c 128,-1,48
 224.047851562 300 224.047851562 300 269.96484375 300 c 128,-1,49
 315.881835938 300 315.881835938 300 346.44140625 321.122070312 c 128,-1,50
 377 342.243164062 377 342.243164062 377 380 c 2,42,-1
EndSplineSet
EndChar

StartChar: guillemotleft
Encoding: 171 171 108
Width: 550
GlyphClass: 2
Flags: W
VStem: 131.121 287.758
LayerCount: 2
Fore
SplineSet
283.194335938 36 m 1,0,-1
 254.194335938 36 l 1,1,-1
 248.852539062 36 l 1,2,-1
 131.12109375 212.06640625 l 1,3,-1
 250.923828125 387 l 1,4,-1
 256.194335938 387 l 1,5,-1
 283.194335938 387 l 1,6,-1
 301.87890625 387 l 1,7,-1
 185.201171875 211.983398438 l 1,8,-1
 301.81640625 36 l 1,9,-1
 283.194335938 36 l 1,0,-1
400.194335938 36 m 1,10,-1
 371.194335938 36 l 1,11,-1
 365.852539062 36 l 1,12,-1
 248.12109375 212.06640625 l 1,13,-1
 367.923828125 387 l 1,14,-1
 373.194335938 387 l 1,15,-1
 400.194335938 387 l 1,16,-1
 418.87890625 387 l 1,17,-1
 302.201171875 211.983398438 l 1,18,-1
 418.81640625 36 l 1,19,-1
 400.194335938 36 l 1,10,-1
EndSplineSet
EndChar

StartChar: logicalnot
Encoding: 172 172 109
Width: 550
GlyphClass: 2
Flags: W
HStem: 251 44<65.5 441.5>
VStem: 441.5 43<55 251>
LayerCount: 2
Fore
SplineSet
484.5 295 m 1,0,-1
 484.5 55 l 1,1,-1
 474.5 55 l 1,2,-1
 451.5 55 l 1,3,-1
 441.5 55 l 1,4,-1
 441.5 251 l 1,5,-1
 65.5 251 l 1,6,-1
 65.5 261 l 1,7,-1
 65.5 285 l 1,8,-1
 65.5 295 l 1,9,-1
 484.5 295 l 1,0,-1
EndSplineSet
EndChar

StartChar: sfthyphen
Encoding: 173 173 110
Width: 550
GlyphClass: 2
Flags: W
HStem: 243 46<139.5 410.5>
VStem: 139.5 271<243 289>
LayerCount: 2
Fore
SplineSet
139.5 253 m 1,0,-1
 139.5 279 l 1,1,-1
 139.5 289 l 1,2,-1
 410.5 289 l 1,3,-1
 410.5 279 l 1,4,-1
 410.5 253 l 1,5,-1
 410.5 243 l 1,6,-1
 139.5 243 l 1,7,-1
 139.5 253 l 1,0,-1
EndSplineSet
EndChar

StartChar: registered
Encoding: 174 174 111
Width: 550
GlyphClass: 2
Flags: W
HStem: 270 36<199.861 350.683> 473 36<231 285.939> 588 36<231 329.463> 678 36<199.936 351.057>
VStem: 64 41<400.883 583.117> 193 38<360 473 509 588> 343 39<518.004 579.918> 446 40<403.152 581.281>
LayerCount: 2
Fore
SplineSet
125.282877359 649.919123081 m 128,-1,1
 186.737488831 714 186.737488831 714 276.013323038 714 c 128,-1,2
 365.289157246 714 365.289157246 714 425.644578623 650.495600116 c 128,-1,3
 486 586.991200233 486 586.991200233 486 492.49938104 c 128,-1,4
 486 398.007561847 486 398.007561847 425.143946007 334.003780924 c 128,-1,5
 364.287892014 270 364.287892014 270 275.512690422 270 c 128,-1,6
 186.737488831 270 186.737488831 270 125.282877359 334.080876919 c 128,-1,7
 64 397.982680661 64 397.982680661 64 492 c 128,-1,0
 64 586.017319339 64 586.017319339 125.282877359 649.919123081 c 128,-1,1
275 678 m 128,-1,9
 202.413267573 678 202.413267573 678 153.706633786 624.564566817 c 128,-1,10
 105 571.129133634 105 571.129133634 105 492 c 128,-1,11
 105 412.870866366 105 412.870866366 153.706633786 359.435433183 c 128,-1,12
 202.413267573 306 202.413267573 306 275 306 c 128,-1,13
 347.615488655 306 347.615488655 306 396.807744328 359.449277798 c 128,-1,14
 446 412.898555596 446 412.898555596 446 492 c 128,-1,15
 446 571.101444404 446 571.101444404 396.807744328 624.550722202 c 128,-1,8
 347.615488655 678 347.615488655 678 275 678 c 128,-1,9
231 473 m 1,16,-1
 231 360 l 1,17,-1
 221 360 l 1,18,-1
 203 360 l 1,19,-1
 193 360 l 1,20,-1
 193 624 l 1,21,-1
 299 624 l 2,22,23
 334.604345031 624 334.604345031 624 358.302172515 604.348143061 c 128,-1,24
 382 584.696286123 382 584.696286123 382 552.987256757 c 128,-1,25
 382 521.278227391 382 521.278227391 363.565809689 499.963694844 c 0,26,27
 349.34983852 483.52647818 349.34983852 483.52647818 326.983876325 477.002895767 c 1,28,-1
 388.564347782 360 l 1,29,-1
 372 360 l 1,30,-1
 351 360 l 1,31,-1
 344.939468885 360 l 1,32,-1
 285.939468885 473 l 1,33,-1
 231 473 l 1,16,-1
231 509 m 1,34,-1
 294 509 l 2,35,36
 317.347498193 509 317.347498193 509 330.173749097 519.8221492 c 128,-1,37
 343 530.644298399 343 530.644298399 343 549.776700133 c 128,-1,38
 343 568.909101866 343 568.909101866 329.875007533 578.454550933 c 128,-1,39
 316.750015065 588 316.750015065 588 295 588 c 2,40,-1
 231 588 l 1,41,-1
 231 509 l 1,34,-1
EndSplineSet
EndChar

StartChar: macron
Encoding: 175 175 112
Width: 550
GlyphClass: 2
Flags: W
HStem: 590 44<141 409>
VStem: 141 268<590 634>
LayerCount: 2
Fore
SplineSet
141 600 m 1,0,-1
 141 624 l 1,1,-1
 141 634 l 1,2,-1
 409 634 l 1,3,-1
 409 624 l 1,4,-1
 409 600 l 1,5,-1
 409 590 l 1,6,-1
 141 590 l 1,7,-1
 141 600 l 1,0,-1
EndSplineSet
EndChar

StartChar: degree
Encoding: 176 176 113
Width: 550
GlyphClass: 2
Flags: W
HStem: 455 41<220.078 331.094> 668 40<220.962 328.703>
VStem: 148 43<524.325 639.873> 359 43<522.945 639.087>
LayerCount: 2
Fore
SplineSet
275 455 m 128,-1,1
 221.8606375 455 221.8606375 455 184.93031875 491.93031875 c 128,-1,2
 148 528.8606375 148 528.8606375 148 581.521422594 c 128,-1,3
 148 634.182207688 148 634.182207688 185.482506203 671.121489164 c 128,-1,4
 222.903348081 708 222.903348081 708 276.5434232 708 c 128,-1,5
 330.183498319 708 330.183498319 708 366.123041323 671.515918466 c 128,-1,6
 402 635.095369506 402 635.095369506 402 582 c 128,-1,7
 402 528.8606375 402 528.8606375 365.06968125 491.93031875 c 128,-1,0
 328.1393625 455 328.1393625 455 275 455 c 128,-1,1
334.366431481 642.994784171 m 128,-1,9
 309.807737364 668 309.807737364 668 274.527033424 668 c 128,-1,10
 239.246329484 668 239.246329484 668 215.198005982 643.06099785 c 128,-1,11
 191 617.966769424 191 617.966769424 191 582 c 128,-1,12
 191 546.033230576 191 546.033230576 215.198005982 520.93900215 c 128,-1,13
 239.246329484 496 239.246329484 496 275 496 c 128,-1,14
 310.91529845 496 310.91529845 496 334.997205078 519.635945394 c 128,-1,15
 359 543.194244114 359 543.194244114 359 580.553788351 c 128,-1,8
 359 617.913332588 359 617.913332588 334.366431481 642.994784171 c 128,-1,9
EndSplineSet
EndChar

StartChar: plusminus
Encoding: 177 177 114
Width: 550
GlyphClass: 2
Flags: W
HStem: -10 44<64.5 485.5> 251 44<64.5 252.5 295.5 483.5>
VStem: 252.5 43<55 251 295 488>
LayerCount: 2
Fore
SplineSet
64.5 0 m 1,0,-1
 64.5 24 l 1,1,-1
 64.5 34 l 1,2,-1
 485.5 34 l 1,3,-1
 485.5 24 l 1,4,-1
 485.5 0 l 1,5,-1
 485.5 -10 l 1,6,-1
 64.5 -10 l 1,7,-1
 64.5 0 l 1,0,-1
295.5 295 m 1,8,-1
 483.5 295 l 1,9,-1
 483.5 285 l 1,10,-1
 483.5 261 l 1,11,-1
 483.5 251 l 1,12,-1
 295.5 251 l 1,13,-1
 295.5 55 l 1,14,-1
 285.5 55 l 1,15,-1
 262.5 55 l 1,16,-1
 252.5 55 l 1,17,-1
 252.5 251 l 1,18,-1
 64.5 251 l 1,19,-1
 64.5 261 l 1,20,-1
 64.5 285 l 1,21,-1
 64.5 295 l 1,22,-1
 252.5 295 l 1,23,-1
 252.5 488 l 1,24,-1
 262.5 488 l 1,25,-1
 285.5 488 l 1,26,-1
 295.5 488 l 1,27,-1
 295.5 295 l 1,8,-1
EndSplineSet
EndChar

StartChar: twosuperior
Encoding: 178 178 115
Width: 550
GlyphClass: 2
Flags: W
HStem: 356 41<203.524 406> 756 39<218.923 339.549>
VStem: 364 43<626.534 734.478>
LayerCount: 2
Fore
SplineSet
278 795 m 0,0,1
 338.895507812 795 338.895507812 795 372.947265625 763.694335938 c 128,-1,2
 407 732.387695312 407 732.387695312 407 685.377929688 c 128,-1,3
 407 638.3671875 407 638.3671875 373.64453125 598.555664062 c 2,4,-1
 203.524414062 397 l 1,5,-1
 406 397 l 1,6,-1
 406 387 l 1,7,-1
 406 366 l 1,8,-1
 406 356 l 1,9,-1
 143 356 l 1,10,-1
 143 366 l 1,11,-1
 143 386 l 1,12,-1
 143 389.658203125 l 1,13,-1
 342.405273438 625.502929688 l 2,14,15
 364 650.696289062 364 650.696289062 364 683.096679688 c 128,-1,16
 364 715.497070312 364 715.497070312 341.107421875 735.749023438 c 128,-1,17
 318.21484375 756 318.21484375 756 277 756 c 0,18,19
 247.05078125 756 247.05078125 756 223.708007812 740.288085938 c 128,-1,20
 200.365234375 724.577148438 200.365234375 724.577148438 191.45703125 698.7421875 c 2,21,-1
 188.55859375 690.338867188 l 1,22,-1
 179.869140625 692.227539062 l 1,23,-1
 156.869140625 697.227539062 l 1,24,-1
 145.89453125 699.614257812 l 1,25,-1
 149.538085938 710.241210938 l 2,26,27
 162.654296875 748.497070312 162.654296875 748.497070312 198.342773438 771.748046875 c 128,-1,28
 234.030273438 795 234.030273438 795 278 795 c 0,0,1
EndSplineSet
EndChar

StartChar: threesuperior
Encoding: 179 179 116
Width: 550
GlyphClass: 2
Flags: W
HStem: 352 40<202.505 332.04> 570 40<229.525 335.684> 701.173 21G<176.204 187.979> 759 39<210.524 335.28>
VStem: 359.525 44<631.293 737.572> 367.525 43<424.542 543.246>
LayerCount: 2
Fore
SplineSet
271.525390625 392 m 0,0,1
 310.7265625 392 310.7265625 392 339.125976562 417.244140625 c 128,-1,2
 367.525390625 442.48828125 367.525390625 442.48828125 367.525390625 482.647460938 c 128,-1,3
 367.525390625 522.805664062 367.525390625 522.805664062 343.522460938 546.364257812 c 128,-1,4
 319.440429688 570 319.440429688 570 282.525390625 570 c 2,5,-1
 239.525390625 570 l 1,6,-1
 229.525390625 570 l 1,7,-1
 229.525390625 580 l 1,8,-1
 229.525390625 600 l 1,9,-1
 229.525390625 610 l 1,10,-1
 239.525390625 610 l 1,11,-1
 277.525390625 610 l 2,12,13
 313.740234375 610 313.740234375 610 336.6328125 630.250976562 c 128,-1,14
 359.525390625 650.502929688 359.525390625 650.502929688 359.525390625 684 c 128,-1,15
 359.525390625 717.619140625 359.525390625 717.619140625 337.07421875 738.309570312 c 128,-1,16
 314.623046875 759 314.623046875 759 268.525390625 759 c 0,17,18
 242.203125 759 242.203125 759 218.98046875 745.6015625 c 128,-1,19
 195.756835938 732.204101562 195.756835938 732.204101562 187.978515625 709.731445312 c 2,20,-1
 185.015625 701.172851562 l 1,21,-1
 176.204101562 703.271484375 l 1,22,-1
 155.204101562 708.271484375 l 1,23,-1
 143.696289062 711.01171875 l 1,24,-1
 148.315429688 721.8984375 l 2,25,26
 163.561523438 757.836914062 163.561523438 757.836914062 196.125976562 777.918945312 c 128,-1,27
 228.690429688 798 228.690429688 798 271.525390625 798 c 0,28,29
 332.432617188 798 332.432617188 798 367.978515625 765.1875 c 128,-1,30
 403.525390625 732.375976562 403.525390625 732.375976562 403.525390625 686 c 0,31,32
 403.525390625 657.489257812 403.525390625 657.489257812 387.346679688 627.288085938 c 0,33,34
 375.529296875 605.229492188 375.529296875 605.229492188 353.095703125 591.439453125 c 1,35,36
 379.4921875 576.614257812 379.4921875 576.614257812 392.919921875 550.573242188 c 0,37,38
 410.525390625 516.427734375 410.525390625 516.427734375 410.525390625 485 c 0,39,40
 410.525390625 428.66015625 410.525390625 428.66015625 369.49609375 390.330078125 c 128,-1,41
 328.466796875 352 328.466796875 352 272.525390625 352 c 0,42,43
 171.79296875 352 171.79296875 352 143.256835938 422.2421875 c 2,44,-1
 139.474609375 431.551757812 l 1,45,-1
 148.817382812 435.2890625 l 1,46,-1
 168.817382812 443.2890625 l 1,47,-1
 178.166992188 447.029296875 l 1,48,-1
 181.841796875 437.638671875 l 2,49,50
 189.515625 418.02734375 189.515625 418.02734375 213.299804688 405.013671875 c 128,-1,51
 237.083007812 392 237.083007812 392 271.525390625 392 c 0,0,1
EndSplineSet
EndChar

StartChar: acute
Encoding: 180 180 117
Width: 550
GlyphClass: 2
Flags: W
HStem: 566.113 176.043
VStem: 203.528 142.943
LayerCount: 2
Fore
SplineSet
227.665039062 570.169921875 m 1,0,-1
 212.665039062 578.169921875 l 1,1,-1
 203.528320312 583.04296875 l 1,2,-1
 295.41015625 742.15625 l 1,3,-1
 303.823242188 737.950195312 l 1,4,-1
 335.823242188 721.950195312 l 1,5,-1
 346.471679688 716.625976562 l 1,6,-1
 235.272460938 566.11328125 l 1,7,-1
 227.665039062 570.169921875 l 1,0,-1
EndSplineSet
EndChar

StartChar: mu
Encoding: 181 181 118
AltUni2: 0003bc.ffffffff.0
Width: 550
GlyphClass: 2
Flags: W
HStem: -25 62<190.97 353.98>
VStem: 68.5 65<-220 21.4463 91.9099 516> 418.5 63<-20 30.084 103.238 516>
LayerCount: 2
Fore
SplineSet
113.5 -220 m 1,0,-1
 88.5 -220 l 1,1,-1
 78.5 -220 l 1,2,-1
 68.5 -220 l 1,3,-1
 68.5 516 l 1,4,-1
 78.5 516 l 1,5,-1
 88.5 516 l 1,6,-1
 113.5 516 l 1,7,-1
 123.5 516 l 1,8,-1
 133.5 516 l 1,9,-1
 133.5 169 l 2,10,11
 133.5 106.107421875 133.5 106.107421875 173.237304688 71.5537109375 c 128,-1,12
 212.973632812 37 212.973632812 37 275.47265625 37 c 128,-1,13
 337.970703125 37 337.970703125 37 378.235351562 79.015625 c 128,-1,14
 418.5 121.030273438 418.5 121.030273438 418.5 190 c 2,15,-1
 418.5 516 l 1,16,-1
 428.5 516 l 1,17,-1
 438.5 516 l 1,18,-1
 461.5 516 l 1,19,-1
 471.5 516 l 1,20,-1
 481.5 516 l 1,21,-1
 481.5 -20 l 1,22,-1
 471.5 -20 l 1,23,-1
 461.5 -20 l 1,24,-1
 438.5 -20 l 1,25,-1
 428.5 -20 l 1,26,-1
 418.5 -20 l 1,27,-1
 418.5 -10 l 1,28,-1
 418.5 30.083984375 l 1,29,30
 400.477539062 11.8818359375 400.477539062 11.8818359375 377.58203125 0.1796875 c 0,31,32
 328.318359375 -25 328.318359375 -25 272.536132812 -25 c 128,-1,33
 216.825195312 -25 216.825195312 -25 171.161132812 -2.443359375 c 0,34,35
 150.438476562 7.7939453125 150.438476562 7.7939453125 133.5 21.4462890625 c 1,36,-1
 133.5 -220 l 1,37,-1
 123.5 -220 l 1,38,-1
 113.5 -220 l 1,0,-1
EndSplineSet
EndChar

StartChar: paragraph
Encoding: 182 182 119
Width: 550
GlyphClass: 2
Flags: W
HStem: 693 51<286 373 425 497>
VStem: 53 233<461.255 654.594> 234 52<-91 367.205> 373 52<-91 693>
LayerCount: 2
Fore
SplineSet
425 693 m 1,0,-1
 425 -91 l 1,1,-1
 415 -91 l 1,2,-1
 383 -91 l 1,3,-1
 373 -91 l 1,4,-1
 373 693 l 1,5,-1
 286 693 l 1,6,-1
 286 -91 l 1,7,-1
 276 -91 l 1,8,-1
 244 -91 l 1,9,-1
 234 -91 l 1,10,-1
 234 367.205223301 l 1,11,12
 160.569710387 370.246354715 160.569710387 370.246354715 108.75608031 417.618816499 c 0,13,14
 53 468.595804211 53 468.595804211 53 558 c 0,15,16
 53 639.924097563 53 639.924097563 101.320954703 691.962048781 c 128,-1,17
 149.641909406 744 149.641909406 744 244 744 c 2,18,-1
 497 744 l 1,19,-1
 497 734 l 1,20,-1
 497 703 l 1,21,-1
 497 693 l 1,22,-1
 425 693 l 1,0,-1
EndSplineSet
EndChar

StartChar: periodcentered
Encoding: 183 183 120
Width: 550
GlyphClass: 2
Flags: W
HStem: 228 67<244.5 305.5>
VStem: 244.5 61<228 295>
LayerCount: 2
Fore
SplineSet
295.5 228 m 1,0,-1
 254.5 228 l 1,1,-1
 244.5 228 l 1,2,-1
 244.5 238 l 1,3,-1
 244.5 285 l 1,4,-1
 244.5 295 l 1,5,-1
 254.5 295 l 1,6,-1
 295.5 295 l 1,7,-1
 305.5 295 l 1,8,-1
 305.5 285 l 1,9,-1
 305.5 238 l 1,10,-1
 305.5 228 l 1,11,-1
 295.5 228 l 1,0,-1
EndSplineSet
EndChar

StartChar: cedilla
Encoding: 184 184 121
Width: 550
GlyphClass: 2
Flags: W
HStem: -196 41<194.337 307.983>
VStem: 317.354 46<-146.816 -87.2486>
LayerCount: 2
Fore
SplineSet
363.354492188 -119 m 0,0,1
 363.354492188 -148.276367188 363.354492188 -148.276367188 338.256835938 -172.233398438 c 128,-1,2
 313.358398438 -196 313.358398438 -196 261.354492188 -196 c 0,3,4
 226.36328125 -196 226.36328125 -196 195.538085938 -183.244140625 c 2,5,-1
 186.645507812 -179.565429688 l 1,6,-1
 189.967773438 -170.546875 l 1,7,-1
 196.967773438 -151.546875 l 1,8,-1
 200.35546875 -142.3515625 l 1,9,-1
 209.612304688 -145.54296875 l 2,10,11
 237.036132812 -155 237.036132812 -155 261.354492188 -155 c 128,-1,12
 285.728515625 -155 285.728515625 -155 302.952148438 -145.284179688 c 0,13,14
 317.354492188 -137.159179688 317.354492188 -137.159179688 317.354492188 -118.010742188 c 128,-1,15
 317.354492188 -98.861328125 317.354492188 -98.861328125 297.479492188 -87.7314453125 c 0,16,17
 274.745117188 -75 274.745117188 -75 241.354492188 -75 c 2,18,-1
 237.849609375 -75 l 1,19,-1
 235.115234375 -72.8125 l 1,20,-1
 230.115234375 -68.8125 l 1,21,-1
 224.71484375 -64.4931640625 l 1,22,-1
 250.07421875 14 l 1,23,-1
 257.354492188 14 l 1,24,-1
 279.354492188 14 l 1,25,-1
 293.319335938 14 l 1,26,-1
 288.825195312 0.783203125 l 1,27,-1
 275.822265625 -37.4599609375 l 1,28,29
 309.8359375 -42.2177734375 309.8359375 -42.2177734375 330.762695312 -56.015625 c 0,30,31
 363.354492188 -77.5048828125 363.354492188 -77.5048828125 363.354492188 -119 c 0,0,1
EndSplineSet
EndChar

StartChar: onesuperior
Encoding: 185 185 122
Width: 550
GlyphClass: 2
Flags: W
HStem: 698.596 21G<202 246.889>
VStem: 303 45<356 743.596>
LayerCount: 2
Fore
SplineSet
303 356 m 1,0,-1
 303 743.595703125 l 1,1,-1
 202 698.595703125 l 1,2,-1
 202 714 l 1,3,-1
 202 739 l 1,4,-1
 202 745.461914062 l 1,5,-1
 311.846679688 795 l 1,6,-1
 314 795 l 1,7,-1
 336 795 l 1,8,-1
 346 795 l 1,9,-1
 346 399 l 1,10,-1
 348 399 l 1,11,-1
 348 389 l 1,12,-1
 348 366 l 1,13,-1
 348 356 l 1,14,-1
 338 356 l 1,15,-1
 313 356 l 1,16,-1
 303 356 l 1,0,-1
EndSplineSet
EndChar

StartChar: ordmasculine
Encoding: 186 186 123
Width: 550
GlyphClass: 2
Flags: W
HStem: 259 41<207.607 346.125> 565 39<209.916 340.893>
VStem: 126.5 42<340.873 522.578> 382.5 41<336.675 521.397>
LayerCount: 2
Fore
SplineSet
167.3359375 560.4765625 m 0,0,1
 208.172851562 604 208.172851562 604 276.5 604 c 0,2,3
 358.026367188 604 358.026367188 604 394.819335938 547.6015625 c 0,4,5
 423.5 505.111328125 423.5 505.111328125 423.5 430.271484375 c 128,-1,6
 423.5 355.430664062 423.5 355.430664062 394.588867188 313.162109375 c 0,7,8
 357.54296875 259 357.54296875 259 275.198242188 259 c 128,-1,9
 192.852539062 259 192.852539062 259 155.567382812 314.49609375 c 0,10,11
 126.5 357.759765625 126.5 357.759765625 126.5 434.189453125 c 0,12,13
 126.5 518.3515625 126.5 518.3515625 167.3359375 560.4765625 c 0,0,1
382.5 430.181640625 m 0,14,15
 382.5 490.833984375 382.5 490.833984375 361.091796875 523.736328125 c 0,16,17
 335.391601562 565 335.391601562 565 275.899414062 565 c 128,-1,18
 216.40625 565 216.40625 565 190.229492188 524.236328125 c 0,19,20
 168.5 491.844726562 168.5 491.844726562 168.5 431.877929688 c 128,-1,21
 168.5 371.911132812 168.5 371.911132812 190.069335938 339.262695312 c 0,22,23
 216.006835938 300 216.006835938 300 275.5 300 c 0,24,25
 326.313476562 300 326.313476562 300 354.374023438 327.29296875 c 128,-1,26
 382.5 354.650390625 382.5 354.650390625 382.5 430.181640625 c 0,14,15
EndSplineSet
EndChar

StartChar: guillemotright
Encoding: 187 187 124
Width: 550
GlyphClass: 2
Flags: W
VStem: 131.184 287.695
LayerCount: 2
Fore
SplineSet
295.805664062 36 m 1,0,-1
 266.805664062 36 l 1,1,-1
 248.18359375 36 l 1,2,-1
 364.798828125 211.983398438 l 1,3,-1
 248.12109375 387 l 1,4,-1
 266.805664062 387 l 1,5,-1
 293.805664062 387 l 1,6,-1
 299.076171875 387 l 1,7,-1
 418.87890625 212.06640625 l 1,8,-1
 301.147460938 36 l 1,9,-1
 295.805664062 36 l 1,0,-1
178.805664062 36 m 1,10,-1
 149.805664062 36 l 1,11,-1
 131.18359375 36 l 1,12,-1
 247.798828125 211.983398438 l 1,13,-1
 131.12109375 387 l 1,14,-1
 149.805664062 387 l 1,15,-1
 176.805664062 387 l 1,16,-1
 182.076171875 387 l 1,17,-1
 301.87890625 212.06640625 l 1,18,-1
 184.147460938 36 l 1,19,-1
 178.805664062 36 l 1,10,-1
EndSplineSet
EndChar

StartChar: onequarter
Encoding: 188 188 125
Width: 550
GlyphClass: 2
Flags: W
HStem: 48 42<323.738 444.479 487.479 523.479>
VStem: 134.479 43<328 650.59> 444.479 43<-10 48 90 198>
LayerCount: 2
Fore
SplineSet
74.478515625 633 m 1,0,-1
 74.478515625 659 l 1,1,-1
 74.478515625 664.709960938 l 1,2,-1
 142.748046875 705 l 1,3,-1
 145.478515625 705 l 1,4,-1
 167.478515625 705 l 1,5,-1
 177.478515625 705 l 1,6,-1
 177.478515625 328 l 1,7,-1
 167.478515625 328 l 1,8,-1
 144.478515625 328 l 1,9,-1
 134.478515625 328 l 1,10,-1
 134.478515625 650.58984375 l 1,11,-1
 74.478515625 615.58984375 l 1,12,-1
 74.478515625 633 l 1,0,-1
487.478515625 90 m 1,13,-1
 513.478515625 90 l 1,14,-1
 523.478515625 90 l 1,15,-1
 523.478515625 80 l 1,16,-1
 523.478515625 58 l 1,17,-1
 523.478515625 48 l 1,18,-1
 513.478515625 48 l 1,19,-1
 487.478515625 48 l 1,20,-1
 487.478515625 0 l 1,21,-1
 487.478515625 -10 l 1,22,-1
 477.478515625 -10 l 1,23,-1
 454.478515625 -10 l 1,24,-1
 444.478515625 -10 l 1,25,-1
 444.478515625 0 l 1,26,-1
 444.478515625 48 l 1,27,-1
 270.478515625 48 l 1,28,-1
 270.478515625 58 l 1,29,-1
 270.478515625 76 l 1,30,-1
 270.478515625 78.35546875 l 1,31,-1
 414.288085938 367 l 1,32,-1
 420.478515625 367 l 1,33,-1
 447.478515625 367 l 1,34,-1
 463.73828125 367 l 1,35,-1
 323.73828125 90 l 1,36,-1
 444.478515625 90 l 1,37,-1
 444.478515625 198 l 1,38,-1
 454.478515625 198 l 1,39,-1
 477.478515625 198 l 1,40,-1
 487.478515625 198 l 1,41,-1
 487.478515625 90 l 1,13,-1
47.478515625 -27 m 1,42,-1
 22.478515625 -27 l 1,43,-1
 3.9921875 -27 l 1,44,-1
 495.0703125 724 l 1,45,-1
 500.478515625 724 l 1,46,-1
 527.478515625 724 l 1,47,-1
 546.0078125 724 l 1,48,-1
 52.875 -27 l 1,49,-1
 47.478515625 -27 l 1,42,-1
EndSplineSet
EndChar

StartChar: onehalf
Encoding: 189 189 126
Width: 550
GlyphClass: 2
Flags: W
HStem: -10 42<373.101 539.479> 327 40<375.563 480.204>
VStem: 144.479 43<328 650.59> 496.479 44.001<219.45 310.747>
LayerCount: 2
Fore
SplineSet
428.478515625 367 m 0,0,1
 480.336914062 367 480.336914062 367 510.408203125 339.712890625 c 128,-1,2
 540.478515625 312.426757812 540.478515625 312.426757812 540.479492188 271.438476562 c 128,-1,3
 540.48046875 230.450195312 540.48046875 230.450195312 512.245117188 195.69921875 c 2,4,-1
 373.100585938 32 l 1,5,-1
 539.478515625 32 l 1,6,-1
 539.478515625 22 l 1,7,-1
 539.478515625 0 l 1,8,-1
 539.478515625 -10 l 1,9,-1
 311.478515625 -10 l 1,10,-1
 311.478515625 0 l 1,11,-1
 311.478515625 20 l 1,12,-1
 311.478515625 23.646484375 l 1,13,-1
 478.9296875 222.557617188 l 2,14,15
 496.477539062 242.73828125 496.477539062 242.73828125 496.478515625 269.111328125 c 128,-1,16
 496.478515625 295.485351562 496.478515625 295.485351562 478.591796875 311.2421875 c 128,-1,17
 460.705078125 327 460.705078125 327 427.478515625 327 c 0,18,19
 403.4765625 327 403.4765625 327 384.17578125 314.278320312 c 128,-1,20
 364.874023438 301.557617188 364.874023438 301.557617188 357.967773438 280.83984375 c 2,21,-1
 355.264648438 272.729492188 l 1,22,-1
 346.825195312 274.13671875 l 1,23,-1
 322.825195312 278.13671875 l 1,24,-1
 311.401367188 280.040039062 l 1,25,-1
 314.958984375 291.069335938 l 2,26,27
 326.056640625 325.469726562 326.056640625 325.469726562 358.296875 346.234375 c 128,-1,28
 390.538085938 367 390.538085938 367 428.478515625 367 c 0,0,1
84.478515625 633 m 1,29,-1
 84.478515625 659 l 1,30,-1
 84.478515625 664.709960938 l 1,31,-1
 152.748046875 705 l 1,32,-1
 155.478515625 705 l 1,33,-1
 177.478515625 705 l 1,34,-1
 187.478515625 705 l 1,35,-1
 187.478515625 328 l 1,36,-1
 177.478515625 328 l 1,37,-1
 154.478515625 328 l 1,38,-1
 144.478515625 328 l 1,39,-1
 144.478515625 650.58984375 l 1,40,-1
 84.478515625 615.58984375 l 1,41,-1
 84.478515625 633 l 1,29,-1
47.478515625 -27 m 1,42,-1
 22.478515625 -27 l 1,43,-1
 3.9921875 -27 l 1,44,-1
 495.0703125 724 l 1,45,-1
 500.478515625 724 l 1,46,-1
 527.478515625 724 l 1,47,-1
 546.0078125 724 l 1,48,-1
 52.875 -27 l 1,49,-1
 47.478515625 -27 l 1,42,-1
EndSplineSet
EndChar

StartChar: threequarters
Encoding: 190 190 127
Width: 550
GlyphClass: 2
Flags: W
HStem: 48 42<303.738 424.479 467.479 503.479> 329 40<65.1277 180.96> 512 41<86.4785 177.991> 673 39<74.742 180.281>
VStem: 196.479 44<568.178 657.738> 203.479 43<389.919 493.867> 424.479 43<-10 48 90 198>
LayerCount: 2
Fore
SplineSet
129.478515625 712 m 0,0,1
 182.618164062 712 182.618164062 712 211.548828125 683.069335938 c 128,-1,2
 240.478515625 654.139648438 240.478515625 654.139648438 240.478515625 613 c 0,3,4
 240.478515625 587.504882812 240.478515625 587.504882812 226.813476562 561.814453125 c 0,5,6
 217.475585938 544.258789062 217.475585938 544.258789062 199.19921875 533.623046875 c 1,7,8
 219.875 521.809570312 219.875 521.809570312 230.865234375 500.588867188 c 0,9,10
 246.478515625 470.4375 246.478515625 470.4375 246.478515625 444 c 0,11,12
 246.478515625 394.764648438 246.478515625 394.764648438 212.430664062 361.814453125 c 128,-1,13
 178.522460938 329 178.522460938 329 126.478515625 329 c 0,14,15
 38.7734375 329 38.7734375 329 13.224609375 391.20703125 c 2,16,-1
 9.484375 400.3125 l 1,17,-1
 18.546875 404.196289062 l 1,18,-1
 39.546875 413.196289062 l 1,19,-1
 48.958984375 417.229492188 l 1,20,-1
 52.767578125 407.708007812 l 2,21,22
 68.2509765625 369 68.2509765625 369 125.478515625 369 c 0,23,24
 160.5234375 369 160.5234375 369 182.000976562 389.163085938 c 128,-1,25
 203.478515625 409.325195312 203.478515625 409.325195312 203.478515625 442 c 128,-1,26
 203.478515625 474.79296875 203.478515625 474.79296875 184.491210938 493.348632812 c 128,-1,27
 165.40625 512 165.40625 512 135.478515625 512 c 2,28,-1
 96.478515625 512 l 1,29,-1
 86.478515625 512 l 1,30,-1
 86.478515625 522 l 1,31,-1
 86.478515625 543 l 1,32,-1
 86.478515625 553 l 1,33,-1
 96.478515625 553 l 1,34,-1
 131.478515625 553 l 2,35,36
 160.62890625 553 160.62890625 553 178.553710938 569.217773438 c 128,-1,37
 196.478515625 585.435546875 196.478515625 585.435546875 196.478515625 612.610351562 c 128,-1,38
 196.478515625 639.786132812 196.478515625 639.786132812 179.5 656.340820312 c 128,-1,39
 162.413085938 673 162.413085938 673 124.478515625 673 c 0,40,41
 103.357421875 673 103.357421875 673 84.5322265625 661.1796875 c 128,-1,42
 65.7060546875 649.358398438 65.7060546875 649.358398438 58.8798828125 630.5859375 c 2,43,-1
 55.8642578125 622.291992188 l 1,44,-1
 47.2568359375 624.248046875 l 1,45,-1
 25.2568359375 629.248046875 l 1,46,-1
 13.716796875 631.87109375 l 1,47,-1
 18.23046875 642.80859375 l 2,48,49
 46.7861328125 712 46.7861328125 712 129.478515625 712 c 0,0,1
467.478515625 90 m 1,50,-1
 493.478515625 90 l 1,51,-1
 503.478515625 90 l 1,52,-1
 503.478515625 80 l 1,53,-1
 503.478515625 58 l 1,54,-1
 503.478515625 48 l 1,55,-1
 493.478515625 48 l 1,56,-1
 467.478515625 48 l 1,57,-1
 467.478515625 0 l 1,58,-1
 467.478515625 -10 l 1,59,-1
 457.478515625 -10 l 1,60,-1
 434.478515625 -10 l 1,61,-1
 424.478515625 -10 l 1,62,-1
 424.478515625 0 l 1,63,-1
 424.478515625 48 l 1,64,-1
 250.478515625 48 l 1,65,-1
 250.478515625 58 l 1,66,-1
 250.478515625 76 l 1,67,-1
 250.478515625 78.35546875 l 1,68,-1
 394.288085938 367 l 1,69,-1
 400.478515625 367 l 1,70,-1
 427.478515625 367 l 1,71,-1
 443.73828125 367 l 1,72,-1
 303.73828125 90 l 1,73,-1
 424.478515625 90 l 1,74,-1
 424.478515625 198 l 1,75,-1
 434.478515625 198 l 1,76,-1
 457.478515625 198 l 1,77,-1
 467.478515625 198 l 1,78,-1
 467.478515625 90 l 1,50,-1
47.478515625 -27 m 1,79,-1
 22.478515625 -27 l 1,80,-1
 3.9921875 -27 l 1,81,-1
 495.0703125 724 l 1,82,-1
 500.478515625 724 l 1,83,-1
 527.478515625 724 l 1,84,-1
 546.0078125 724 l 1,85,-1
 52.875 -27 l 1,86,-1
 47.478515625 -27 l 1,79,-1
EndSplineSet
EndChar

StartChar: questiondown
Encoding: 191 191 128
Width: 550
GlyphClass: 2
Flags: W
HStem: -222 42<187.768 343.023> 437 63<239.393 297.393>
VStem: 83.3926 44<-116.571 28.5908> 239.393 58<437 500> 248.393 45<200.656 351>
LayerCount: 2
Fore
SplineSet
267.392578125 -222 m 0,0,1
 186.314453125 -222 186.314453125 -222 134.897460938 -171.643554688 c 128,-1,2
 83.392578125 -121.200195312 83.392578125 -121.200195312 83.392578125 -44 c 0,3,4
 83.392578125 -7.896484375 83.392578125 -7.896484375 98.568359375 26.6416015625 c 128,-1,5
 113.744140625 61.1787109375 113.744140625 61.1787109375 127.245117188 78.314453125 c 128,-1,6
 140.74609375 95.451171875 140.74609375 95.451171875 167.760742188 125.465820312 c 128,-1,7
 194.776367188 155.481445312 194.776367188 155.481445312 207.34375 170.94921875 c 128,-1,8
 219.911132812 186.416992188 219.911132812 186.416992188 233.190429688 213.44921875 c 128,-1,9
 246.46875 240.48046875 246.46875 240.48046875 248.392578125 267.356445312 c 1,10,-1
 248.392578125 351 l 1,11,-1
 258.392578125 351 l 1,12,-1
 283.392578125 351 l 1,13,-1
 293.392578125 351 l 1,14,-1
 293.392578125 265 l 2,15,16
 293.392578125 221.177734375 293.392578125 221.177734375 269.379882812 182.026367188 c 128,-1,17
 245.3671875 142.875 245.3671875 142.875 203.677734375 99.15234375 c 0,18,19
 127.392578125 18.0390625 127.392578125 18.0390625 127.392578125 -39 c 0,20,21
 127.392578125 -92.501953125 127.392578125 -92.501953125 162.298828125 -136.250976562 c 128,-1,22
 197.205078125 -180 197.205078125 -180 271.392578125 -180 c 0,23,24
 329.188476562 -180 329.188476562 -180 371.071289062 -137.17578125 c 128,-1,25
 412.954101562 -94.3515625 412.954101562 -94.3515625 419.494140625 -48.5751953125 c 2,26,-1
 420.987304688 -38.119140625 l 1,27,-1
 431.362304688 -40.1943359375 l 1,28,-1
 456.362304688 -45.1943359375 l 1,29,-1
 466.607421875 -47.2431640625 l 1,30,-1
 464.102539062 -57.3984375 l 2,31,32
 445.305664062 -133.633789062 445.305664062 -133.633789062 391.206054688 -177.752929688 c 128,-1,33
 336.951171875 -222 336.951171875 -222 267.392578125 -222 c 0,0,1
249.392578125 500 m 1,34,-1
 287.392578125 500 l 1,35,-1
 297.392578125 500 l 1,36,-1
 297.392578125 490 l 1,37,-1
 297.392578125 447 l 1,38,-1
 297.392578125 437 l 1,39,-1
 287.392578125 437 l 1,40,-1
 249.392578125 437 l 1,41,-1
 239.392578125 437 l 1,42,-1
 239.392578125 447 l 1,43,-1
 239.392578125 490 l 1,44,-1
 239.392578125 500 l 1,45,-1
 249.392578125 500 l 1,34,-1
EndSplineSet
EndChar

StartChar: Agrave
Encoding: 192 192 129
Width: 550
GlyphClass: 2
Flags: W
HStem: 0 21G<-10.0859 54.3555 493.855 560.086> 175 35<115.374 432.545> 676 20G<181.753 368.247>
LayerCount: 2
Fore
SplineSet
39.10546875 0 m 1,0,1
 35.552734375 10 35.552734375 10 31.9990234375 0 c 1,2,-1
 3.9990234375 0 l 1,3,-1
 -10.0859375 0 l 1,4,5
 115.227539062 348 115.227539062 348 248.278320312 696 c 1,6,-1
 255.838867188 696 l 1,7,-1
 294.16015625 696 l 1,8,-1
 301.720703125 696 l 1,9,10
 434.772460938 348 434.772460938 348 560.0859375 0 c 1,11,12
 553.04296875 10 553.04296875 10 546 0 c 1,13,-1
 516 0 l 1,14,15
 512.426757812 10 512.426757812 10 508.85546875 0 c 1,16,17
 478.85546875 97.5 478.85546875 97.5 448.85546875 175 c 1,18,-1
 100.10546875 175 l 1,19,20
 69.60546875 97.5 69.60546875 97.5 39.10546875 0 c 1,0,1
115.374023438 210 m 1,21,-1
 432.544921875 210 l 1,22,-1
 274.927734375 642.252929688 l 1,23,-1
 216.928710938 485.715820312 l 1,24,-1
 115.374023438 210 l 1,21,-1
314.749023438 758.469726562 m 1,25,26
 311.180664062 744.5078125 311.180664062 744.5078125 307.611328125 750.545898438 c 1,27,28
 301.756835938 734.045898438 301.756835938 734.045898438 295.90234375 737.545898438 c 1,29,30
 292.935546875 724.251953125 292.935546875 724.251953125 289.96875 730.958007812 c 1,31,32
 205.009765625 770.418945312 205.009765625 770.418945312 120.05078125 829.880859375 c 1,33,34
 124.422851562 824.330078125 124.422851562 824.330078125 128.794921875 838.779296875 c 1,35,36
 141.568359375 841.779296875 141.568359375 841.779296875 154.341796875 864.779296875 c 1,37,38
 157.671875 858.166992188 157.671875 858.166992188 161 871.5546875 c 1,39,40
 237.875 805.012695312 237.875 805.012695312 314.749023438 758.469726562 c 1,25,26
EndSplineSet
EndChar

StartChar: Aacute
Encoding: 193 193 130
Width: 550
GlyphClass: 2
Flags: W
HStem: 0 21G<-10.0859 54.3555 493.855 560.086> 175 35<115.374 432.545> 676 20G<181.753 368.247>
LayerCount: 2
Fore
SplineSet
39.10546875 0 m 1,0,1
 35.552734375 10 35.552734375 10 31.9990234375 0 c 1,2,-1
 3.9990234375 0 l 1,3,-1
 -10.0859375 0 l 1,4,5
 115.227539062 348 115.227539062 348 248.278320312 696 c 1,6,-1
 255.838867188 696 l 1,7,-1
 294.16015625 696 l 1,8,-1
 301.720703125 696 l 1,9,10
 434.772460938 348 434.772460938 348 560.0859375 0 c 1,11,12
 553.04296875 10 553.04296875 10 546 0 c 1,13,-1
 516 0 l 1,14,15
 512.426757812 10 512.426757812 10 508.85546875 0 c 1,16,17
 478.85546875 97.5 478.85546875 97.5 448.85546875 175 c 1,18,-1
 100.10546875 175 l 1,19,20
 69.60546875 97.5 69.60546875 97.5 39.10546875 0 c 1,0,1
115.374023438 210 m 1,21,-1
 432.544921875 210 l 1,22,-1
 274.927734375 642.252929688 l 1,23,-1
 216.928710938 485.715820312 l 1,24,-1
 115.374023438 210 l 1,21,-1
269.611328125 730.958007812 m 1,25,26
 266.64453125 724.251953125 266.64453125 724.251953125 263.677734375 737.545898438 c 1,27,28
 257.823242188 734.045898438 257.823242188 734.045898438 251.96875 750.545898438 c 1,29,30
 248.400390625 744.5078125 248.400390625 744.5078125 244.831054688 758.469726562 c 1,31,32
 321.706054688 805.012695312 321.706054688 805.012695312 398.580078125 871.5546875 c 1,33,34
 401.908203125 858.166992188 401.908203125 858.166992188 405.237304688 864.779296875 c 1,35,36
 418.010742188 841.779296875 418.010742188 841.779296875 430.78515625 838.779296875 c 1,37,38
 435.157226562 824.330078125 435.157226562 824.330078125 439.529296875 829.880859375 c 1,39,40
 354.5703125 770.418945312 354.5703125 770.418945312 269.611328125 730.958007812 c 1,25,26
EndSplineSet
EndChar

StartChar: Acircumflex
Encoding: 194 194 131
Width: 550
GlyphClass: 2
Flags: W
HStem: 0 21G<-10.0859 54.3555 493.855 560.086> 175 35<115.374 432.545> 676 20G<181.753 368.247>
LayerCount: 2
Fore
SplineSet
39.10546875 0 m 1,0,1
 35.552734375 10 35.552734375 10 31.9990234375 0 c 1,2,-1
 3.9990234375 0 l 1,3,-1
 -10.0859375 0 l 1,4,5
 115.227539062 348 115.227539062 348 248.278320312 696 c 1,6,-1
 255.838867188 696 l 1,7,-1
 294.16015625 696 l 1,8,-1
 301.720703125 696 l 1,9,10
 434.772460938 348 434.772460938 348 560.0859375 0 c 1,11,12
 553.04296875 10 553.04296875 10 546 0 c 1,13,-1
 516 0 l 1,14,15
 512.426757812 10 512.426757812 10 508.85546875 0 c 1,16,17
 478.85546875 97.5 478.85546875 97.5 448.85546875 175 c 1,18,-1
 100.10546875 175 l 1,19,20
 69.60546875 97.5 69.60546875 97.5 39.10546875 0 c 1,0,1
115.374023438 210 m 1,21,-1
 432.544921875 210 l 1,22,-1
 274.927734375 642.252929688 l 1,23,-1
 216.928710938 485.715820312 l 1,24,-1
 115.374023438 210 l 1,21,-1
257.359375 858 m 1,25,26
 259.259765625 848 259.259765625 848 261.161132812 858 c 1,27,-1
 292.03125 858 l 1,28,29
 293.982421875 848 293.982421875 848 295.932617188 858 c 1,30,31
 364.634765625 793.303710938 364.634765625 793.303710938 433.338867188 748.608398438 c 1,32,33
 429.252929688 734.76953125 429.252929688 734.76953125 425.166015625 740.930664062 c 1,34,35
 418.779296875 724.930664062 418.779296875 724.930664062 412.392578125 728.930664062 c 1,36,37
 409.294921875 716.020507812 409.294921875 716.020507812 406.197265625 723.111328125 c 1,38,39
 340.604492188 754.528320312 340.604492188 754.528320312 275.01171875 805.944335938 c 1,40,41
 208.729492188 753.926757812 208.729492188 753.926757812 142.447265625 721.909179688 c 1,42,43
 139.346679688 715.065429688 139.346679688 715.065429688 136.24609375 728.220703125 c 1,44,45
 129.859375 724.720703125 129.859375 724.720703125 123.471679688 741.220703125 c 1,46,47
 119.645507812 735.115234375 119.645507812 735.115234375 115.818359375 749.010742188 c 1,48,49
 186.587890625 793.504882812 186.587890625 793.504882812 257.359375 858 c 1,25,26
EndSplineSet
EndChar

StartChar: Atilde
Encoding: 195 195 132
Width: 550
GlyphClass: 2
Flags: W
HStem: 0 21G<-10.0859 54.3555 493.855 560.086> 175 35<115.374 432.545> 676 20G<181.753 368.247> 748 47<284.578 385.315> 788 47<169.697 284.578>
LayerCount: 2
Fore
SplineSet
39.10546875 0 m 1,0,1
 35.552734375 10 35.552734375 10 31.9990234375 0 c 1,2,-1
 3.9990234375 0 l 1,3,-1
 -10.0859375 0 l 1,4,5
 115.227539062 348 115.227539062 348 248.278320312 696 c 1,6,-1
 255.838867188 696 l 1,7,-1
 294.16015625 696 l 1,8,-1
 301.720703125 696 l 1,9,10
 434.772460938 348 434.772460938 348 560.0859375 0 c 1,11,12
 553.04296875 10 553.04296875 10 546 0 c 1,13,-1
 516 0 l 1,14,15
 512.426757812 10 512.426757812 10 508.85546875 0 c 1,16,17
 478.85546875 97.5 478.85546875 97.5 448.85546875 175 c 1,18,-1
 100.10546875 175 l 1,19,20
 69.60546875 97.5 69.60546875 97.5 39.10546875 0 c 1,0,1
115.374023438 210 m 1,21,-1
 432.544921875 210 l 1,22,-1
 274.927734375 642.252929688 l 1,23,-1
 216.928710938 485.715820312 l 1,24,-1
 115.374023438 210 l 1,21,-1
120.431640625 777.71484375 m 2,25,26
 163.001953125 835 163.001953125 835 219.646484375 835 c 0,27,28
 243.318359375 835 243.318359375 835 288.559570312 815 c 128,-1,29
 333.799804688 795 333.799804688 795 348.448242188 795 c 0,30,31
 370.548828125 795 370.548828125 795 396.108398438 829.682617188 c 2,32,33
 398.950195312 823.5390625 398.950195312 823.5390625 401.791992188 837.39453125 c 1,34,35
 406.061523438 824.98828125 406.061523438 824.98828125 410.33203125 832.581054688 c 1,36,37
 420.9765625 816.581054688 420.9765625 816.581054688 431.62109375 820.581054688 c 1,38,39
 436.104492188 808.0546875 436.104492188 808.0546875 440.555664062 815.528320312 c 1,40,41
 437.991210938 801.280273438 437.991210938 801.280273438 435.395507812 807.032226562 c 2,42,43
 399.3203125 748 399.3203125 748 347.383789062 748 c 0,44,45
 325.841796875 748 325.841796875 748 280.6015625 768 c 128,-1,46
 235.361328125 788 235.361328125 788 217.517578125 788 c 0,47,48
 187.44140625 788 187.44140625 788 157.642578125 753.685546875 c 2,49,50
 154.66015625 740.250976562 154.66015625 740.250976562 151.677734375 746.81640625 c 1,51,52
 147.698242188 739.177734375 147.698242188 739.177734375 143.717773438 751.5390625 c 1,53,54
 133.60546875 747.5390625 133.60546875 747.5390625 123.493164062 763.5390625 c 1,55,56
 118.775390625 756.337890625 118.775390625 756.337890625 114.056640625 769.13671875 c 1,57,58
 117.244140625 763.42578125 117.244140625 763.42578125 120.431640625 777.71484375 c 2,25,26
EndSplineSet
EndChar

StartChar: Adieresis
Encoding: 196 196 133
Width: 550
GlyphClass: 2
Flags: W
HStem: 0 21G<-10.0859 54.3555 493.855 560.086> 175 35<115.374 432.545> 676 20G<181.753 368.247> 763 56<158.971 220.711 322.901 384.641>
VStem: 158.971 61.7402<762.849 819> 322.901 61.7393<762.849 819>
LayerCount: 2
Fore
SplineSet
39.10546875 0 m 1,0,1
 35.552734375 10 35.552734375 10 31.9990234375 0 c 1,2,-1
 3.9990234375 0 l 1,3,-1
 -10.0859375 0 l 1,4,5
 115.227539062 348 115.227539062 348 248.278320312 696 c 1,6,-1
 255.838867188 696 l 1,7,-1
 294.16015625 696 l 1,8,-1
 301.720703125 696 l 1,9,10
 434.772460938 348 434.772460938 348 560.0859375 0 c 1,11,12
 553.04296875 10 553.04296875 10 546 0 c 1,13,-1
 516 0 l 1,14,15
 512.426757812 10 512.426757812 10 508.85546875 0 c 1,16,17
 478.85546875 97.5 478.85546875 97.5 448.85546875 175 c 1,18,-1
 100.10546875 175 l 1,19,20
 69.60546875 97.5 69.60546875 97.5 39.10546875 0 c 1,0,1
115.374023438 210 m 1,21,-1
 432.544921875 210 l 1,22,-1
 274.927734375 642.252929688 l 1,23,-1
 216.928710938 485.715820312 l 1,24,-1
 115.374023438 210 l 1,21,-1
322.901367188 763 m 1,25,26
 322.901367188 758 322.901367188 758 322.901367188 773 c 1,27,28
 322.901367188 781 322.901367188 781 322.901367188 809 c 1,29,30
 322.901367188 804 322.901367188 804 322.901367188 819 c 1,31,-1
 333.545898438 819 l 1,32,-1
 373.99609375 819 l 1,33,-1
 384.640625 819 l 1,34,35
 384.640625 804 384.640625 804 384.640625 809 c 1,36,37
 384.640625 781 384.640625 781 384.640625 773 c 1,38,39
 384.640625 758 384.640625 758 384.640625 763 c 1,40,-1
 373.99609375 763 l 1,41,-1
 333.545898438 763 l 1,42,-1
 322.901367188 763 l 1,25,26
158.970703125 763 m 1,43,44
 158.970703125 758 158.970703125 758 158.970703125 773 c 1,45,46
 158.970703125 781 158.970703125 781 158.970703125 809 c 1,47,48
 158.970703125 804 158.970703125 804 158.970703125 819 c 1,49,-1
 169.616210938 819 l 1,50,-1
 210.06640625 819 l 1,51,-1
 220.7109375 819 l 1,52,53
 220.7109375 804 220.7109375 804 220.7109375 809 c 1,54,55
 220.7109375 781 220.7109375 781 220.7109375 773 c 1,56,57
 220.7109375 758 220.7109375 758 220.7109375 763 c 1,58,-1
 210.06640625 763 l 1,59,-1
 169.616210938 763 l 1,60,-1
 158.970703125 763 l 1,43,44
EndSplineSet
EndChar

StartChar: Aring
Encoding: 197 197 134
Width: 550
GlyphClass: 2
Flags: W
HStem: 0 21G<-10.0859 54.3555 493.855 560.086> 175 35<115.374 432.545> 676 20G<181.753 368.247> 705 39<230.866 317.844> 858 38<231.049 317.74>
VStem: 171.745 42.5791<759.177 842.665> 334.61 42.5791<759.739 842.647>
LayerCount: 2
Fore
SplineSet
39.10546875 0 m 1,0,1
 35.552734375 10 35.552734375 10 31.9990234375 0 c 1,2,-1
 3.9990234375 0 l 1,3,-1
 -10.0859375 0 l 1,4,5
 115.227539062 348 115.227539062 348 248.278320312 696 c 1,6,-1
 255.838867188 696 l 1,7,-1
 294.16015625 696 l 1,8,-1
 301.720703125 696 l 1,9,10
 434.772460938 348 434.772460938 348 560.0859375 0 c 1,11,12
 553.04296875 10 553.04296875 10 546 0 c 1,13,-1
 516 0 l 1,14,15
 512.426757812 10 512.426757812 10 508.85546875 0 c 1,16,17
 478.85546875 97.5 478.85546875 97.5 448.85546875 175 c 1,18,-1
 100.10546875 175 l 1,19,20
 69.60546875 97.5 69.60546875 97.5 39.10546875 0 c 1,0,1
115.374023438 210 m 1,21,-1
 432.544921875 210 l 1,22,-1
 274.927734375 642.252929688 l 1,23,-1
 216.928710938 485.715820312 l 1,24,-1
 115.374023438 210 l 1,21,-1
377.189453125 801.55859375 m 128,-1,26
 377.189453125 761.860351562 377.189453125 761.860351562 346.926757812 733.430664062 c 128,-1,27
 316.663085938 705 316.663085938 705 274.466796875 705 c 128,-1,28
 232.272460938 705 232.272460938 705 202.008789062 733.430664062 c 128,-1,29
 171.745117188 761.860351562 171.745117188 761.860351562 171.745117188 801.529296875 c 128,-1,30
 171.745117188 841.198242188 171.745117188 841.198242188 201.553710938 868.641601562 c 128,-1,31
 231.270507812 896 231.270507812 896 273.934570312 896 c 128,-1,32
 316.5390625 896 316.5390625 896 346.772460938 868.7109375 c 128,-1,25
 377.189453125 841.256835938 377.189453125 841.256835938 377.189453125 801.55859375 c 128,-1,26
316.97265625 841.430664062 m 128,-1,34
 299.334960938 858 299.334960938 858 273.934570312 858 c 128,-1,35
 248.6171875 858 248.6171875 858 231.528320312 841.5234375 c 128,-1,36
 214.32421875 824.936523438 214.32421875 824.936523438 214.32421875 801 c 128,-1,37
 214.32421875 777.063476562 214.32421875 777.063476562 231.528320312 760.4765625 c 128,-1,38
 248.6171875 744 248.6171875 744 273.934570312 744 c 128,-1,39
 299.334960938 744 299.334960938 744 316.97265625 760.569335938 c 128,-1,40
 334.610351562 777.139648438 334.610351562 777.139648438 334.610351562 801 c 128,-1,33
 334.610351562 824.860351562 334.610351562 824.860351562 316.97265625 841.430664062 c 128,-1,34
EndSplineSet
EndChar

StartChar: AE
Encoding: 198 198 135
Width: 550
GlyphClass: 2
Flags: W
HStem: 0 44<341.813 566.813> 176 34<120.113 294.813> 346 44<341.813 536.813> 652 44<341.813 552.813>
VStem: 294.813 47<44 176 210 346 390 619.087>
LayerCount: 2
Fore
SplineSet
341.813476562 346 m 1,0,-1
 341.813476562 44 l 1,1,-1
 566.813476562 44 l 1,2,3
 566.813476562 49 566.813476562 49 566.813476562 34 c 1,4,5
 566.813476562 32 566.813476562 32 566.813476562 10 c 1,6,7
 566.813476562 15 566.813476562 15 566.813476562 0 c 1,8,-1
 294.813476562 0 l 1,9,10
 294.813476562 98 294.813476562 98 294.813476562 176 c 1,11,-1
 101.671875 176 l 1,12,13
 67.671875 98 67.671875 98 33.671875 0 c 1,14,15
 30.2421875 10 30.2421875 10 26.8134765625 0 c 1,16,-1
 -2.1865234375 0 l 1,17,18
 -9.5 10 -9.5 10 -16.8134765625 0 c 1,19,20
 124.83984375 348 124.83984375 348 281.973632812 696 c 1,21,-1
 552.813476562 696 l 1,22,23
 552.813476562 681 552.813476562 681 552.813476562 686 c 1,24,25
 552.813476562 664 552.813476562 664 552.813476562 662 c 1,26,27
 552.813476562 647 552.813476562 647 552.813476562 652 c 1,28,-1
 341.813476562 652 l 1,29,-1
 341.813476562 390 l 1,30,-1
 536.813476562 390 l 1,31,-1
 536.813476562 380 l 1,32,-1
 536.813476562 356 l 1,33,-1
 536.813476562 346 l 1,34,-1
 341.813476562 346 l 1,0,-1
120.11328125 210 m 1,35,-1
 294.813476562 210 l 1,36,-1
 294.813476562 619.086914062 l 1,37,-1
 120.11328125 210 l 1,35,-1
EndSplineSet
EndChar

StartChar: Ccedilla
Encoding: 199 199 136
Width: 550
GlyphClass: 2
Flags: W
HStem: -186 41<210.639 323.803> -6.81738 42.8174<289.012 385.601> 658 43<172.544 384.387>
VStem: 24.4375 46<139.09 553.966> 233.709 5.76758<-54.5508 -54.3098> 333.953 49.8154<-136.402 -77.6414>
LayerCount: 2
Fore
SplineSet
348.47265625 -46.015625 m 0,0,1
 383.768554688 -67.5048828125 383.768554688 -67.5048828125 383.768554688 -109 c 0,2,3
 383.768554688 -138.276367188 383.768554688 -138.276367188 356.588867188 -162.233398438 c 0,4,5
 329.625 -186 329.625 -186 273.307617188 -186 c 0,6,7
 235.4140625 -186 235.4140625 -186 202.03125 -173.244140625 c 2,8,9
 197.217773438 -161.404296875 197.217773438 -161.404296875 192.40234375 -169.565429688 c 1,10,11
 194.201171875 -155.055664062 194.201171875 -155.055664062 196 -160.546875 c 1,12,13
 199.790039062 -141.046875 199.790039062 -141.046875 203.581054688 -141.546875 c 1,14,15
 205.4140625 -126.94921875 205.4140625 -126.94921875 207.249023438 -132.3515625 c 1,16,17
 212.260742188 -123.947265625 212.260742188 -123.947265625 217.274414062 -135.54296875 c 2,18,19
 246.97265625 -145 246.97265625 -145 273.307617188 -145 c 128,-1,20
 299.702148438 -145 299.702148438 -145 318.35546875 -135.284179688 c 0,21,22
 333.953125 -127.159179688 333.953125 -127.159179688 333.953125 -108.010742188 c 128,-1,23
 333.953125 -88.861328125 333.953125 -88.861328125 312.4296875 -77.7314453125 c 0,24,25
 287.80859375 -65 287.80859375 -65 251.649414062 -65 c 2,26,-1
 247.852539062 -65 l 1,27,28
 246.372070312 -53.90625 246.372070312 -53.90625 244.891601562 -62.8125 c 1,29,30
 242.18359375 -50.8125 242.18359375 -50.8125 239.4765625 -58.8125 c 1,31,32
 236.592773438 -46.681640625 236.592773438 -46.681640625 233.708984375 -54.55078125 c 1,33,34
 234.796875 -41.298828125 234.796875 -41.298828125 235.885742188 -48.046875 c 1,35,36
 243.075195312 -16.5673828125 243.075195312 -16.5673828125 250.265625 -5.0869140625 c 1,37,38
 135.180664062 4.0634765625 135.180664062 4.0634765625 81.0859375 70.6630859375 c 0,39,40
 24.4375 140.408203125 24.4375 140.408203125 24.4375 245.890625 c 2,41,42
 24.4375 350.361328125 24.4375 350.361328125 24.4375 454.96875 c 2,43,44
 24.4375 559.786132812 24.4375 559.786132812 88.6865234375 630.393554688 c 0,45,46
 153.640625 701 153.640625 701 281.971679688 701 c 0,47,48
 364.073242188 701 364.073242188 701 423.641601562 666.5390625 c 0,49,50
 480.16796875 631.995117188 480.16796875 631.995117188 508.451171875 573.333984375 c 2,51,52
 510.403320312 559.28515625 510.403320312 559.28515625 512.35546875 565.236328125 c 1,53,54
 508.522460938 552.86328125 508.522460938 552.86328125 504.690429688 560.491210938 c 1,55,56
 494.190429688 543.991210938 494.190429688 543.991210938 483.690429688 547.491210938 c 1,57,58
 478.884765625 534.516601562 478.884765625 534.516601562 474.080078125 541.541992188 c 1,59,60
 471.713867188 536.685546875 471.713867188 536.685546875 469.34765625 551.829101562 c 2,61,62
 447.587890625 599.133789062 447.587890625 599.133789062 400.731445312 628.54296875 c 0,63,64
 350.307617188 658 350.307617188 658 283.0546875 658 c 0,65,66
 176.43359375 658 176.43359375 658 122.209960938 600.477539062 c 0,67,68
 70.4375 542.954101562 70.4375 542.954101562 70.4375 452.604492188 c 2,69,70
 70.4375 347 70.4375 347 70.4375 241.395507812 c 2,71,72
 70.4375 151.020507812 70.4375 151.020507812 121.723632812 93.5107421875 c 0,73,74
 175.380859375 36 175.380859375 36 286.303710938 36 c 0,75,76
 354.512695312 36 354.512695312 36 406.522460938 67.9072265625 c 0,77,78
 454.622070312 99.8154296875 454.622070312 99.8154296875 481.426757812 155.337890625 c 2,79,80
 483.473632812 169.578125 483.473632812 169.578125 485.51953125 163.817382812 c 1,81,82
 489.869140625 172.0390625 489.869140625 172.0390625 494.217773438 160.259765625 c 1,83,84
 505.217773438 165.759765625 505.217773438 165.759765625 516.217773438 151.259765625 c 1,85,86
 520.890625 159.348632812 520.890625 159.348632812 525.5625 147.436523438 c 1,87,88
 523.61328125 152.788085938 523.61328125 152.788085938 521.6640625 138.139648438 c 2,89,90
 494.487304688 73.333984375 494.487304688 73.333984375 435.90234375 34.6171875 c 0,91,92
 374.973632812 -4.1005859375 374.973632812 -4.1005859375 296.342773438 -6.8173828125 c 1,93,94
 292.619140625 -7.1337890625 292.619140625 -7.1337890625 288.895507812 -27.44921875 c 1,95,96
 325.786132812 -32.203125 325.786132812 -32.203125 348.47265625 -46.015625 c 0,0,1
EndSplineSet
EndChar

StartChar: Egrave
Encoding: 200 200 137
Width: 550
GlyphClass: 2
Flags: W
HStem: 0 44<89.5 507.5> 344 44<89.5 443.5> 652 44<89.5 479.5>
VStem: 42.5 47<44 344 388 652>
LayerCount: 2
Fore
SplineSet
507.5 0 m 1,0,-1
 42.5 0 l 1,1,2
 42.5 348 42.5 348 42.5 696 c 1,3,-1
 479.5 696 l 1,4,5
 479.5 681 479.5 681 479.5 686 c 1,6,7
 479.5 664 479.5 664 479.5 662 c 1,8,9
 479.5 647 479.5 647 479.5 652 c 1,10,-1
 89.5 652 l 1,11,-1
 89.5 388 l 1,12,-1
 443.5 388 l 1,13,-1
 443.5 378 l 1,14,-1
 443.5 354 l 1,15,-1
 443.5 344 l 1,16,-1
 89.5 344 l 1,17,-1
 89.5 44 l 1,18,-1
 507.5 44 l 1,19,20
 507.5 49 507.5 49 507.5 34 c 1,21,22
 507.5 32 507.5 32 507.5 10 c 1,23,24
 507.5 15 507.5 15 507.5 0 c 1,0,-1
342.874023438 758.469726562 m 1,25,26
 339.1953125 744.5078125 339.1953125 744.5078125 335.515625 750.545898438 c 1,27,28
 329.479492188 734.045898438 329.479492188 734.045898438 323.442382812 737.545898438 c 1,29,30
 320.383789062 724.251953125 320.383789062 724.251953125 317.323242188 730.958007812 c 1,31,32
 229.724609375 770.418945312 229.724609375 770.418945312 143.936523438 829.880859375 c 1,33,34
 148.043945312 824.330078125 148.043945312 824.330078125 152.151367188 838.779296875 c 1,35,36
 164.3125 841.779296875 164.3125 841.779296875 177.483398438 864.779296875 c 1,37,38
 180.915039062 858.166992188 180.915039062 858.166992188 184.348632812 871.5546875 c 1,39,40
 263.611328125 805.012695312 263.611328125 805.012695312 342.874023438 758.469726562 c 1,25,26
EndSplineSet
EndChar

StartChar: Eacute
Encoding: 201 201 138
Width: 550
GlyphClass: 2
Flags: W
HStem: 0 44<89.5 507.5> 344 44<89.5 443.5> 652 44<89.5 479.5>
VStem: 42.5 47<44 344 388 652>
LayerCount: 2
Fore
SplineSet
230.481445312 730.958007812 m 1,0,1
 227.420898438 724.251953125 227.420898438 724.251953125 224.362304688 737.545898438 c 1,2,3
 218.325195312 734.045898438 218.325195312 734.045898438 212.2890625 750.545898438 c 1,4,5
 208.609375 744.5078125 208.609375 744.5078125 204.930664062 758.469726562 c 1,6,7
 284.193359375 805.012695312 284.193359375 805.012695312 363.45703125 871.5546875 c 1,8,9
 366.889648438 858.166992188 366.889648438 858.166992188 370.321289062 864.779296875 c 1,10,11
 383.4921875 841.779296875 383.4921875 841.779296875 395.848632812 838.779296875 c 1,12,13
 399.956054688 824.330078125 399.956054688 824.330078125 404.063476562 829.880859375 c 1,14,15
 318.080078125 770.418945312 318.080078125 770.418945312 230.481445312 730.958007812 c 1,0,1
507.5 0 m 1,16,-1
 42.5 0 l 1,17,18
 42.5 348 42.5 348 42.5 696 c 1,19,-1
 479.5 696 l 1,20,21
 479.5 681 479.5 681 479.5 686 c 1,22,23
 479.5 664 479.5 664 479.5 662 c 1,24,25
 479.5 647 479.5 647 479.5 652 c 1,26,-1
 89.5 652 l 1,27,-1
 89.5 388 l 1,28,-1
 443.5 388 l 1,29,-1
 443.5 378 l 1,30,-1
 443.5 354 l 1,31,-1
 443.5 344 l 1,32,-1
 89.5 344 l 1,33,-1
 89.5 44 l 1,34,-1
 507.5 44 l 1,35,36
 507.5 49 507.5 49 507.5 34 c 1,37,38
 507.5 32 507.5 32 507.5 10 c 1,39,40
 507.5 15 507.5 15 507.5 0 c 1,16,-1
EndSplineSet
EndChar

StartChar: Ecircumflex
Encoding: 202 202 139
Width: 550
GlyphClass: 2
Flags: W
HStem: 0 44<89.5 507.5> 344 44<89.5 443.5> 652 44<89.5 479.5>
VStem: 42.5 47<44 344 388 652>
LayerCount: 2
Fore
SplineSet
507.5 0 m 1,0,-1
 42.5 0 l 1,1,2
 42.5 348 42.5 348 42.5 696 c 1,3,-1
 479.5 696 l 1,4,5
 479.5 681 479.5 681 479.5 686 c 1,6,7
 479.5 664 479.5 664 479.5 662 c 1,8,9
 479.5 647 479.5 647 479.5 652 c 1,10,-1
 89.5 652 l 1,11,-1
 89.5 388 l 1,12,-1
 443.5 388 l 1,13,-1
 443.5 378 l 1,14,-1
 443.5 354 l 1,15,-1
 443.5 344 l 1,16,-1
 89.5 344 l 1,17,-1
 89.5 44 l 1,18,-1
 507.5 44 l 1,19,20
 507.5 49 507.5 49 507.5 34 c 1,21,22
 507.5 32 507.5 32 507.5 10 c 1,23,24
 507.5 15 507.5 15 507.5 0 c 1,0,-1
240.896484375 858 m 1,25,26
 242.856445312 848 242.856445312 848 244.817382812 858 c 1,27,-1
 276.646484375 858 l 1,28,29
 278.657226562 848 278.657226562 848 280.668945312 858 c 1,30,31
 351.506835938 793.303710938 351.506835938 793.303710938 419.247070312 748.608398438 c 1,32,33
 415.408203125 734.76953125 415.408203125 734.76953125 411.569335938 740.930664062 c 1,34,35
 405.569335938 724.930664062 405.569335938 724.930664062 399.569335938 728.930664062 c 1,36,37
 396.66015625 716.020507812 396.66015625 716.020507812 393.750976562 723.111328125 c 1,38,39
 326.728515625 754.528320312 326.728515625 754.528320312 259.096679688 805.944335938 c 1,40,41
 190.755859375 753.926757812 190.755859375 753.926757812 125.977539062 721.909179688 c 1,42,43
 123.064453125 715.065429688 123.064453125 715.065429688 120.151367188 728.220703125 c 1,44,45
 114.151367188 724.720703125 114.151367188 724.720703125 108.151367188 741.220703125 c 1,46,47
 104.555664062 735.115234375 104.555664062 735.115234375 100.9609375 749.010742188 c 1,48,49
 167.926757812 793.504882812 167.926757812 793.504882812 240.896484375 858 c 1,25,26
EndSplineSet
EndChar

StartChar: Edieresis
Encoding: 203 203 140
Width: 550
GlyphClass: 2
Flags: W
HStem: 0 44<89.5 507.5> 344 44<89.5 443.5> 652 44<89.5 479.5> 763 56<133.5 194.329 299.695 363.354>
VStem: 42.5 47<44 344 388 652> 133.5 60.8291<762.849 819> 299.695 63.6582<762.849 819>
LayerCount: 2
Fore
SplineSet
507.5 0 m 1,0,-1
 42.5 0 l 1,1,2
 42.5 348 42.5 348 42.5 696 c 1,3,-1
 479.5 696 l 1,4,5
 479.5 681 479.5 681 479.5 686 c 1,6,7
 479.5 664 479.5 664 479.5 662 c 1,8,9
 479.5 647 479.5 647 479.5 652 c 1,10,-1
 89.5 652 l 1,11,-1
 89.5 388 l 1,12,-1
 443.5 388 l 1,13,-1
 443.5 378 l 1,14,-1
 443.5 354 l 1,15,-1
 443.5 344 l 1,16,-1
 89.5 344 l 1,17,-1
 89.5 44 l 1,18,-1
 507.5 44 l 1,19,20
 507.5 49 507.5 49 507.5 34 c 1,21,22
 507.5 32 507.5 32 507.5 10 c 1,23,24
 507.5 15 507.5 15 507.5 0 c 1,0,-1
299.6953125 763 m 1,25,26
 299.6953125 758 299.6953125 758 299.6953125 773 c 1,27,28
 299.6953125 781 299.6953125 781 299.6953125 809 c 1,29,30
 299.6953125 804 299.6953125 804 299.6953125 819 c 1,31,-1
 310.670898438 819 l 1,32,-1
 352.377929688 819 l 1,33,-1
 363.353515625 819 l 1,34,35
 363.353515625 804 363.353515625 804 363.353515625 809 c 1,36,37
 363.353515625 781 363.353515625 781 363.353515625 773 c 1,38,39
 363.353515625 758 363.353515625 758 363.353515625 763 c 1,40,-1
 352.377929688 763 l 1,41,-1
 310.670898438 763 l 1,42,-1
 299.6953125 763 l 1,25,26
133.5 763 m 1,43,44
 133.5 758 133.5 758 133.5 773 c 1,45,46
 133.5 781 133.5 781 133.5 809 c 1,47,48
 133.5 804 133.5 804 133.5 819 c 1,49,-1
 143.5 819 l 1,50,-1
 183.353515625 819 l 1,51,-1
 194.329101562 819 l 1,52,53
 194.329101562 804 194.329101562 804 194.329101562 809 c 1,54,55
 194.329101562 781 194.329101562 781 194.329101562 773 c 1,56,57
 194.329101562 758 194.329101562 758 194.329101562 763 c 1,58,-1
 183.353515625 763 l 1,59,-1
 143.5 763 l 1,60,-1
 133.5 763 l 1,43,44
EndSplineSet
EndChar

StartChar: Igrave
Encoding: 204 204 141
Width: 550
GlyphClass: 2
Flags: W
HStem: 0 21G<313.111 359.111> 676 20G<313.111 359.111>
VStem: 313.111 46<0 696>
LayerCount: 2
Fore
SplineSet
313.111328125 0 m 1,0,1
 313.111328125 348 313.111328125 348 313.111328125 696 c 1,2,-1
 323.111328125 696 l 1,3,-1
 349.111328125 696 l 1,4,-1
 359.111328125 696 l 1,5,6
 359.111328125 348 359.111328125 348 359.111328125 0 c 1,7,-1
 349.111328125 0 l 1,8,-1
 323.111328125 0 l 1,9,-1
 313.111328125 0 l 1,0,1
366.452148438 758.469726562 m 1,10,11
 363.099609375 744.5078125 363.099609375 744.5078125 359.747070312 750.545898438 c 1,12,13
 354.247070312 734.045898438 354.247070312 734.045898438 348.747070312 737.545898438 c 1,14,15
 345.959960938 724.251953125 345.959960938 724.251953125 343.172851562 730.958007812 c 1,16,17
 263.360351562 770.418945312 263.360351562 770.418945312 183.547851562 829.880859375 c 1,18,19
 187.655273438 824.330078125 187.655273438 824.330078125 191.76171875 838.779296875 c 1,20,21
 203.76171875 841.779296875 203.76171875 841.779296875 215.76171875 864.779296875 c 1,22,23
 218.889648438 858.166992188 218.889648438 858.166992188 222.016601562 871.5546875 c 1,24,25
 294.234375 805.012695312 294.234375 805.012695312 366.452148438 758.469726562 c 1,10,11
EndSplineSet
EndChar

StartChar: Iacute
Encoding: 205 205 142
Width: 550
GlyphClass: 2
Flags: W
HStem: 0 21G<189.889 235.889> 676 20G<189.889 235.889>
VStem: 189.889 46<0 696>
LayerCount: 2
Fore
SplineSet
189.888671875 0 m 1,0,1
 189.888671875 348 189.888671875 348 189.888671875 696 c 1,2,-1
 199.888671875 696 l 1,3,-1
 225.888671875 696 l 1,4,-1
 235.888671875 696 l 1,5,6
 235.888671875 348 235.888671875 348 235.888671875 0 c 1,7,-1
 225.888671875 0 l 1,8,-1
 199.888671875 0 l 1,9,-1
 189.888671875 0 l 1,0,1
206.827148438 730.958007812 m 1,10,11
 204.040039062 724.251953125 204.040039062 724.251953125 201.252929688 737.545898438 c 1,12,13
 195.752929688 734.045898438 195.752929688 734.045898438 190.252929688 750.545898438 c 1,14,15
 186.900390625 744.5078125 186.900390625 744.5078125 183.547851562 758.469726562 c 1,16,17
 255.765625 805.012695312 255.765625 805.012695312 327.983398438 871.5546875 c 1,18,19
 331.110351562 858.166992188 331.110351562 858.166992188 334.23828125 864.779296875 c 1,20,21
 346.23828125 841.779296875 346.23828125 841.779296875 358.23828125 838.779296875 c 1,22,23
 362.344726562 824.330078125 362.344726562 824.330078125 366.452148438 829.880859375 c 1,24,25
 286.639648438 770.418945312 286.639648438 770.418945312 206.827148438 730.958007812 c 1,10,11
EndSplineSet
EndChar

StartChar: Icircumflex
Encoding: 206 206 143
Width: 550
GlyphClass: 2
Flags: W
HStem: 0 21G<250.396 296.396> 676 20G<250.396 296.396>
VStem: 250.396 46<0 696>
LayerCount: 2
Fore
SplineSet
250.395507812 0 m 1,0,1
 250.395507812 348 250.395507812 348 250.395507812 696 c 1,2,-1
 260.395507812 696 l 1,3,-1
 286.395507812 696 l 1,4,-1
 296.395507812 696 l 1,5,6
 296.395507812 348 296.395507812 348 296.395507812 0 c 1,7,-1
 286.395507812 0 l 1,8,-1
 260.395507812 0 l 1,9,-1
 250.395507812 0 l 1,0,1
258.823242188 861 m 1,10,11
 260.609375 851 260.609375 851 262.395507812 861 c 1,12,-1
 291.395507812 861 l 1,13,14
 293.228515625 851 293.228515625 851 295.060546875 861 c 1,15,16
 359.6015625 796.303710938 359.6015625 796.303710938 424.143554688 751.608398438 c 1,17,18
 420.3046875 737.76953125 420.3046875 737.76953125 416.465820312 743.930664062 c 1,19,20
 410.465820312 727.930664062 410.465820312 727.930664062 404.465820312 731.930664062 c 1,21,22
 401.555664062 719.020507812 401.555664062 719.020507812 398.646484375 726.111328125 c 1,23,24
 337.026367188 757.528320312 337.026367188 757.528320312 275.407226562 808.944335938 c 1,25,26
 213.139648438 756.926757812 213.139648438 756.926757812 150.873046875 724.909179688 c 1,27,28
 147.959960938 718.065429688 147.959960938 718.065429688 145.046875 731.220703125 c 1,29,30
 139.046875 727.720703125 139.046875 727.720703125 133.046875 744.220703125 c 1,31,32
 129.452148438 738.115234375 129.452148438 738.115234375 125.856445312 752.010742188 c 1,33,34
 192.33984375 796.504882812 192.33984375 796.504882812 258.823242188 861 c 1,10,11
EndSplineSet
EndChar

StartChar: Idieresis
Encoding: 207 207 144
Width: 550
GlyphClass: 2
Flags: W
HStem: 0 21G<252 298> 676 20G<252 298> 763 56<169 227 323 381>
VStem: 169 58<762.849 819> 252 46<0 696> 323 58<762.849 819>
CounterMasks: 1 1c
LayerCount: 2
Fore
SplineSet
252 0 m 1,0,1
 252 348 252 348 252 696 c 1,2,-1
 262 696 l 1,3,-1
 288 696 l 1,4,-1
 298 696 l 1,5,6
 298 348 298 348 298 0 c 1,7,-1
 288 0 l 1,8,-1
 262 0 l 1,9,-1
 252 0 l 1,0,1
323 763 m 1,10,11
 323 758 323 758 323 773 c 1,12,13
 323 781 323 781 323 809 c 1,14,15
 323 804 323 804 323 819 c 1,16,-1
 333 819 l 1,17,-1
 371 819 l 1,18,-1
 381 819 l 1,19,20
 381 804 381 804 381 809 c 1,21,22
 381 781 381 781 381 773 c 1,23,24
 381 758 381 758 381 763 c 1,25,-1
 371 763 l 1,26,-1
 333 763 l 1,27,-1
 323 763 l 1,10,11
169 763 m 1,28,29
 169 758 169 758 169 773 c 1,30,31
 169 781 169 781 169 809 c 1,32,33
 169 804 169 804 169 819 c 1,34,-1
 179 819 l 1,35,-1
 217 819 l 1,36,-1
 227 819 l 1,37,38
 227 804 227 804 227 809 c 1,39,40
 227 781 227 781 227 773 c 1,41,42
 227 758 227 758 227 763 c 1,43,-1
 217 763 l 1,44,-1
 179 763 l 1,45,-1
 169 763 l 1,28,29
EndSplineSet
EndChar

StartChar: Eth
Encoding: 208 208 145
Width: 550
GlyphClass: 2
Flags: W
HStem: 0 44<96 387.828> 355 43<7 49 96 288.272> 652 44<96 388.718>
VStem: 49 47<44 355 398 652> 497 46<149.783 548.153>
LayerCount: 2
Fore
SplineSet
7 355 m 1,0,-1
 7 365 l 1,1,-1
 7 388 l 1,2,-1
 7 398 l 1,3,-1
 17 398 l 1,4,-1
 49 398 l 1,5,-1
 49 696 l 1,6,-1
 271 696 l 2,7,8
 457.36328125 696 457.36328125 696 518.053710938 569.873046875 c 0,9,10
 543 518.342773438 543 518.342773438 543 353.943359375 c 128,-1,11
 543 189.54296875 543 189.54296875 519.215820312 134.256835938 c 0,12,13
 487.844726562 62.0859375 487.844726562 62.0859375 428.686523438 31.04296875 c 0,14,15
 361.426757812 0 361.426757812 0 259 0 c 2,16,-1
 49 0 l 1,17,-1
 49 355 l 1,18,-1
 17 355 l 1,19,-1
 7 355 l 1,0,-1
454.653320312 113.801757812 m 0,20,21
 497 170.310546875 497 170.310546875 497 273.452148438 c 2,22,23
 497 345.188476562 497 345.188476562 497 416.739257812 c 2,24,25
 497 545.41796875 497 545.41796875 442.868164062 598.744140625 c 0,26,27
 383.62890625 652 383.62890625 652 263 652 c 2,28,-1
 96 652 l 1,29,-1
 96 398 l 1,30,-1
 288.272460938 398 l 1,31,-1
 288.272460938 388 l 1,32,-1
 288.272460938 365 l 1,33,-1
 288.272460938 355 l 1,34,-1
 96 355 l 1,35,-1
 96 44 l 1,36,-1
 263 44 l 2,37,38
 399.217773438 44 399.217773438 44 454.653320312 113.801757812 c 0,20,21
EndSplineSet
EndChar

StartChar: Ntilde
Encoding: 209 209 146
Width: 550
GlyphClass: 2
Flags: W
HStem: 0 21G<47.5 93.5 366.547 502.5> 676 20G<47.5 192.956 456.5 502.5> 732 47<285.472 388.385> 772 47<167.596 285.472>
VStem: 47.5 46<0 624.147> 456.5 46<90.9043 696>
LayerCount: 2
Fore
SplineSet
456.5 90.904296875 m 5,0,1
 456.5 383 456.5 383 456.5 696 c 5,2,-1
 466.5 696 l 5,3,-1
 492.5 696 l 5,4,-1
 502.5 696 l 5,5,6
 502.5 348 502.5 348 502.5 0 c 5,7,-1
 492.5 0 l 5,8,-1
 463.5 0 l 5,9,10
 461.5 0 461.5 0 457.59375 0 c 5,11,12
 275.5 322 275.5 322 93.5 624.147460938 c 5,13,14
 93.5 322 93.5 322 93.5 0 c 5,15,-1
 83.5 0 l 5,16,-1
 57.5 0 l 5,17,-1
 47.5 0 l 5,18,19
 47.5 348 47.5 348 47.5 696 c 5,20,-1
 57.5 696 l 5,21,-1
 99.5 696 l 5,22,23
 102.5 686 102.5 686 105.411132812 696 c 5,24,25
 280.5 393 280.5 393 456.5 90.904296875 c 5,0,1
120.294921875 761.71484375 m 2,26,27
 160.286132812 819 160.286132812 819 218.217773438 819 c 0,28,29
 242.737304688 819 242.737304688 819 289.595703125 799 c 128,-1,30
 336.455078125 779 336.455078125 779 351.627929688 779 c 0,31,32
 374.51953125 779 374.51953125 779 399.272460938 813.682617188 c 2,33,34
 401.942382812 807.5390625 401.942382812 807.5390625 404.611328125 821.39453125 c 1,35,36
 408.623046875 808.98828125 408.623046875 808.98828125 412.633789062 816.581054688 c 1,37,38
 422.633789062 800.581054688 422.633789062 800.581054688 432.633789062 804.581054688 c 1,39,40
 436.845703125 792.0546875 436.845703125 792.0546875 441.056640625 799.528320312 c 1,41,42
 438.6171875 785.280273438 438.6171875 785.280273438 436.178710938 791.032226562 c 2,43,44
 402.290039062 732 402.290039062 732 350.525390625 732 c 0,45,46
 328.211914062 732 328.211914062 732 281.352539062 752 c 128,-1,47
 234.494140625 772 234.494140625 772 216.012695312 772 c 0,48,49
 184.860351562 772 184.860351562 772 155.251953125 737.685546875 c 2,50,51
 152.450195312 724.250976562 152.450195312 724.250976562 149.6484375 730.81640625 c 1,52,53
 145.909179688 723.177734375 145.909179688 723.177734375 142.170898438 735.5390625 c 1,54,55
 132.670898438 731.5390625 132.670898438 731.5390625 123.170898438 747.5390625 c 1,56,57
 118.73828125 740.337890625 118.73828125 740.337890625 114.306640625 753.13671875 c 1,58,59
 117.30078125 747.42578125 117.30078125 747.42578125 120.294921875 761.71484375 c 2,26,27
EndSplineSet
EndChar

StartChar: Ograve
Encoding: 210 210 147
Width: 550
GlyphClass: 2
Flags: W
HStem: -7 38<178.758 374.186> 656 45<168.058 380.103>
VStem: 20 47<135.549 550.374> 483 47<139.102 551.563>
LayerCount: 2
Fore
SplineSet
84.2490234375 630.387695312 m 4,0,1
 149.177734375 701 149.177734375 701 277.16015625 701 c 4,2,3
 398.4921875 701 398.4921875 701 464.671875 632.892578125 c 4,4,5
 530 564.78515625 530 564.78515625 530 454.950195312 c 6,6,7
 530 350.310546875 530 350.310546875 530 245.857421875 c 6,8,9
 530 130.208007812 530 130.208007812 464.68359375 61.6044921875 c 4,10,11
 398.515625 -7 398.515625 -7 277.16015625 -7 c 4,12,13
 145.8125 -7 145.8125 -7 82.6904296875 64.6376953125 c 4,14,15
 20 136.276367188 20 136.276367188 20 245.857421875 c 6,16,17
 20 350.310546875 20 350.310546875 20 454.950195312 c 134,-1,18
 20 559.775390625 20 559.775390625 84.2490234375 630.387695312 c 4,0,1
430.752929688 597.103515625 m 4,19,20
 376 656 376 656 278.240234375 656 c 4,21,22
 171 656 171 656 119.247070312 597.103515625 c 4,23,24
 67 538 67 538 67 446 c 6,25,26
 67 327 67 327 67 228 c 6,27,28
 67 149 67 149 119.283203125 91.36328125 c 4,29,30
 174 31 174 31 278.240234375 31 c 4,31,32
 378 31 378 31 430.728515625 90.8740234375 c 4,33,34
 483 151 483 151 483 240.5 c 134,-1,35
 483 330 483 330 483 446 c 6,36,37
 483 541 483 541 430.752929688 597.103515625 c 4,19,20
308.84765625 758.469726562 m 1,38,39
 305.228515625 744.5078125 305.228515625 744.5078125 301.607421875 750.545898438 c 1,40,41
 295.66796875 734.045898438 295.66796875 734.045898438 289.727539062 737.545898438 c 1,42,43
 286.717773438 724.251953125 286.717773438 724.251953125 283.706054688 730.958007812 c 1,44,45
 197.508789062 770.418945312 197.508789062 770.418945312 113.436523438 829.880859375 c 1,46,47
 117.543945312 824.330078125 117.543945312 824.330078125 121.651367188 838.779296875 c 1,48,49
 133.651367188 841.779296875 133.651367188 841.779296875 146.103515625 864.779296875 c 1,50,51
 149.48046875 858.166992188 149.48046875 858.166992188 152.858398438 871.5546875 c 1,52,53
 230.853515625 805.012695312 230.853515625 805.012695312 308.84765625 758.469726562 c 1,38,39
EndSplineSet
EndChar

StartChar: Oacute
Encoding: 211 211 148
Width: 550
GlyphClass: 2
Flags: W
HStem: -7 38<178.758 374.186> 656 45<168.058 380.103>
VStem: 20 47<135.549 550.374> 483 47<139.102 551.563>
LayerCount: 2
Fore
SplineSet
84.2490234375 630.387695312 m 4,0,1
 149.177734375 701 149.177734375 701 277.16015625 701 c 4,2,3
 398.4921875 701 398.4921875 701 464.671875 632.892578125 c 4,4,5
 530 564.78515625 530 564.78515625 530 454.950195312 c 6,6,7
 530 350.310546875 530 350.310546875 530 245.857421875 c 6,8,9
 530 130.208007812 530 130.208007812 464.68359375 61.6044921875 c 4,10,11
 398.515625 -7 398.515625 -7 277.16015625 -7 c 4,12,13
 145.8125 -7 145.8125 -7 82.6904296875 64.6376953125 c 4,14,15
 20 136.276367188 20 136.276367188 20 245.857421875 c 6,16,17
 20 350.310546875 20 350.310546875 20 454.950195312 c 134,-1,18
 20 559.775390625 20 559.775390625 84.2490234375 630.387695312 c 4,0,1
430.752929688 597.103515625 m 4,19,20
 376 656 376 656 278.240234375 656 c 4,21,22
 171 656 171 656 119.247070312 597.103515625 c 4,23,24
 67 538 67 538 67 446 c 6,25,26
 67 327 67 327 67 228 c 6,27,28
 67 149 67 149 119.283203125 91.36328125 c 4,29,30
 174 31 174 31 278.240234375 31 c 4,31,32
 378 31 378 31 430.728515625 90.8740234375 c 4,33,34
 483 151 483 151 483 240.5 c 134,-1,35
 483 330 483 330 483 446 c 6,36,37
 483 541 483 541 430.752929688 597.103515625 c 4,19,20
272.7734375 730.958007812 m 1,38,39
 269.762695312 724.251953125 269.762695312 724.251953125 266.751953125 737.545898438 c 1,40,41
 260.8125 734.045898438 260.8125 734.045898438 254.872070312 750.545898438 c 1,42,43
 251.251953125 744.5078125 251.251953125 744.5078125 247.631835938 758.469726562 c 1,44,45
 325.625976562 805.012695312 325.625976562 805.012695312 403.62109375 871.5546875 c 1,46,47
 406.999023438 858.166992188 406.999023438 858.166992188 410.348632812 864.779296875 c 1,48,49
 422.348632812 841.779296875 422.348632812 841.779296875 434.348632812 838.779296875 c 1,50,51
 438.456054688 824.330078125 438.456054688 824.330078125 442.563476562 829.880859375 c 1,52,53
 358.970703125 770.418945312 358.970703125 770.418945312 272.7734375 730.958007812 c 1,38,39
EndSplineSet
EndChar

StartChar: Ocircumflex
Encoding: 212 212 149
Width: 550
GlyphClass: 2
Flags: W
HStem: -7 38<178.758 374.186> 656 45<168.058 380.103>
VStem: 20 47<135.549 550.374> 483 47<139.102 551.563>
LayerCount: 2
Fore
SplineSet
84.2490234375 630.387695312 m 4,0,1
 149.177734375 701 149.177734375 701 277.16015625 701 c 4,2,3
 398.4921875 701 398.4921875 701 464.671875 632.892578125 c 4,4,5
 530 564.78515625 530 564.78515625 530 454.950195312 c 6,6,7
 530 350.310546875 530 350.310546875 530 245.857421875 c 6,8,9
 530 130.208007812 530 130.208007812 464.68359375 61.6044921875 c 4,10,11
 398.515625 -7 398.515625 -7 277.16015625 -7 c 4,12,13
 145.8125 -7 145.8125 -7 82.6904296875 64.6376953125 c 4,14,15
 20 136.276367188 20 136.276367188 20 245.857421875 c 6,16,17
 20 350.310546875 20 350.310546875 20 454.950195312 c 134,-1,18
 20 559.775390625 20 559.775390625 84.2490234375 630.387695312 c 4,0,1
430.752929688 597.103515625 m 4,19,20
 376 656 376 656 278.240234375 656 c 4,21,22
 171 656 171 656 119.247070312 597.103515625 c 4,23,24
 67 538 67 538 67 446 c 6,25,26
 67 327 67 327 67 228 c 6,27,28
 67 149 67 149 119.283203125 91.36328125 c 4,29,30
 174 31 174 31 278.240234375 31 c 4,31,32
 378 31 378 31 430.728515625 90.8740234375 c 4,33,34
 483 151 483 151 483 240.5 c 134,-1,35
 483 330 483 330 483 446 c 6,36,37
 483 541 483 541 430.752929688 597.103515625 c 4,19,20
264.662109375 858 m 1,38,39
 266.590820312 848 266.590820312 848 268.51953125 858 c 1,40,-1
 299.83984375 858 l 1,41,42
 301.818359375 848 301.818359375 848 303.797851562 858 c 1,43,44
 373.502929688 793.303710938 373.502929688 793.303710938 440.747070312 748.608398438 c 1,45,46
 436.908203125 734.76953125 436.908203125 734.76953125 433.069335938 740.930664062 c 1,47,48
 427.069335938 724.930664062 427.069335938 724.930664062 421.069335938 728.930664062 c 1,49,50
 418.16015625 716.020507812 418.16015625 716.020507812 415.250976562 723.111328125 c 1,51,52
 349.12109375 754.528320312 349.12109375 754.528320312 282.571289062 805.944335938 c 1,53,54
 215.323242188 753.926757812 215.323242188 753.926757812 148.076171875 721.909179688 c 1,55,56
 144.9296875 715.065429688 144.9296875 715.065429688 141.783203125 728.220703125 c 1,57,58
 135.651367188 724.720703125 135.651367188 724.720703125 129.651367188 741.220703125 c 1,59,60
 126.055664062 735.115234375 126.055664062 735.115234375 122.4609375 749.010742188 c 1,61,62
 192.860351562 793.504882812 192.860351562 793.504882812 264.662109375 858 c 1,38,39
EndSplineSet
EndChar

StartChar: Otilde
Encoding: 213 213 150
Width: 550
GlyphClass: 2
Flags: W
HStem: -7 38<178.758 374.186> 656 45<168.058 380.103> 752 47<286.878 388.915> 792 47<170.482 286.878>
VStem: 20 47<135.549 550.374> 483 47<139.102 551.563>
LayerCount: 2
Fore
SplineSet
84.2490234375 630.387695312 m 4,0,1
 149.177734375 701 149.177734375 701 277.16015625 701 c 4,2,3
 398.4921875 701 398.4921875 701 464.671875 632.892578125 c 4,4,5
 530 564.78515625 530 564.78515625 530 454.950195312 c 6,6,7
 530 350.310546875 530 350.310546875 530 245.857421875 c 6,8,9
 530 130.208007812 530 130.208007812 464.68359375 61.6044921875 c 4,10,11
 398.515625 -7 398.515625 -7 277.16015625 -7 c 4,12,13
 145.8125 -7 145.8125 -7 82.6904296875 64.6376953125 c 4,14,15
 20 136.276367188 20 136.276367188 20 245.857421875 c 6,16,17
 20 350.310546875 20 350.310546875 20 454.950195312 c 134,-1,18
 20 559.775390625 20 559.775390625 84.2490234375 630.387695312 c 4,0,1
430.752929688 597.103515625 m 4,19,20
 376 656 376 656 278.240234375 656 c 4,21,22
 171 656 171 656 119.247070312 597.103515625 c 4,23,24
 67 538 67 538 67 446 c 6,25,26
 67 327 67 327 67 228 c 6,27,28
 67 149 67 149 119.283203125 91.36328125 c 4,29,30
 174 31 174 31 278.240234375 31 c 4,31,32
 378 31 378 31 430.728515625 90.8740234375 c 4,33,34
 483 151 483 151 483 240.5 c 134,-1,35
 483 330 483 330 483 446 c 6,36,37
 483 541 483 541 430.752929688 597.103515625 c 4,19,20
121.794921875 781.71484375 m 2,38,39
 163.529296875 839 163.529296875 839 221 839 c 0,40,41
 245.017578125 839 245.017578125 839 290.916992188 819 c 128,-1,42
 336.817382812 799 336.817382812 799 351.6796875 799 c 0,43,44
 374.102539062 799 374.102539062 799 400.034179688 833.682617188 c 2,45,46
 402.91796875 827.5390625 402.91796875 827.5390625 405.799804688 841.39453125 c 1,47,48
 410.123046875 828.98828125 410.123046875 828.98828125 414.133789062 836.581054688 c 1,49,50
 424.133789062 820.581054688 424.133789062 820.581054688 434.133789062 824.581054688 c 1,51,52
 438.345703125 812.0546875 438.345703125 812.0546875 442.556640625 819.528320312 c 1,53,54
 440.1171875 805.280273438 440.1171875 805.280273438 437.678710938 811.032226562 c 2,55,56
 403.29296875 752 403.29296875 752 350.599609375 752 c 0,57,58
 328.7421875 752 328.7421875 752 282.842773438 772 c 128,-1,59
 236.942382812 792 236.942382812 792 218.83984375 792 c 0,60,61
 188.325195312 792 188.325195312 792 158.091796875 757.685546875 c 2,62,63
 155.06640625 744.250976562 155.06640625 744.250976562 152.040039062 750.81640625 c 1,64,65
 148.001953125 743.177734375 148.001953125 743.177734375 143.96484375 755.5390625 c 1,66,67
 134.170898438 751.5390625 134.170898438 751.5390625 124.670898438 767.5390625 c 1,68,69
 120.23828125 760.337890625 120.23828125 760.337890625 115.806640625 773.13671875 c 1,70,71
 118.80078125 767.42578125 118.80078125 767.42578125 121.794921875 781.71484375 c 2,38,39
EndSplineSet
EndChar

StartChar: Odieresis
Encoding: 214 214 151
Width: 550
GlyphClass: 2
Flags: W
HStem: -7 38<178.758 374.186> 656 45<168.058 380.103> 763 56<163.76 226.4 330.08 392.72>
VStem: 20 47<135.549 550.374> 163.76 62.6406<762.849 819> 330.08 62.6396<762.849 819> 483 47<139.102 551.563>
LayerCount: 2
Fore
SplineSet
84.2490234375 630.387695312 m 4,0,1
 149.177734375 701 149.177734375 701 277.16015625 701 c 4,2,3
 398.4921875 701 398.4921875 701 464.671875 632.892578125 c 4,4,5
 530 564.78515625 530 564.78515625 530 454.950195312 c 6,6,7
 530 350.310546875 530 350.310546875 530 245.857421875 c 6,8,9
 530 130.208007812 530 130.208007812 464.68359375 61.6044921875 c 4,10,11
 398.515625 -7 398.515625 -7 277.16015625 -7 c 4,12,13
 145.8125 -7 145.8125 -7 82.6904296875 64.6376953125 c 4,14,15
 20 136.276367188 20 136.276367188 20 245.857421875 c 6,16,17
 20 350.310546875 20 350.310546875 20 454.950195312 c 134,-1,18
 20 559.775390625 20 559.775390625 84.2490234375 630.387695312 c 4,0,1
430.752929688 597.103515625 m 4,19,20
 376 656 376 656 278.240234375 656 c 4,21,22
 171 656 171 656 119.247070312 597.103515625 c 4,23,24
 67 538 67 538 67 446 c 6,25,26
 67 327 67 327 67 228 c 6,27,28
 67 149 67 149 119.283203125 91.36328125 c 4,29,30
 174 31 174 31 278.240234375 31 c 4,31,32
 378 31 378 31 430.728515625 90.8740234375 c 4,33,34
 483 151 483 151 483 240.5 c 134,-1,35
 483 330 483 330 483 446 c 6,36,37
 483 541 483 541 430.752929688 597.103515625 c 4,19,20
330.080078125 763 m 1,38,39
 330.080078125 758 330.080078125 758 330.080078125 773 c 1,40,41
 330.080078125 781 330.080078125 781 330.080078125 809 c 1,42,43
 330.080078125 804 330.080078125 804 330.080078125 819 c 1,44,-1
 340.879882812 819 l 1,45,-1
 381.919921875 819 l 1,46,-1
 392.719726562 819 l 1,47,48
 392.719726562 804 392.719726562 804 392.719726562 809 c 1,49,50
 392.719726562 781 392.719726562 781 392.719726562 773 c 1,51,52
 392.719726562 758 392.719726562 758 392.719726562 763 c 1,53,-1
 381.919921875 763 l 1,54,-1
 340.879882812 763 l 1,55,-1
 330.080078125 763 l 1,38,39
163.759765625 763 m 1,56,57
 163.759765625 758 163.759765625 758 163.759765625 773 c 1,58,59
 163.759765625 781 163.759765625 781 163.759765625 809 c 1,60,61
 163.759765625 804 163.759765625 804 163.759765625 819 c 1,62,-1
 174.559570312 819 l 1,63,-1
 215.599609375 819 l 1,64,-1
 226.400390625 819 l 1,65,66
 226.400390625 804 226.400390625 804 226.400390625 809 c 1,67,68
 226.400390625 781 226.400390625 781 226.400390625 773 c 1,69,70
 226.400390625 758 226.400390625 758 226.400390625 763 c 1,71,-1
 215.599609375 763 l 1,72,-1
 174.559570312 763 l 1,73,-1
 163.759765625 763 l 1,56,57
EndSplineSet
EndChar

StartChar: multiply
Encoding: 215 215 152
Width: 550
GlyphClass: 2
Flags: W
LayerCount: 2
Fore
SplineSet
306.771484375 272.022460938 m 1,0,-1
 461.771484375 118.022460938 l 1,1,-1
 454.678710938 110.930664062 l 1,2,-1
 437.678710938 93.9306640625 l 1,3,-1
 430.631835938 86.8837890625 l 1,4,-1
 275.631835938 240.883789062 l 1,5,-1
 116.819335938 82.0712890625 l 1,6,-1
 109.7578125 88.7177734375 l 1,7,-1
 92.7578125 104.717773438 l 1,8,-1
 85.251953125 111.782226562 l 1,9,-1
 245.469726562 272 l 1,10,-1
 91.4697265625 426 l 1,11,-1
 98.5390625 433.069335938 l 1,12,-1
 115.5390625 450.069335938 l 1,13,-1
 122.608398438 457.139648438 l 1,14,-1
 276.630859375 303.1171875 l 1,15,-1
 434.630859375 460.1171875 l 1,16,-1
 441.678710938 453.069335938 l 1,17,-1
 457.678710938 437.069335938 l 1,18,-1
 464.748046875 430 l 1,19,-1
 306.771484375 272.022460938 l 1,0,-1
EndSplineSet
EndChar

StartChar: Oslash
Encoding: 216 216 153
Width: 550
GlyphClass: 2
Flags: W
HStem: -7 44<172.936 379.037> 656 45<170.333 380.606>
VStem: 19.9131 47<128.339 550.469> 482.913 47<144.772 565.457>
LayerCount: 2
Fore
SplineSet
63.8955078125 87.2958984375 m 1,0,1
 19.9130859375 151.624023438 19.9130859375 151.624023438 19.9130859375 245.94140625 c 2,2,3
 19.9130859375 350.438476562 19.9130859375 350.438476562 19.9130859375 454.99609375 c 2,4,5
 19.9130859375 559.801757812 19.9130859375 559.801757812 84.162109375 630.401367188 c 0,6,7
 149.357421875 701 149.357421875 701 277.061523438 701 c 0,8,9
 389.99609375 701 389.99609375 701 456.265625 638.946289062 c 1,10,11
 477.0625 661.350585938 477.0625 661.350585938 497.859375 703.755859375 c 1,12,13
 502.05078125 691.108398438 502.05078125 691.108398438 506.2421875 698.4609375 c 1,14,15
 515.7421875 682.4609375 515.7421875 682.4609375 525.2421875 686.4609375 c 1,16,17
 529.51171875 674.194335938 529.51171875 674.194335938 533.78125 681.219726562 c 1,18,19
 509.383789062 635.84765625 509.383789062 635.84765625 484.987304688 607.557617188 c 1,20,21
 529.913085938 544.321289062 529.913085938 544.321289062 529.913085938 454.684570312 c 2,22,23
 529.913085938 349.904296875 529.913085938 349.904296875 529.913085938 245.711914062 c 2,24,25
 529.913085938 130.12890625 529.913085938 130.12890625 464.595703125 61.564453125 c 0,26,27
 398.153320312 -7 398.153320312 -7 279.069335938 -7 c 128,-1,28
 159.985351562 -7 159.985351562 -7 93.453125 56.0458984375 c 1,29,30
 72.580078125 34.0087890625 72.580078125 34.0087890625 51.7080078125 -8.0283203125 c 1,31,32
 47.4921875 4.8564453125 47.4921875 4.8564453125 43.275390625 -2.2587890625 c 1,33,34
 33.775390625 13.6103515625 33.775390625 13.6103515625 24.275390625 10.3818359375 c 1,35,36
 20.2470703125 22.361328125 20.2470703125 22.361328125 16.21875 15.7421875 c 1,37,38
 40.0576171875 59.7548828125 40.0576171875 59.7548828125 63.8955078125 87.2958984375 c 1,0,1
430.641601562 96.8740234375 m 0,39,40
 482.913085938 156.748046875 482.913085938 156.748046875 482.913085938 254 c 2,41,42
 482.913085938 370 482.913085938 370 482.913085938 466 c 2,43,44
 482.913085938 531.1640625 482.913085938 531.1640625 455.541015625 581.137695312 c 1,45,46
 288.432617188 348.977539062 288.432617188 348.977539062 119.388671875 96.818359375 c 1,47,48
 175.686523438 37 175.686523438 37 278.139648438 37 c 0,49,50
 375.62109375 37 375.62109375 37 430.641601562 96.8740234375 c 0,39,40
429.413085938 598.145507812 m 1,51,52
 374.301757812 656 374.301757812 656 278.139648438 656 c 0,53,54
 174.139648438 656 174.139648438 656 119.16015625 597.103515625 c 0,55,56
 66.9130859375 538.206054688 66.9130859375 538.206054688 66.9130859375 446 c 2,57,58
 66.9130859375 327 66.9130859375 327 66.9130859375 228 c 2,59,60
 66.9130859375 163.848632812 66.9130859375 163.848632812 93.40625 114.048828125 c 1,61,62
 260.353515625 346.096679688 260.353515625 346.096679688 429.413085938 598.145507812 c 1,51,52
EndSplineSet
EndChar

StartChar: Ugrave
Encoding: 217 217 154
Width: 550
GlyphClass: 2
Flags: W
HStem: -7 44<168.947 381.697> 676 20G<31 77 472 519>
VStem: 31 46<131.993 696> 472 47<125.674 696>
LayerCount: 2
Fore
SplineSet
519 217.610351562 m 2,0,1
 519 114.359375 519 114.359375 455.509765625 53.6455078125 c 0,2,3
 391.484375 -7 391.484375 -7 275.530273438 -7 c 128,-1,4
 159.576171875 -7 159.576171875 -7 94.9599609375 54.6474609375 c 0,5,6
 31 116.487304688 31 116.487304688 31 227.333007812 c 2,7,8
 31 458.42578125 31 458.42578125 31 696 c 1,9,-1
 41 696 l 1,10,-1
 67 696 l 1,11,-1
 77 696 l 1,12,13
 77 464.934570312 77 464.934570312 77 239.84375 c 2,14,15
 77 143.5625 77 143.5625 125.74609375 90.28125 c 0,16,17
 176.551757812 37 176.551757812 37 274.04296875 37 c 128,-1,18
 371.53515625 37 371.53515625 37 422.796875 86.43359375 c 0,19,20
 472 136.024414062 472 136.024414062 472 229.16796875 c 2,21,22
 472 459.75390625 472 459.75390625 472 696 c 1,23,-1
 482 696 l 1,24,-1
 509 696 l 1,25,-1
 519 696 l 1,26,27
 519 453.698242188 519 453.698242188 519 217.610351562 c 2,0,1
317.791992188 758.469726562 m 1,28,29
 314.146484375 744.5078125 314.146484375 744.5078125 310.5 750.545898438 c 1,30,31
 304.517578125 734.045898438 304.517578125 734.045898438 298.53515625 737.545898438 c 1,32,33
 295.502929688 724.251953125 295.502929688 724.251953125 292.470703125 730.958007812 c 1,34,35
 205.657226562 770.418945312 205.657226562 770.418945312 121.436523438 829.880859375 c 1,36,37
 125.543945312 824.330078125 125.543945312 824.330078125 129.651367188 838.779296875 c 1,38,39
 141.651367188 841.779296875 141.651367188 841.779296875 153.883789062 864.779296875 c 1,40,41
 157.28515625 858.166992188 157.28515625 858.166992188 160.6875 871.5546875 c 1,42,43
 239.240234375 805.012695312 239.240234375 805.012695312 317.791992188 758.469726562 c 1,28,29
EndSplineSet
EndChar

